<svg width="133" height="131" viewBox="0 0 133 131" fill="none" xmlns="http://www.w3.org/2000/svg">
<g filter="url(#filter0_f)">
<g clip-path="url(#clip0)">
<rect x="49.9629" y="8" width="85.926" height="85.926" rx="42.963" transform="rotate(30 49.9629 8)" fill="#8BC44A"/>
<g filter="url(#filter1_d)">
<path d="M57.0704 81.9525C54.7742 80.6268 52.8936 78.9741 51.4286 76.9943C50.0083 75.0026 49.1835 72.8633 48.9541 70.5764C48.7531 68.3059 49.2745 66.0934 50.5184 63.9389C51.1403 62.8617 51.8609 61.9737 52.6801 61.2749C53.544 60.5642 54.3097 60.0235 54.9772 59.653C55.6895 59.2704 56.7474 58.7473 58.1512 58.0836L72.6069 51.802C72.668 51.7616 72.7961 51.7033 72.9914 51.6271C73.2313 51.5388 73.4609 51.5013 73.6801 51.5144C73.944 51.5156 74.1893 51.5816 74.4161 51.7126L81.1772 55.6161C81.4323 55.7634 81.5734 55.9772 81.6006 56.2574C81.6725 56.5257 81.6348 56.7874 81.4875 57.0426C81.4057 57.1843 81.2284 57.3277 80.9557 57.4726L71.107 61.765C73.0171 63.1702 74.5324 64.801 75.6529 66.6574C76.7733 68.5139 77.3736 70.4857 77.4536 72.573C77.55 74.6319 77.0335 76.6394 75.9042 78.5954C74.6603 80.7499 72.9908 82.2995 70.8956 83.2443C68.8288 84.2055 66.5778 84.569 64.1428 84.3349C61.7241 84.0724 59.3666 83.2783 57.0704 81.9525ZM60.9985 75.149C62.2742 75.8855 63.5985 76.1776 64.9715 76.0254C66.3445 75.8731 67.3665 75.2159 68.0376 74.0536C68.7086 72.8913 68.7668 71.6776 68.2121 70.4124C67.6575 69.1473 66.7423 68.1464 65.4666 67.4099C64.191 66.6734 62.8525 66.3731 61.4511 66.5089C60.0781 66.6612 59.0561 67.3184 58.385 68.4807C57.714 69.643 57.6558 70.8567 58.2105 72.1219C58.7935 73.4034 59.7228 74.4125 60.9985 75.149Z" fill="white"/>
</g>
<ellipse cx="76.4292" cy="48.085" rx="42.963" ry="21.4815" transform="rotate(30 76.4292 48.085)" fill="url(#paint0_linear)"/>
<g filter="url(#filter2_f)">
<path fill-rule="evenodd" clip-rule="evenodd" d="M106.158 82.3105C93.3357 101.411 68.1711 107.809 48.504 96.4537C28.8348 85.0977 21.7939 60.1013 31.9289 39.4459C31.3683 40.2775 30.8326 41.1345 30.3235 42.0164C18.4595 62.5653 25.5001 88.841 46.049 100.705C66.5979 112.569 92.8736 105.528 104.738 84.9794C105.245 84.0997 105.719 83.2096 106.158 82.3105Z" fill="#060709"/>
</g>
</g>
</g>
<defs>
<filter id="filter0_f" x="-1" y="0" width="133.377" height="133.377" filterUnits="userSpaceOnUse" color-interpolation-filters="sRGB">
<feFlood flood-opacity="0" result="BackgroundImageFix"/>
<feBlend mode="normal" in="SourceGraphic" in2="BackgroundImageFix" result="shape"/>
<feGaussianBlur stdDeviation="4" result="effect1_foregroundBlur"/>
</filter>
<filter id="filter1_d" x="46.4571" y="51.5118" width="37.6339" height="37.8019" filterUnits="userSpaceOnUse" color-interpolation-filters="sRGB">
<feFlood flood-opacity="0" result="BackgroundImageFix"/>
<feColorMatrix in="SourceAlpha" type="matrix" values="0 0 0 0 0 0 0 0 0 0 0 0 0 0 0 0 0 0 127 0" result="hardAlpha"/>
<feOffset dy="2.45503"/>
<feGaussianBlur stdDeviation="1.22751"/>
<feComposite in2="hardAlpha" operator="out"/>
<feColorMatrix type="matrix" values="0 0 0 0 0 0 0 0 0 0 0 0 0 0 0 0 0 0 0.2 0"/>
<feBlend mode="normal" in2="BackgroundImageFix" result="effect1_dropShadow"/>
<feBlend mode="normal" in="SourceGraphic" in2="effect1_dropShadow" result="shape"/>
</filter>
<filter id="filter2_f" x="-5.88837" y="24.6631" width="126.87" height="112.253" filterUnits="userSpaceOnUse" color-interpolation-filters="sRGB">
<feFlood flood-opacity="0" result="BackgroundImageFix"/>
<feBlend mode="normal" in="SourceGraphic" in2="BackgroundImageFix" result="shape"/>
<feGaussianBlur stdDeviation="7.36508" result="effect1_foregroundBlur"/>
</filter>
<linearGradient id="paint0_linear" x1="76.4292" y1="26.6035" x2="76.4292" y2="69.5665" gradientUnits="userSpaceOnUse">
<stop stop-color="white" stop-opacity="0.6"/>
<stop offset="1" stop-color="white" stop-opacity="0"/>
</linearGradient>
<clipPath id="clip0">
<rect x="49.9629" y="8" width="85.926" height="85.926" rx="42.963" transform="rotate(30 49.9629 8)" fill="white"/>
</clipPath>
</defs>
</svg>
