<svg width="234" height="172" viewBox="0 0 234 172" fill="none" xmlns="http://www.w3.org/2000/svg">
<path fill-rule="evenodd" clip-rule="evenodd" d="M53.8237 6.4246L216.386 66.3871L216.386 66.3875C212.838 76.0067 217.759 86.681 227.378 90.2293L203.822 154.093C194.202 150.545 183.528 155.466 179.98 165.085L17.4184 105.123C20.9657 95.504 16.0441 84.8304 6.42516 81.2824L6.42459 81.2822L29.9815 17.4178L29.9817 17.4178C39.601 20.966 50.2754 16.0444 53.8236 6.42505L53.8237 6.4246Z" fill="url(#paint0_linear)"/>
<path d="M126.074 60.8896L129.021 64.5017L129.567 59.9441L133.935 58.3534L129.686 56.3732L129.43 51.7908L126.26 55.1095L121.743 53.8562L124.032 57.9024L121.487 61.7225L126.074 60.8896Z" fill="#212121"/>
<path d="M144.07 67.5292L147.018 71.1414L147.563 66.5837L151.931 64.9931L147.682 63.0129L147.426 58.4305L144.256 61.7491L139.739 60.4959L142.028 64.542L139.483 68.3621L144.07 67.5292Z" fill="#212121"/>
<path d="M162.07 74.1674L165.018 77.7796L165.563 73.2219L169.931 71.6312L165.682 69.651L165.426 65.0687L162.256 68.3873L157.739 67.1341L160.028 71.1802L157.483 75.0003L162.07 74.1674Z" fill="#212121"/>
<path d="M90.0778 47.6142L93.0254 51.2263L93.5707 46.6687L97.9388 45.078L93.6898 43.0978L93.434 38.5154L90.2638 41.8341L85.7466 40.5808L88.0355 44.627L85.4906 48.4471L90.0778 47.6142Z" fill="#212121"/>
<path d="M108.076 54.2514L111.023 57.8635L111.569 53.3059L115.937 51.7152L111.688 49.735L111.432 45.1526L108.262 48.4713L103.745 47.2181L106.034 51.2642L103.489 55.0843L108.076 54.2514Z" fill="#212121"/>
<path d="M105.943 115.464L108.891 119.077L109.436 114.519L113.804 112.928L109.555 110.948L109.299 106.366L106.129 109.684L101.612 108.431L103.901 112.477L101.356 116.297L105.943 115.464Z" fill="#212121"/>
<path d="M123.941 122.103L126.889 125.715L127.434 121.157L131.802 119.567L127.553 117.586L127.297 113.004L124.127 116.323L119.61 115.069L121.899 119.116L119.354 122.936L123.941 122.103Z" fill="#212121"/>
<path d="M141.939 128.742L144.887 132.354L145.432 127.797L149.8 126.206L145.551 124.226L145.295 119.643L142.125 122.962L137.608 121.709L139.897 125.755L137.352 129.575L141.939 128.742Z" fill="#212121"/>
<path d="M69.947 102.187L72.8945 105.799L73.4399 101.241L77.8079 99.6504L73.5589 97.6702L73.3031 93.0878L70.1329 96.4065L65.6158 95.1532L67.9046 99.1994L65.3598 103.019L69.947 102.187Z" fill="#212121"/>
<path d="M87.945 108.826L90.8926 112.438L91.4379 107.881L95.806 106.29L91.557 104.31L91.3011 99.7275L88.131 103.046L83.6138 101.793L85.9027 105.839L83.3578 109.659L87.945 108.826Z" fill="#212121"/>
<mask id="path-12-inside-1" fill="white">
<path fill-rule="evenodd" clip-rule="evenodd" d="M55.1433 10.21L212.924 68.4088L212.924 68.4092C209.584 77.4627 214.446 87.5938 223.782 91.0376L223.782 91.0376L201.612 151.144C192.275 147.7 181.999 152.248 178.66 161.301L20.8788 103.102L20.879 103.102C24.2184 94.0484 19.3571 83.9175 10.0209 80.4735L32.1918 20.3668C41.5281 23.8105 51.8036 19.2632 55.1433 10.21Z"/>
</mask>
<path d="M212.924 68.4088L214.666 69.0513L215.308 67.3096L213.566 66.6671L212.924 68.4088ZM55.1433 10.21L55.7857 8.46831L54.044 7.82588L53.4016 9.56754L55.1433 10.21ZM212.924 68.4092L211.182 67.7668L212.924 68.4092ZM223.782 91.0376L224.425 89.2959L223.782 91.0376ZM223.782 91.0376L225.524 91.6801L226.166 89.9384L224.425 89.2959L223.782 91.0376ZM201.612 151.144L200.969 152.886L202.711 153.528L203.353 151.787L201.612 151.144ZM178.66 161.301L178.017 163.043L179.759 163.686L180.402 161.944L178.66 161.301ZM20.8788 103.102L19.137 102.46L18.4946 104.202L20.2363 104.844L20.8788 103.102ZM20.879 103.102L19.1373 102.459L20.879 103.102ZM10.0209 80.4735L8.27918 79.8311L7.63674 81.5728L9.37843 82.2153L10.0209 80.4735ZM32.1918 20.3668L32.8343 18.6251L31.0925 17.9826L30.4501 19.7244L32.1918 20.3668ZM213.566 66.6671L55.7857 8.46831L54.5008 11.9518L212.281 70.1506L213.566 66.6671ZM214.665 69.0517L214.666 69.0513L211.182 67.7664L211.182 67.7668L214.665 69.0517ZM224.425 89.2959C215.999 86.1881 211.699 77.0931 214.665 69.0517L211.182 67.7668C207.469 77.8323 212.892 88.9995 223.14 92.7793L224.425 89.2959ZM224.425 89.2959L224.425 89.2959L223.14 92.7793L223.14 92.7794L224.425 89.2959ZM203.353 151.787L225.524 91.6801L222.041 90.3952L199.87 150.502L203.353 151.787ZM180.402 161.944C183.368 153.902 192.544 149.778 200.969 152.886L202.254 149.402C192.007 145.623 180.631 150.593 176.918 160.659L180.402 161.944ZM20.2363 104.844L178.017 163.043L179.302 159.56L21.5212 101.361L20.2363 104.844ZM19.1373 102.459L19.137 102.46L22.6205 103.745L22.6208 103.744L19.1373 102.459ZM9.37843 82.2153C17.8036 85.3231 22.1034 94.418 19.1373 102.459L22.6208 103.744C26.3335 93.6788 20.9106 82.5118 10.6634 78.7318L9.37843 82.2153ZM30.4501 19.7244L8.27918 79.8311L11.7627 81.116L33.9336 21.0093L30.4501 19.7244ZM53.4016 9.56754C50.4353 17.6087 41.2595 21.7328 32.8343 18.6251L31.5494 22.1086C41.7966 25.8883 53.172 20.9177 56.885 10.8526L53.4016 9.56754Z" fill="#C34DDB" mask="url(#path-12-inside-1)"/>
<rect x="55.623" y="17.6417" width="1.23763" height="3.71289" rx="0.618815" transform="rotate(20.247 55.623 17.6417)" fill="#C34DDB"/>
<rect x="45.3418" y="45.5081" width="1.23763" height="3.71289" rx="0.618815" transform="rotate(20.247 45.3418 45.5081)" fill="#C34DDB"/>
<rect x="53.0527" y="24.6084" width="1.23763" height="3.71289" rx="0.618815" transform="rotate(20.247 53.0527 24.6084)" fill="#C34DDB"/>
<rect x="42.7734" y="52.4753" width="1.23763" height="3.71289" rx="0.618815" transform="rotate(20.247 42.7734 52.4753)" fill="#C34DDB"/>
<rect x="50.4824" y="31.5756" width="1.23763" height="3.71289" rx="0.618815" transform="rotate(20.247 50.4824 31.5756)" fill="#C34DDB"/>
<rect x="40.2031" y="59.4426" width="1.23763" height="3.71289" rx="0.618815" transform="rotate(20.247 40.2031 59.4426)" fill="#C34DDB"/>
<rect x="47.9121" y="38.5408" width="1.23763" height="3.71289" rx="0.618815" transform="rotate(20.247 47.9121 38.5408)" fill="#C34DDB"/>
<rect x="37.6328" y="66.4102" width="1.23763" height="3.71289" rx="0.618815" transform="rotate(20.247 37.6328 66.4102)" fill="#C34DDB"/>
<rect x="35.0645" y="73.3773" width="1.23763" height="3.71289" rx="0.618815" transform="rotate(20.247 35.0645 73.3773)" fill="#C34DDB"/>
<rect x="32.4941" y="80.3434" width="1.23763" height="3.71289" rx="0.618815" transform="rotate(20.247 32.4941 80.3434)" fill="#C34DDB"/>
<rect x="29.9238" y="87.3097" width="1.23763" height="3.71289" rx="0.618815" transform="rotate(20.247 29.9238 87.3097)" fill="#C34DDB"/>
<rect x="27.3535" y="94.2769" width="1.23763" height="3.71289" rx="0.618815" transform="rotate(20.247 27.3535 94.2769)" fill="#C34DDB"/>
<rect x="206.574" y="73.3208" width="1.23763" height="3.71289" rx="0.618815" transform="rotate(20.247 206.574 73.3208)" fill="#C34DDB"/>
<rect x="196.293" y="101.188" width="1.23763" height="3.71289" rx="0.618815" transform="rotate(20.247 196.293 101.188)" fill="#C34DDB"/>
<rect x="204.004" y="80.2876" width="1.23763" height="3.71289" rx="0.618815" transform="rotate(20.247 204.004 80.2876)" fill="#C34DDB"/>
<rect x="193.723" y="108.155" width="1.23763" height="3.71289" rx="0.618815" transform="rotate(20.247 193.723 108.155)" fill="#C34DDB"/>
<rect x="201.434" y="87.2548" width="1.23763" height="3.71289" rx="0.618815" transform="rotate(20.247 201.434 87.2548)" fill="#C34DDB"/>
<rect x="191.154" y="115.122" width="1.23763" height="3.71289" rx="0.618815" transform="rotate(20.247 191.154 115.122)" fill="#C34DDB"/>
<rect x="198.863" y="94.22" width="1.23763" height="3.71289" rx="0.618815" transform="rotate(20.247 198.863 94.22)" fill="#C34DDB"/>
<rect x="188.584" y="122.089" width="1.23763" height="3.71289" rx="0.618815" transform="rotate(20.247 188.584 122.089)" fill="#C34DDB"/>
<rect x="186.014" y="129.057" width="1.23763" height="3.71289" rx="0.618815" transform="rotate(20.247 186.014 129.057)" fill="#C34DDB"/>
<rect x="183.445" y="136.023" width="1.23763" height="3.71289" rx="0.618815" transform="rotate(20.247 183.445 136.023)" fill="#C34DDB"/>
<rect x="180.875" y="142.989" width="1.23763" height="3.71289" rx="0.618815" transform="rotate(20.247 180.875 142.989)" fill="#C34DDB"/>
<rect x="178.305" y="149.956" width="1.23763" height="3.71289" rx="0.618815" transform="rotate(20.247 178.305 149.956)" fill="#C34DDB"/>
<path d="M85.3423 62.3928C85.5552 62.4714 85.7105 62.6166 85.8082 62.8285C85.9059 63.0404 85.9155 63.2528 85.837 63.4657L84.702 66.5428C84.6235 66.7557 84.4782 66.911 84.2663 67.0087C84.0544 67.1064 83.842 67.116 83.6291 67.0375L78.52 65.1529L73.027 80.0448C72.9485 80.2576 72.8033 80.4129 72.5913 80.5106C72.3794 80.6084 72.167 80.618 71.9541 80.5394L68.1513 79.1367C67.9385 79.0582 67.7832 78.913 67.6855 78.7011C67.5877 78.4891 67.5782 78.2767 67.6567 78.0639L73.1497 63.172L68.0406 61.2875C67.8277 61.209 67.6724 61.0637 67.5747 60.8518C67.477 60.6399 67.4674 60.4275 67.5459 60.2146L68.6809 57.1375C68.7594 56.9247 68.9046 56.7694 69.1166 56.6717C69.3285 56.5739 69.5409 56.5643 69.7538 56.6429L85.3423 62.3928ZM82.0231 84.2535C81.8102 84.1749 81.6549 84.0297 81.5572 83.8178C81.4595 83.6058 81.4499 83.3934 81.5284 83.1806L88.4455 64.4279C88.524 64.215 88.6692 64.0597 88.8812 63.962C89.0931 63.8643 89.3055 63.8547 89.5184 63.9332L93.3212 65.3359C93.5341 65.4144 93.6893 65.5597 93.7871 65.7716C93.8848 65.9835 93.8944 66.1959 93.8158 66.4088L86.8988 85.1615C86.8202 85.3743 86.675 85.5296 86.4631 85.6274C86.2512 85.7251 86.0387 85.7347 85.8259 85.6561L82.0231 84.2535ZM98.2012 81.4486C97.9074 82.4835 97.927 83.4141 98.2598 84.2404C98.6119 85.0738 99.3976 85.7154 100.617 86.1651C101.778 86.5934 102.702 86.6814 103.389 86.429C104.075 86.1767 104.643 85.7704 105.091 85.2103C105.329 84.9241 105.527 84.7444 105.686 84.6711C105.845 84.5978 106.079 84.6183 106.389 84.7325L110.192 86.1352C110.366 86.1995 110.486 86.3207 110.552 86.499C110.645 86.6651 110.659 86.8352 110.595 87.0094C110.097 88.2989 109.238 89.3453 108.019 90.1486C106.825 90.9396 105.424 91.4011 103.814 91.5329C102.205 91.6647 100.568 91.4237 98.9036 90.8098C97.1038 90.1459 95.6647 89.2193 94.5864 88.0301C93.5152 86.8215 92.8296 85.4913 92.5296 84.0396C92.2368 82.5684 92.3194 81.0929 92.7773 79.6129C93.0813 78.6697 93.3439 77.8981 93.5652 77.2982C93.8293 76.5821 94.202 75.6313 94.6833 74.4457C95.2767 73.0157 96.1589 71.8461 97.3297 70.9368C98.5077 70.0082 99.8928 69.4418 101.485 69.2377C103.104 69.0213 104.813 69.2451 106.613 69.9089C108.277 70.5229 109.679 71.4025 110.817 72.548C111.956 73.6935 112.718 74.9641 113.105 76.3598C113.518 77.7434 113.495 79.0871 113.036 80.3908C112.972 80.565 112.847 80.6948 112.661 80.7803C112.503 80.8536 112.336 80.8581 112.162 80.7939L108.359 79.3912C108.049 79.277 107.858 79.1404 107.785 78.9815C107.711 78.8225 107.677 78.5571 107.683 78.1853C107.705 77.4681 107.537 76.7906 107.179 76.1528C106.821 75.515 106.061 74.9819 104.9 74.5536C103.681 74.1039 102.667 74.0816 101.857 74.4867C101.068 74.899 100.449 75.594 100 76.5718C99.7187 77.2155 99.3995 78.0212 99.0426 78.9888C98.7 79.9177 98.4195 80.7377 98.2012 81.4486ZM128.629 100.356C128.659 100.455 128.649 100.572 128.599 100.708C128.535 100.882 128.41 101.012 128.224 101.097C128.065 101.171 127.899 101.175 127.725 101.111L123.109 99.4083C122.857 99.3156 122.662 99.1886 122.524 99.0276C122.393 98.8473 122.273 98.6053 122.165 98.3017L119.227 89.3691L116.721 96.1618C116.643 96.3747 116.498 96.53 116.286 96.6277C116.074 96.7254 115.861 96.735 115.649 96.6565L111.846 95.2538C111.633 95.1753 111.478 95.0301 111.38 94.8181C111.282 94.6062 111.273 94.3938 111.351 94.1809L118.268 75.4283C118.347 75.2154 118.492 75.0601 118.704 74.9624C118.916 74.8646 119.128 74.8551 119.341 74.9336L123.144 76.3363C123.357 76.4148 123.512 76.56 123.61 76.7719C123.707 76.9839 123.717 77.1963 123.639 77.4092L121.379 83.5343L128.801 79.1485C129.027 79.0121 129.239 78.9144 129.437 78.8554C129.635 78.7964 129.888 78.824 130.198 78.9382L134.726 80.6086C134.901 80.6728 135.021 80.7941 135.087 80.9724C135.179 81.1385 135.194 81.3086 135.129 81.4828C135.087 81.5989 135.018 81.6946 134.925 81.77L124.521 87.8919L128.629 100.356ZM138.877 96.2544L147.179 99.3167C147.392 99.3952 147.604 99.3856 147.816 99.2879C148.028 99.1902 148.174 99.0349 148.252 98.822L149.387 95.745C149.466 95.5321 149.456 95.3197 149.358 95.1078C149.261 94.8958 149.105 94.7506 148.892 94.6721L140.59 91.6097L141.747 88.4746L150.687 91.7725C150.9 91.8511 151.113 91.8415 151.325 91.7438C151.537 91.646 151.682 91.4907 151.76 91.2779L152.895 88.2008C152.974 87.9879 152.964 87.7755 152.867 87.5636C152.769 87.3517 152.614 87.2064 152.401 87.1279L138.873 82.1382C138.66 82.0597 138.448 82.0693 138.236 82.167C138.024 82.2647 137.879 82.42 137.8 82.6329L130.883 101.386C130.805 101.598 130.814 101.811 130.912 102.023C131.01 102.235 131.165 102.38 131.378 102.458L145.138 107.534C145.35 107.612 145.563 107.603 145.775 107.505C145.987 107.407 146.132 107.252 146.21 107.039L147.345 103.962C147.424 103.749 147.414 103.537 147.317 103.325C147.219 103.113 147.064 102.968 146.851 102.889L137.678 99.5056L138.877 96.2544ZM171.664 94.2332C171.876 94.3117 172.032 94.457 172.129 94.6689C172.227 94.8808 172.237 95.0932 172.158 95.3061L171.023 98.3832C170.945 98.596 170.8 98.7513 170.588 98.8491C170.376 98.9468 170.163 98.9564 169.95 98.8778L164.841 96.9933L159.348 111.885C159.27 112.098 159.125 112.253 158.913 112.351C158.701 112.449 158.488 112.458 158.275 112.38L154.473 110.977C154.26 110.899 154.104 110.753 154.007 110.541C153.909 110.33 153.899 110.117 153.978 109.904L159.471 95.0124L154.362 93.1279C154.149 93.0494 153.994 92.9041 153.896 92.6922C153.798 92.4803 153.789 92.2679 153.867 92.055L155.002 88.9779C155.081 88.7651 155.226 88.6098 155.438 88.512C155.65 88.4143 155.862 88.4047 156.075 88.4833L171.664 94.2332Z" fill="#212121"/>
<path d="M38.6033 40.3462C38.403 40.2882 38.087 40.1795 37.655 40.0202C37.23 39.8634 36.926 39.7434 36.7431 39.6601C35.932 39.3055 35.3542 38.7797 35.0098 38.0828C34.6627 37.3928 34.6717 36.5532 35.0366 35.5639C35.4015 34.5746 35.9412 33.9268 36.6557 33.6205C37.3677 33.3211 38.1472 33.3 38.9942 33.557C39.3756 33.6819 39.6847 33.788 39.9216 33.8753C40.1585 33.9627 40.4694 34.0853 40.8544 34.2432C41.6655 34.5977 42.2445 35.12 42.5916 35.81C42.936 36.5069 42.9258 37.35 42.5609 38.3393C42.196 39.3286 41.6576 39.9729 40.9456 40.2723C40.2311 40.5786 39.4503 40.6032 38.6033 40.3462ZM39.2641 38.3936C39.655 38.514 39.9858 38.5292 40.2565 38.4391C40.5341 38.3515 40.7449 38.1127 40.8888 37.7225C41.0327 37.3324 41.0275 37.0139 40.8732 36.767C40.7259 36.5227 40.4645 36.3194 40.089 36.1572C39.718 36.0045 39.4314 35.8909 39.2294 35.8164C39.0413 35.747 38.7426 35.6447 38.3334 35.5096C37.945 35.3822 37.6121 35.3623 37.3344 35.4498C37.0612 35.5469 36.8526 35.7905 36.7087 36.1807C36.5648 36.5708 36.5665 36.888 36.7138 37.1323C36.8655 37.3862 37.1304 37.5907 37.5085 37.746C37.7054 37.8345 37.9989 37.9506 38.389 38.0946C38.7792 38.2385 39.0709 38.3381 39.2641 38.3936ZM37.8794 43.4674C37.934 43.448 37.9962 43.4511 38.0658 43.4768C38.1634 43.5128 38.2259 43.5794 38.2534 43.6766L39.1489 46.5595C39.1577 46.5785 39.1727 46.6236 39.194 46.6948C39.2126 46.7729 39.2243 46.8485 39.2291 46.9215C39.2338 46.9944 39.2246 47.0623 39.2015 47.125L38.7312 48.3999C38.703 48.4766 38.6507 48.5325 38.5744 48.5677C38.4981 48.6028 38.4216 48.6063 38.345 48.578L31.594 46.0879C31.5174 46.0596 31.4615 46.0073 31.4263 45.931C31.3911 45.8547 31.3877 45.7783 31.4159 45.7016L31.9209 44.3326C31.9492 44.256 32.0015 44.2001 32.0777 44.1649C32.154 44.1297 32.2305 44.1263 32.3071 44.1545L36.874 45.8391L36.3921 44.2485C36.3709 44.1774 36.3718 44.1104 36.395 44.0477C36.4284 43.9572 36.4937 43.8982 36.5909 43.8707L37.8794 43.4674ZM30.5869 53.0991L29.6193 55.7221C29.5911 55.7987 29.5388 55.8547 29.4625 55.8898C29.3862 55.925 29.3097 55.9285 29.2331 55.9002L28.1254 55.4916C28.0487 55.4633 27.9928 55.411 27.9576 55.3348C27.9225 55.2585 27.919 55.182 27.9473 55.1054L29.9826 49.5875C30.0108 49.5109 30.0631 49.455 30.1394 49.4198C30.2157 49.3846 30.2922 49.3812 30.3688 49.4095L31.2676 49.741C31.5323 49.8386 31.7006 50.0154 31.7723 50.2715L32.8562 54.221C32.9411 54.5057 33.0404 54.7085 33.1541 54.8296C33.2721 54.9602 33.4147 55.0563 33.5819 55.118C33.7561 55.1822 33.9534 55.1838 34.1739 55.1226C34.3917 55.0684 34.5636 54.8706 34.6895 54.5293C34.7769 54.2924 34.7975 54.0863 34.7514 53.911C34.7096 53.7452 34.6547 53.626 34.5865 53.5533C34.5227 53.4902 34.4188 53.3965 34.2747 53.2721C34.197 53.2039 34.1535 53.1285 34.1444 53.046C34.1353 52.9635 34.15 52.8699 34.1885 52.7654L34.6626 51.48C34.6858 51.4173 34.7272 51.3693 34.787 51.336C34.8512 51.3121 34.9147 51.3118 34.9774 51.3349C35.3833 51.5005 35.731 51.7594 36.0206 52.1115C36.3171 52.4663 36.5042 52.9033 36.5817 53.4226C36.6663 53.9445 36.5942 54.5155 36.3654 55.1356C36.147 55.7277 35.8445 56.1939 35.4578 56.5341C35.0781 56.8769 34.6603 57.0868 34.2044 57.164C33.7529 57.2508 33.3077 57.2132 32.8688 57.0513C32.4438 56.8945 32.0932 56.6544 31.8168 56.3308C31.5448 56.0168 31.3242 55.5634 31.155 54.9707L30.5869 53.0991ZM31.9748 66.7171C31.9465 66.7938 31.8942 66.8497 31.8179 66.8848C31.7416 66.92 31.6652 66.9235 31.5885 66.8952L30.4808 66.4866C30.3763 66.4481 30.28 66.3334 30.1921 66.1427L29.3836 64.4079C29.0335 64.9278 28.6274 65.2885 28.1652 65.49C27.7031 65.6916 27.2107 65.696 26.6882 65.5032C25.9149 65.218 25.4264 64.7291 25.2228 64.0366C25.0166 63.3511 25.0946 62.5172 25.457 61.5349C25.6908 60.9009 25.9927 60.383 26.3625 59.9812C26.7323 59.5794 27.1202 59.3109 27.5263 59.1757C27.9393 59.0431 28.326 59.0354 28.6864 59.1525C28.7491 59.1757 28.7937 59.2158 28.8201 59.2731C28.8508 59.3398 28.8547 59.4046 28.8315 59.4673L28.3458 60.784C28.3047 60.8955 28.2504 60.9783 28.1829 61.0326C28.1224 61.0894 28.0336 61.1477 27.9166 61.2074C27.7398 61.3005 27.5896 61.4073 27.4659 61.5279C27.3467 61.6581 27.2344 61.866 27.129 62.1516C27.0005 62.5 26.957 62.8005 26.9983 63.0532C27.0371 63.3129 27.1714 63.4851 27.4013 63.5699C27.6313 63.6547 27.8453 63.611 28.0434 63.4387C28.2389 63.2733 28.4009 63.0165 28.5294 62.6682L28.8493 61.8008C28.8776 61.7241 28.9299 61.6682 29.0062 61.6331C29.0825 61.5979 29.1589 61.5944 29.2356 61.6227L30.1343 61.9542C30.204 61.9799 30.2603 62.0204 30.3031 62.0758C30.3435 62.1382 30.3856 62.2171 30.4296 62.3124L31.1392 63.8326L32.1453 61.1051C32.1735 61.0284 32.2258 60.9725 32.3021 60.9374C32.3784 60.9022 32.4549 60.8987 32.5315 60.927L33.6392 61.3356C33.7159 61.3639 33.7718 61.4161 33.807 61.4924C33.8421 61.5687 33.8456 61.6452 33.8173 61.7218L31.9748 66.7171ZM21.893 71.519C21.9212 71.4424 21.9735 71.3865 22.0498 71.3513C22.1261 71.3161 22.2026 71.3127 22.2792 71.3409L23.3451 71.7341L24.5594 68.4422C24.5876 68.3656 24.6399 68.3097 24.7162 68.2745C24.7925 68.2393 24.869 68.2359 24.9456 68.2642L26.0534 68.6728C26.2345 68.7396 26.3676 68.8401 26.4526 68.9744L29.2398 73.5523C29.2934 73.6432 29.3216 73.717 29.3245 73.7734C29.3318 73.8395 29.3187 73.9178 29.2853 74.0083L28.7033 75.5863C28.675 75.663 28.6227 75.7189 28.5464 75.7541C28.4701 75.7892 28.3937 75.7927 28.317 75.7644L24.3041 74.2842L23.9726 75.1829C23.9443 75.2596 23.892 75.3155 23.8157 75.3507C23.7394 75.3858 23.663 75.3893 23.5863 75.361L22.4786 74.9524C22.4019 74.9242 22.346 74.8719 22.3109 74.7956C22.2757 74.7193 22.2722 74.6428 22.3005 74.5662L22.632 73.6674L21.5661 73.2743C21.4894 73.246 21.4335 73.1937 21.3983 73.1174C21.3632 73.0411 21.3597 72.9647 21.388 72.888L21.893 71.519ZM26.9208 73.1124L25.5607 70.8774L24.9979 72.4031L26.9208 73.1124Z" fill="#212121"/>
<path d="M195.092 131.455C195.292 131.513 195.608 131.621 196.04 131.781C196.465 131.937 196.769 132.057 196.952 132.141C197.763 132.495 198.341 133.021 198.686 133.718C199.033 134.408 199.024 135.248 198.659 136.237C198.294 137.226 197.754 137.874 197.04 138.18C196.328 138.48 195.548 138.501 194.701 138.244C194.32 138.119 194.011 138.013 193.774 137.925C193.537 137.838 193.226 137.715 192.841 137.558C192.03 137.203 191.451 136.681 191.104 135.991C190.759 135.294 190.77 134.451 191.134 133.461C191.499 132.472 192.038 131.828 192.75 131.528C193.464 131.222 194.245 131.198 195.092 131.455ZM194.431 133.407C194.04 133.287 193.71 133.272 193.439 133.362C193.161 133.449 192.95 133.688 192.806 134.078C192.663 134.468 192.668 134.787 192.822 135.034C192.969 135.278 193.231 135.481 193.606 135.644C193.977 135.796 194.264 135.91 194.466 135.984C194.654 136.054 194.953 136.156 195.362 136.291C195.75 136.419 196.083 136.439 196.361 136.351C196.634 136.254 196.843 136.01 196.987 135.62C197.131 135.23 197.129 134.913 196.982 134.668C196.83 134.415 196.565 134.21 196.187 134.055C195.99 133.966 195.696 133.85 195.306 133.706C194.916 133.562 194.624 133.463 194.431 133.407ZM195.816 128.333C195.761 128.353 195.699 128.35 195.629 128.324C195.532 128.288 195.469 128.221 195.442 128.124L194.546 125.241C194.538 125.222 194.523 125.177 194.501 125.106C194.483 125.028 194.471 124.952 194.466 124.879C194.461 124.806 194.471 124.738 194.494 124.676L194.964 123.401C194.992 123.324 195.045 123.268 195.121 123.233C195.197 123.198 195.274 123.194 195.35 123.223L202.101 125.713C202.178 125.741 202.234 125.793 202.269 125.87C202.304 125.946 202.308 126.023 202.279 126.099L201.774 127.468C201.746 127.545 201.694 127.601 201.618 127.636C201.541 127.671 201.465 127.675 201.388 127.646L196.821 125.962L197.303 127.552C197.324 127.623 197.323 127.69 197.3 127.753C197.267 127.844 197.202 127.903 197.104 127.93L195.816 128.333ZM203.108 118.702L204.076 116.079C204.104 116.002 204.157 115.946 204.233 115.911C204.309 115.876 204.386 115.872 204.462 115.901L205.57 116.309C205.647 116.337 205.702 116.39 205.738 116.466C205.773 116.542 205.776 116.619 205.748 116.695L203.713 122.213C203.684 122.29 203.632 122.346 203.556 122.381C203.48 122.416 203.403 122.42 203.326 122.391L202.428 122.06C202.163 121.962 201.995 121.785 201.923 121.529L200.839 117.58C200.754 117.295 200.655 117.092 200.541 116.971C200.423 116.841 200.281 116.744 200.113 116.683C199.939 116.619 199.742 116.617 199.521 116.678C199.304 116.732 199.132 116.93 199.006 117.272C198.918 117.508 198.898 117.715 198.944 117.89C198.986 118.056 199.041 118.175 199.109 118.247C199.173 118.311 199.277 118.404 199.421 118.529C199.498 118.597 199.542 118.672 199.551 118.755C199.56 118.837 199.545 118.931 199.507 119.035L199.033 120.321C199.01 120.383 198.968 120.431 198.908 120.465C198.844 120.489 198.781 120.489 198.718 120.466C198.312 120.3 197.964 120.041 197.675 119.689C197.378 119.335 197.191 118.897 197.114 118.378C197.029 117.856 197.101 117.285 197.33 116.665C197.548 116.073 197.851 115.607 198.238 115.267C198.617 114.924 199.035 114.714 199.491 114.637C199.942 114.55 200.388 114.588 200.826 114.749C201.251 114.906 201.602 115.146 201.879 115.47C202.151 115.784 202.371 116.237 202.54 116.83L203.108 118.702ZM201.721 105.084C201.749 105.007 201.801 104.951 201.877 104.916C201.954 104.881 202.03 104.877 202.107 104.906L203.215 105.314C203.319 105.353 203.415 105.467 203.503 105.658L204.312 107.393C204.662 106.873 205.068 106.512 205.53 106.311C205.992 106.109 206.485 106.105 207.007 106.298C207.78 106.583 208.269 107.072 208.473 107.764C208.679 108.45 208.601 109.284 208.238 110.266C208.004 110.9 207.703 111.418 207.333 111.82C206.963 112.221 206.575 112.49 206.169 112.625C205.756 112.758 205.369 112.765 205.009 112.648C204.946 112.625 204.902 112.585 204.875 112.528C204.844 112.461 204.841 112.396 204.864 112.334L205.349 111.017C205.391 110.905 205.445 110.822 205.512 110.768C205.573 110.711 205.662 110.653 205.779 110.593C205.956 110.5 206.106 110.393 206.229 110.273C206.349 110.143 206.461 109.935 206.566 109.649C206.695 109.301 206.738 109 206.697 108.748C206.658 108.488 206.524 108.316 206.294 108.231C206.064 108.146 205.85 108.19 205.652 108.362C205.456 108.527 205.294 108.784 205.166 109.133L204.846 110C204.818 110.077 204.765 110.133 204.689 110.168C204.613 110.203 204.536 110.206 204.46 110.178L203.561 109.847C203.491 109.821 203.435 109.78 203.392 109.725C203.352 109.663 203.31 109.584 203.266 109.488L202.556 107.968L201.55 110.696C201.522 110.772 201.47 110.828 201.393 110.863C201.317 110.899 201.24 110.902 201.164 110.874L200.056 110.465C199.979 110.437 199.924 110.385 199.888 110.308C199.853 110.232 199.85 110.156 199.878 110.079L201.721 105.084ZM211.802 100.282C211.774 100.358 211.722 100.414 211.646 100.449C211.569 100.485 211.493 100.488 211.416 100.46L210.35 100.067L209.136 103.359C209.108 103.435 209.055 103.491 208.979 103.526C208.903 103.561 208.826 103.565 208.75 103.537L207.642 103.128C207.461 103.061 207.328 102.961 207.243 102.826L204.455 98.2485C204.402 98.1575 204.374 98.0838 204.371 98.0273C204.364 97.9613 204.377 97.883 204.41 97.7925L204.992 96.2144C205.02 96.1378 205.073 96.0819 205.149 96.0467C205.225 96.0115 205.302 96.0081 205.378 96.0364L209.391 97.5166L209.723 96.6178C209.751 96.5412 209.803 96.4853 209.88 96.4501C209.956 96.4149 210.032 96.4115 210.109 96.4398L211.217 96.8484C211.293 96.8766 211.349 96.9289 211.384 97.0052C211.42 97.0815 211.423 97.158 211.395 97.2346L211.063 98.1333L212.129 98.5265C212.206 98.5548 212.262 98.6071 212.297 98.6834C212.332 98.7597 212.336 98.8361 212.307 98.9128L211.802 100.282ZM206.775 98.6884L208.135 100.923L208.697 99.3976L206.775 98.6884Z" fill="#212121"/>
<defs>
<linearGradient id="paint0_linear" x1="135.105" y1="36.4058" x2="98.6988" y2="135.104" gradientUnits="userSpaceOnUse">
<stop stop-color="#F2ABFF"/>
<stop offset="1" stop-color="#FFEBAF"/>
</linearGradient>
</defs>
</svg>
