<svg width="201" height="163" viewBox="0 0 201 163" fill="none" xmlns="http://www.w3.org/2000/svg">
<path fill-rule="evenodd" clip-rule="evenodd" d="M13.9809 75.9399L144.466 7.3492L144.467 7.34977C148.525 15.0709 158.075 18.04 165.796 13.9815L192.742 65.2436C185.021 69.3024 182.052 78.8514 186.111 86.5725L55.6253 155.163C51.5664 147.442 42.0171 144.474 34.296 148.532L34.2957 148.532L7.34933 97.2703L7.34968 97.2701C15.0709 93.2113 18.04 83.6617 13.9813 75.9405L13.9809 75.9399Z" fill="url(#paint0_linear)"/>
<path d="M89.5546 61.2976L93.5163 61.492L90.9464 58.5515L92.4289 54.8849L88.7573 56.4425L85.7155 53.9943L86.0074 57.888L82.6425 60.0292L86.5034 60.8871L87.4683 64.6712L89.5546 61.2976Z" fill="#212121"/>
<path d="M104.002 53.7043L107.964 53.8987L105.394 50.9582L106.876 47.2915L103.205 48.8491L100.163 46.4009L100.455 50.2947L97.0898 52.4358L100.951 53.2937L101.916 57.0778L104.002 53.7043Z" fill="#212121"/>
<path d="M118.447 46.11L122.409 46.3044L119.839 43.3639L121.321 39.6973L117.65 41.2549L114.608 38.8066L114.9 42.7004L111.535 44.8416L115.396 45.6994L116.361 49.4836L118.447 46.11Z" fill="#212121"/>
<path d="M60.662 76.4864L64.6237 76.6808L62.0538 73.7403L63.5363 70.0736L59.8648 71.6312L56.8229 69.183L57.1148 73.0768L53.7499 75.2179L57.6108 76.0758L58.5757 79.8599L60.662 76.4864Z" fill="#212121"/>
<path d="M75.1073 68.892L79.0691 69.0864L76.4991 66.1459L77.9816 62.4792L74.3101 64.0369L71.2682 61.5886L71.5601 65.4824L68.1952 67.6235L72.0561 68.4814L73.0211 72.2656L75.1073 68.892Z" fill="#212121"/>
<path d="M112.582 105.104L116.544 105.298L113.974 102.358L115.456 98.691L111.785 100.249L108.743 97.8004L109.035 101.694L105.67 103.835L109.531 104.693L110.496 108.477L112.582 105.104Z" fill="#212121"/>
<path d="M127.027 97.5094L130.989 97.7038L128.419 94.7633L129.902 91.0967L126.23 92.6543L123.188 90.206L123.48 94.0998L120.115 96.241L123.976 97.0989L124.941 100.883L127.027 97.5094Z" fill="#212121"/>
<path d="M141.474 89.9162L145.436 90.1106L142.866 87.1701L144.349 83.5034L140.677 85.061L137.635 82.6128L137.927 86.5066L134.562 88.6477L138.423 89.5056L139.388 93.2898L141.474 89.9162Z" fill="#212121"/>
<path d="M83.6874 120.291L87.6491 120.486L85.0792 117.545L86.5617 113.879L82.8901 115.436L79.8483 112.988L80.1402 116.882L76.7753 119.023L80.6362 119.881L81.6011 123.665L83.6874 120.291Z" fill="#212121"/>
<path d="M98.1346 112.698L102.096 112.893L99.5265 109.952L101.009 106.285L97.3374 107.843L94.2955 105.395L94.5874 109.289L91.2226 111.43L95.0835 112.288L96.0484 116.072L98.1346 112.698Z" fill="#212121"/>
<mask id="path-12-inside-1" fill="white">
<path fill-rule="evenodd" clip-rule="evenodd" d="M17.1241 77.2619L143.772 10.6887C147.592 17.9558 156.763 20.6534 164.258 16.714L164.258 16.7139L189.619 64.9605C189.619 64.9605 189.619 64.9606 189.619 64.9606C182.125 68.9 179.146 77.9846 182.966 85.2517C182.966 85.2517 182.966 85.2518 182.966 85.2518L56.3188 151.825L56.3187 151.825C52.4987 144.558 43.3267 141.86 35.8326 145.8L10.4714 97.553C17.9656 93.6136 20.9441 84.529 17.1241 77.2619Z"/>
</mask>
<path d="M143.772 10.6887L145.17 9.9538L144.435 8.55574L143.037 9.29065L143.772 10.6887ZM17.1241 77.2619L16.3892 75.8638L14.9911 76.5987L15.726 77.9968L17.1241 77.2619ZM164.258 16.7139L165.656 15.979L164.921 14.581L163.523 15.3159L164.258 16.7139ZM189.619 64.9605L190.354 66.3585L191.752 65.6236L191.017 64.2256L189.619 64.9605ZM182.966 85.2518L183.701 86.6499L185.099 85.915L184.364 84.5169L182.966 85.2518ZM56.3188 151.825L54.9207 152.56L55.6556 153.958L57.0537 153.223L56.3188 151.825ZM56.3187 151.825L57.7167 151.09L56.3187 151.825ZM35.8326 145.8L34.4345 146.534L35.1694 147.932L36.5675 147.198L35.8326 145.8ZM10.4714 97.553L9.73654 96.1549L8.33848 96.8898L9.07338 98.2879L10.4714 97.553ZM143.037 9.29065L16.3892 75.8638L17.859 78.66L144.506 12.0868L143.037 9.29065ZM163.523 15.316C156.76 18.871 148.563 16.4085 145.17 9.9538L142.373 11.4236C146.62 19.503 156.767 22.4359 164.993 18.1121L163.523 15.316ZM163.523 15.3159L163.523 15.316L164.993 18.1121L164.993 18.112L163.523 15.3159ZM191.017 64.2256L165.656 15.979L162.86 17.4488L188.221 65.6954L191.017 64.2256ZM190.354 66.3587C190.354 66.3587 190.354 66.3587 190.354 66.3587C190.354 66.3587 190.354 66.3587 190.354 66.3587C190.354 66.3587 190.354 66.3587 190.354 66.3587C190.354 66.3586 190.354 66.3586 190.354 66.3586C190.354 66.3586 190.354 66.3586 190.354 66.3586L190.354 66.3586L190.354 66.3586L190.354 66.3586L190.354 66.3586C190.354 66.3586 190.354 66.3586 190.354 66.3586C190.354 66.3586 190.354 66.3586 190.354 66.3586L190.354 66.3586L190.354 66.3586L190.354 66.3586L190.354 66.3586C190.354 66.3586 190.354 66.3586 190.354 66.3586C190.354 66.3586 190.354 66.3586 190.354 66.3586C190.354 66.3585 190.354 66.3585 190.354 66.3585C190.354 66.3585 190.354 66.3585 190.354 66.3585C190.354 66.3585 190.354 66.3585 190.354 66.3585L188.884 63.5624C188.884 63.5624 188.884 63.5624 188.884 63.5624C188.884 63.5624 188.884 63.5624 188.884 63.5624C188.884 63.5624 188.884 63.5624 188.884 63.5624C188.884 63.5624 188.884 63.5624 188.884 63.5624C188.884 63.5624 188.884 63.5624 188.884 63.5624L188.884 63.5625L188.884 63.5625L188.884 63.5625L188.884 63.5625C188.884 63.5625 188.884 63.5625 188.884 63.5625C188.884 63.5625 188.884 63.5625 188.884 63.5625L188.884 63.5625L188.884 63.5625L188.884 63.5625L188.884 63.5625C188.884 63.5625 188.884 63.5625 188.884 63.5625C188.884 63.5625 188.884 63.5625 188.884 63.5625C188.884 63.5625 188.884 63.5625 188.884 63.5625C188.884 63.5625 188.884 63.5625 188.884 63.5625C188.884 63.5625 188.884 63.5625 188.884 63.5626L190.354 66.3587ZM184.364 84.5168C180.971 78.0621 183.591 69.9136 190.354 66.3587L188.884 63.5626C180.658 67.8863 177.321 77.9071 181.568 85.9866L184.364 84.5168ZM184.364 84.5169L184.364 84.5169L184.364 84.5169C184.364 84.5169 184.364 84.5169 184.364 84.5169C184.364 84.5169 184.364 84.5169 184.364 84.5169C184.364 84.5169 184.364 84.5169 184.364 84.5169L184.364 84.5169C184.364 84.5169 184.364 84.5169 184.364 84.5169C184.364 84.5169 184.364 84.5169 184.364 84.5169C184.364 84.5169 184.364 84.5169 184.364 84.5169C184.364 84.5169 184.364 84.5169 184.364 84.5169C184.364 84.5169 184.364 84.5169 184.364 84.5169C184.364 84.5169 184.364 84.5169 184.364 84.5169C184.364 84.5169 184.364 84.5169 184.364 84.5169C184.364 84.5168 184.364 84.5168 184.364 84.5168C184.364 84.5168 184.364 84.5168 184.364 84.5168C184.364 84.5168 184.364 84.5168 184.364 84.5168C184.364 84.5168 184.364 84.5168 184.364 84.5168C184.364 84.5168 184.364 84.5168 184.364 84.5168C184.364 84.5168 184.364 84.5168 184.364 84.5168C184.364 84.5168 184.364 84.5168 184.364 84.5168L184.364 84.5168C184.364 84.5168 184.364 84.5168 184.364 84.5168C184.364 84.5168 184.364 84.5168 184.364 84.5168C184.364 84.5168 184.364 84.5168 184.364 84.5168L184.364 84.5168L184.364 84.5168L181.568 85.9866L181.568 85.9866L181.568 85.9866C181.568 85.9866 181.568 85.9866 181.568 85.9866C181.568 85.9866 181.568 85.9866 181.568 85.9866C181.568 85.9866 181.568 85.9866 181.568 85.9866L181.568 85.9866C181.568 85.9866 181.568 85.9866 181.568 85.9866C181.568 85.9866 181.568 85.9866 181.568 85.9866C181.568 85.9866 181.568 85.9866 181.568 85.9866C181.568 85.9866 181.568 85.9866 181.568 85.9866C181.568 85.9866 181.568 85.9866 181.568 85.9866C181.568 85.9866 181.568 85.9866 181.568 85.9867C181.568 85.9867 181.568 85.9867 181.568 85.9867C181.568 85.9867 181.568 85.9867 181.568 85.9867C181.568 85.9867 181.568 85.9867 181.568 85.9867C181.568 85.9867 181.568 85.9867 181.568 85.9867C181.568 85.9867 181.568 85.9867 181.568 85.9867C181.568 85.9867 181.568 85.9867 181.568 85.9867C181.568 85.9867 181.568 85.9867 181.568 85.9867C181.568 85.9867 181.568 85.9867 181.568 85.9867L181.568 85.9867C181.568 85.9867 181.568 85.9867 181.568 85.9867C181.568 85.9867 181.568 85.9867 181.568 85.9867C181.568 85.9867 181.568 85.9867 181.568 85.9867L181.568 85.9867L181.568 85.9867L184.364 84.5169ZM57.0537 153.223L183.701 86.6499L182.231 83.8538L55.5839 150.427L57.0537 153.223ZM54.9206 152.56L54.9207 152.56L57.7168 151.09L57.7167 151.09L54.9206 152.56ZM36.5675 147.198C43.3304 143.643 51.5277 146.105 54.9206 152.56L57.7167 151.09C53.4697 143.011 43.3231 140.078 35.0977 144.401L36.5675 147.198ZM9.07338 98.2879L34.4345 146.534L37.2306 145.065L11.8695 96.8181L9.07338 98.2879ZM15.726 77.9968C19.119 84.4515 16.4994 92.5999 9.73654 96.1549L11.2063 98.951C19.4318 94.6272 22.7692 84.6064 18.5222 76.527L15.726 77.9968Z" fill="#C34DDB" mask="url(#path-12-inside-1)"/>
<rect x="22.0938" y="81.1919" width="1.05296" height="3.15889" rx="0.526482" transform="rotate(-27.729 22.0938 81.1919)" fill="#C34DDB"/>
<rect x="33.8516" y="103.561" width="1.05296" height="3.15889" rx="0.526482" transform="rotate(-27.729 33.8516 103.561)" fill="#C34DDB"/>
<rect x="25.0332" y="86.7838" width="1.05296" height="3.15889" rx="0.526482" transform="rotate(-27.729 25.0332 86.7838)" fill="#C34DDB"/>
<rect x="36.791" y="109.153" width="1.05296" height="3.15889" rx="0.526482" transform="rotate(-27.729 36.791 109.153)" fill="#C34DDB"/>
<rect x="27.9727" y="92.3757" width="1.05296" height="3.15889" rx="0.526482" transform="rotate(-27.729 27.9727 92.3757)" fill="#C34DDB"/>
<rect x="39.7324" y="114.745" width="1.05296" height="3.15889" rx="0.526482" transform="rotate(-27.729 39.7324 114.745)" fill="#C34DDB"/>
<rect x="30.9121" y="97.9677" width="1.05296" height="3.15889" rx="0.526482" transform="rotate(-27.729 30.9121 97.9677)" fill="#C34DDB"/>
<rect x="42.6719" y="120.338" width="1.05296" height="3.15889" rx="0.526482" transform="rotate(-27.729 42.6719 120.338)" fill="#C34DDB"/>
<rect x="45.6113" y="125.93" width="1.05296" height="3.15889" rx="0.526482" transform="rotate(-27.729 45.6113 125.93)" fill="#C34DDB"/>
<rect x="48.5508" y="131.522" width="1.05296" height="3.15889" rx="0.526482" transform="rotate(-27.729 48.5508 131.522)" fill="#C34DDB"/>
<rect x="51.4902" y="137.114" width="1.05296" height="3.15889" rx="0.526482" transform="rotate(-27.729 51.4902 137.114)" fill="#C34DDB"/>
<rect x="54.4297" y="142.705" width="1.05296" height="3.15889" rx="0.526482" transform="rotate(-27.729 54.4297 142.705)" fill="#C34DDB"/>
<rect x="143.26" y="17.4999" width="1.05296" height="3.15889" rx="0.526482" transform="rotate(-27.729 143.26 17.4999)" fill="#C34DDB"/>
<rect x="155.018" y="39.869" width="1.05296" height="3.15889" rx="0.526482" transform="rotate(-27.729 155.018 39.869)" fill="#C34DDB"/>
<rect x="146.199" y="23.0922" width="1.05296" height="3.15889" rx="0.526482" transform="rotate(-27.729 146.199 23.0922)" fill="#C34DDB"/>
<rect x="157.957" y="45.4611" width="1.05296" height="3.15889" rx="0.526482" transform="rotate(-27.729 157.957 45.4611)" fill="#C34DDB"/>
<rect x="149.141" y="28.6841" width="1.05296" height="3.15889" rx="0.526482" transform="rotate(-27.729 149.141 28.6841)" fill="#C34DDB"/>
<rect x="160.898" y="51.053" width="1.05296" height="3.15889" rx="0.526482" transform="rotate(-27.729 160.898 51.053)" fill="#C34DDB"/>
<rect x="152.078" y="34.276" width="1.05296" height="3.15889" rx="0.526482" transform="rotate(-27.729 152.078 34.276)" fill="#C34DDB"/>
<rect x="163.838" y="56.646" width="1.05296" height="3.15889" rx="0.526482" transform="rotate(-27.729 163.838 56.646)" fill="#C34DDB"/>
<rect x="166.777" y="62.2379" width="1.05296" height="3.15889" rx="0.526482" transform="rotate(-27.729 166.777 62.2379)" fill="#C34DDB"/>
<rect x="169.717" y="67.83" width="1.05296" height="3.15889" rx="0.526482" transform="rotate(-27.729 169.717 67.83)" fill="#C34DDB"/>
<rect x="172.656" y="73.4219" width="1.05296" height="3.15889" rx="0.526482" transform="rotate(-27.729 172.656 73.4219)" fill="#C34DDB"/>
<rect x="175.596" y="79.0149" width="1.05296" height="3.15889" rx="0.526482" transform="rotate(-27.729 175.596 79.0149)" fill="#C34DDB"/>
<path d="M67.145 87.5897C67.3159 87.4999 67.4961 87.4845 67.6857 87.5434C67.8753 87.6024 68.015 87.7173 68.1049 87.8882L69.4032 90.3581C69.493 90.5289 69.5084 90.7092 69.4495 90.8988C69.3906 91.0884 69.2756 91.2281 69.1048 91.3179L65.0038 93.4736L71.2872 105.427C71.377 105.598 71.3925 105.778 71.3335 105.968C71.2746 106.157 71.1596 106.297 70.9888 106.387L67.9363 107.991C67.7655 108.081 67.5852 108.097 67.3956 108.038C67.206 107.979 67.0663 107.864 66.9765 107.693L60.6931 95.7396L56.5921 97.8953C56.4213 97.9851 56.241 98.0005 56.0514 97.9416C55.8618 97.8826 55.7221 97.7677 55.6323 97.5968L54.334 95.1269C54.2442 94.9561 54.2287 94.7758 54.2877 94.5862C54.3466 94.3966 54.4615 94.2569 54.6324 94.1671L67.145 87.5897ZM79.0709 102.138C78.9001 102.228 78.7198 102.244 78.5302 102.185C78.3406 102.126 78.2009 102.011 78.1111 101.84L70.1987 86.7875C70.1089 86.6167 70.0934 86.4364 70.1524 86.2468C70.2113 86.0572 70.3262 85.9175 70.4971 85.8277L73.5495 84.2232C73.7204 84.1334 73.9006 84.1179 74.0902 84.1769C74.2798 84.2358 74.4195 84.3507 74.5094 84.5216L82.4218 99.574C82.5116 99.7449 82.527 99.9251 82.4681 100.115C82.4092 100.304 82.2942 100.444 82.1234 100.534L79.0709 102.138ZM86.5126 90.316C86.9993 91.0911 87.5986 91.6088 88.3104 91.869C89.0377 92.1212 89.8907 91.99 90.8693 91.4756C91.8014 90.9856 92.3832 90.4518 92.6148 89.874C92.8464 89.2963 92.9129 88.7062 92.8143 88.1038C92.7687 87.7907 92.768 87.5631 92.8122 87.4209C92.8564 87.2787 93.0028 87.1422 93.2513 87.0116L96.3038 85.4071C96.4436 85.3336 96.5887 85.3267 96.739 85.3864C96.8968 85.4225 97.0124 85.5104 97.0859 85.6502C97.6174 86.6992 97.7897 87.8378 97.6027 89.0662C97.4231 90.2709 96.9166 91.4194 96.0831 92.5118C95.2497 93.6042 94.165 94.5015 92.829 95.2037C91.3844 95.9631 89.9792 96.3449 88.6133 96.3491C87.2394 96.3378 86.0082 96.0135 84.9198 95.3762C83.8232 94.7234 82.9377 93.8308 82.2631 92.6984C81.8401 91.9691 81.5021 91.3637 81.2489 90.8821C80.9468 90.3074 80.5581 89.5303 80.0829 88.5508C79.5171 87.3613 79.2803 86.1376 79.3725 84.8797C79.4565 83.6063 79.8875 82.4083 80.6654 81.2856C81.4506 80.1393 82.5656 79.1864 84.0102 78.427C85.3462 77.7248 86.7003 77.3401 88.0727 77.273C89.4451 77.2058 90.6824 77.4476 91.7848 77.9982C92.8944 78.5252 93.7306 79.305 94.2932 80.3376C94.3667 80.4774 94.3777 80.6302 94.3261 80.7961C94.2819 80.9383 94.1899 81.0462 94.0501 81.1197L90.9977 82.7242C90.7491 82.8549 90.5537 82.8981 90.4115 82.8539C90.2693 82.8097 90.0822 82.68 89.8502 82.4649C89.4099 82.0421 88.8861 81.7623 88.2789 81.6255C87.6716 81.4887 86.902 81.6653 85.97 82.1552C84.9913 82.6696 84.3997 83.2979 84.1949 84.0399C84.0057 84.7738 84.0924 85.561 84.4549 86.4014C84.7014 86.9459 85.0288 87.6065 85.4371 88.3832C85.8291 89.1288 86.1876 89.7731 86.5126 90.316ZM115.793 81.8536C115.872 81.8913 115.941 81.9645 115.998 82.0732C116.071 82.213 116.082 82.3659 116.031 82.5318C115.987 82.674 115.894 82.7818 115.755 82.8553L112.05 84.8028C111.848 84.9089 111.657 84.9599 111.476 84.9557C111.287 84.936 111.066 84.8738 110.813 84.769L103.494 81.5383L106.36 86.9908C106.45 87.1616 106.465 87.3419 106.406 87.5315C106.347 87.7211 106.232 87.8608 106.061 87.9506L103.009 89.5551C102.838 89.645 102.658 89.6604 102.468 89.6015C102.279 89.5425 102.139 89.4276 102.049 89.2567L94.1368 74.2043C94.047 74.0334 94.0315 73.8532 94.0905 73.6636C94.1494 73.474 94.2643 73.3343 94.4352 73.2445L97.4876 71.6399C97.6585 71.5501 97.8388 71.5347 98.0283 71.5936C98.2179 71.6526 98.3577 71.7675 98.4475 71.9383L101.032 76.8548L102.487 69.6661C102.53 69.4455 102.589 69.2559 102.664 69.0973C102.739 68.9388 102.901 68.7942 103.15 68.6636L106.785 66.7528C106.925 66.6793 107.07 66.6725 107.22 66.7322C107.378 66.7683 107.493 66.8562 107.567 66.996C107.616 67.0892 107.637 67.1869 107.632 67.289L105.575 77.3513L115.793 81.8536ZM119.037 73.0407L125.701 69.5377C125.872 69.4479 125.987 69.3082 126.046 69.1186C126.105 68.929 126.089 68.7487 126 68.5779L124.701 66.108C124.612 65.9371 124.472 65.8222 124.282 65.7632C124.093 65.7043 123.912 65.7197 123.742 65.8095L117.077 69.3126L115.755 66.7961L122.931 63.0236C123.102 62.9337 123.217 62.794 123.276 62.6044C123.335 62.4148 123.32 62.2346 123.23 62.0637L121.931 59.5938C121.842 59.423 121.702 59.308 121.512 59.2491C121.323 59.1902 121.142 59.2056 120.972 59.2954L110.113 65.0031C109.942 65.093 109.828 65.2327 109.769 65.4223C109.71 65.6119 109.725 65.7921 109.815 65.963L117.727 81.0154C117.817 81.1863 117.957 81.3012 118.146 81.3601C118.336 81.4191 118.516 81.4036 118.687 81.3138L129.732 75.5081C129.903 75.4183 130.018 75.2786 130.077 75.089C130.135 74.8994 130.12 74.7192 130.03 74.5483L128.732 72.0784C128.642 71.9075 128.502 71.7926 128.313 71.7336C128.123 71.6747 127.943 71.6901 127.772 71.78L120.409 75.6504L119.037 73.0407ZM136.434 51.1677C136.604 51.0779 136.785 51.0624 136.974 51.1214C137.164 51.1803 137.304 51.2952 137.393 51.4661L138.692 53.936C138.782 54.1069 138.797 54.2871 138.738 54.4767C138.679 54.6663 138.564 54.806 138.393 54.8958L134.292 57.0515L140.576 69.0049C140.666 69.1758 140.681 69.3561 140.622 69.5457C140.563 69.7352 140.448 69.875 140.277 69.9648L137.225 71.5693C137.054 71.6591 136.874 71.6746 136.684 71.6156C136.495 71.5567 136.355 71.4418 136.265 71.2709L129.982 59.3175L125.881 61.4732C125.71 61.563 125.53 61.5785 125.34 61.5195C125.15 61.4606 125.011 61.3456 124.921 61.1748L123.623 58.7049C123.533 58.534 123.517 58.3538 123.576 58.1642C123.635 57.9746 123.75 57.8349 123.921 57.745L136.434 51.1677Z" fill="#212121"/>
<path d="M26.8035 104.852C26.6528 104.946 26.4041 105.083 26.0574 105.266C25.7163 105.445 25.4673 105.569 25.3104 105.637C24.6243 105.948 23.963 106.013 23.3263 105.834C22.6926 105.66 22.167 105.177 21.7496 104.383C21.3322 103.588 21.2302 102.878 21.4435 102.252C21.6598 101.632 22.0904 101.127 22.7353 100.738C23.0314 100.568 23.2745 100.433 23.4647 100.333C23.6548 100.233 23.9094 100.107 24.2284 99.9533C24.9145 99.6426 25.5744 99.5741 26.2081 99.7477C26.8448 99.927 27.3718 100.414 27.7892 101.208C28.2066 102.002 28.3072 102.709 28.0909 103.33C27.8776 103.956 27.4484 104.463 26.8035 104.852ZM25.9458 103.322C26.2446 103.144 26.4426 102.943 26.5398 102.721C26.6426 102.496 26.6117 102.226 26.4471 101.913C26.2825 101.6 26.0782 101.422 25.8343 101.379C25.596 101.333 25.3186 101.382 25.0022 101.527C24.6944 101.675 24.4594 101.791 24.2972 101.876C24.1462 101.956 23.9115 102.086 23.593 102.268C23.2913 102.441 23.089 102.64 22.9862 102.865C22.892 103.093 22.9271 103.364 23.0917 103.677C23.2564 103.99 23.4578 104.17 23.6962 104.216C23.943 104.264 24.2232 104.214 24.5366 104.063C24.7047 103.989 24.9453 103.87 25.2584 103.705C25.5716 103.54 25.8007 103.413 25.9458 103.322ZM28.3639 107.087C28.3828 107.042 28.4202 107.004 28.4761 106.975C28.5544 106.934 28.6321 106.932 28.7091 106.97L31.0412 108.046C31.0583 108.051 31.0954 108.068 31.1524 108.095C31.2124 108.127 31.2669 108.163 31.3157 108.202C31.3645 108.24 31.4021 108.285 31.4286 108.335L31.9665 109.358C31.9989 109.42 32.0044 109.485 31.9832 109.553C31.962 109.621 31.9206 109.671 31.8591 109.704L26.4402 112.552C26.3787 112.585 26.3138 112.59 26.2456 112.569C26.1773 112.548 26.127 112.506 26.0947 112.445L25.5171 111.346C25.4847 111.284 25.4792 111.22 25.5004 111.151C25.5216 111.083 25.563 111.033 25.6245 111L29.2902 109.074L28.0105 108.472C27.9535 108.445 27.9117 108.406 27.8852 108.356C27.847 108.283 27.8469 108.208 27.8849 108.131L28.3639 107.087ZM30.2978 117.182L31.4046 119.288C31.4369 119.349 31.4425 119.414 31.4213 119.482C31.4001 119.55 31.3587 119.601 31.2972 119.633L30.408 120.1C30.3465 120.133 30.2816 120.138 30.2134 120.117C30.1451 120.096 30.0948 120.055 30.0625 119.993L27.7343 115.564C27.702 115.502 27.6964 115.438 27.7176 115.369C27.7389 115.301 27.7802 115.251 27.8417 115.218L28.5631 114.839C28.7756 114.728 28.9832 114.722 29.1859 114.822L32.2994 116.387C32.5277 116.495 32.7125 116.548 32.8537 116.545C33.0035 116.545 33.1455 116.51 33.2797 116.439C33.4195 116.366 33.5329 116.242 33.6198 116.068C33.7096 115.899 33.6825 115.678 33.5384 115.404C33.4385 115.214 33.32 115.083 33.1829 115.012C33.0543 114.944 32.9477 114.911 32.863 114.913C32.7867 114.917 32.6683 114.93 32.5076 114.95C32.4202 114.96 32.3479 114.945 32.2905 114.903C32.2331 114.862 32.1824 114.8 32.1383 114.716L31.596 113.684C31.5695 113.634 31.5628 113.58 31.5757 113.523C31.5973 113.469 31.6332 113.429 31.6835 113.402C32.0193 113.24 32.381 113.168 32.7685 113.185C33.1616 113.2 33.5444 113.331 33.9168 113.577C34.2947 113.821 34.6145 114.192 34.8762 114.69C35.126 115.165 35.2484 115.622 35.2431 116.06C35.2435 116.495 35.1382 116.879 34.9274 117.211C34.7251 117.546 34.4478 117.806 34.0954 117.991C33.7543 118.17 33.4028 118.255 33.0409 118.245C32.6875 118.238 32.2753 118.12 31.8043 117.889L30.2978 117.182ZM39.6952 124.061C39.7276 124.123 39.7331 124.188 39.7119 124.256C39.6907 124.324 39.6493 124.374 39.5878 124.407L38.6986 124.874C38.6147 124.918 38.4875 124.914 38.3169 124.861L36.7599 124.384C36.8891 124.901 36.8858 125.363 36.75 125.77C36.6141 126.177 36.3365 126.49 35.917 126.711C35.2963 127.037 34.7091 127.068 34.1555 126.802C33.6048 126.542 33.1222 126.017 32.7077 125.229C32.4402 124.72 32.2848 124.234 32.2415 123.772C32.1982 123.309 32.2494 122.911 32.3953 122.577C32.5467 122.241 32.762 121.992 33.0414 121.831C33.0917 121.805 33.1425 121.799 33.1936 121.815C33.2534 121.834 33.2965 121.868 33.3229 121.919L33.8785 122.975C33.9255 123.065 33.947 123.146 33.9428 123.22C33.9442 123.291 33.9305 123.38 33.9016 123.488C33.8598 123.653 33.8417 123.808 33.8475 123.955C33.8619 124.105 33.9293 124.294 34.0498 124.523C34.1968 124.803 34.3619 125.002 34.5452 125.12C34.7314 125.243 34.9168 125.256 35.1013 125.159C35.2858 125.062 35.3801 124.902 35.384 124.679C35.3909 124.461 35.3209 124.212 35.1739 123.933L34.8079 123.236C34.7756 123.175 34.77 123.11 34.7912 123.042C34.8124 122.973 34.8538 122.923 34.9153 122.891L35.6367 122.512C35.6926 122.482 35.7503 122.47 35.8098 122.474C35.8721 122.484 35.946 122.502 36.0313 122.529L37.3963 122.946L36.2454 120.757C36.2131 120.695 36.2075 120.631 36.2287 120.562C36.2499 120.494 36.2913 120.444 36.3528 120.411L37.242 119.944C37.3035 119.912 37.3684 119.906 37.4367 119.927C37.5049 119.949 37.5552 119.99 37.5875 120.051L39.6952 124.061ZM36.988 133.168C36.9557 133.106 36.9501 133.042 36.9713 132.973C36.9925 132.905 37.0339 132.855 37.0954 132.822L37.951 132.373L36.5621 129.73C36.5297 129.669 36.5242 129.604 36.5454 129.536C36.5666 129.467 36.608 129.417 36.6695 129.385L37.5587 128.917C37.7041 128.841 37.8434 128.814 37.9767 128.837L42.4575 129.683C42.5455 129.701 42.6081 129.725 42.6455 129.755C42.6914 129.788 42.7334 129.841 42.7717 129.914L43.4375 131.18C43.4698 131.242 43.4754 131.307 43.4541 131.375C43.4329 131.443 43.3916 131.493 43.33 131.526L40.1089 133.219L40.4881 133.94C40.5205 134.002 40.526 134.067 40.5048 134.135C40.4836 134.203 40.4422 134.254 40.3807 134.286L39.4915 134.753C39.43 134.786 39.3651 134.791 39.2969 134.77C39.2286 134.749 39.1783 134.707 39.146 134.646L38.7668 133.925L37.9112 134.374C37.8496 134.407 37.7848 134.412 37.7165 134.391C37.6483 134.37 37.598 134.328 37.5656 134.267L36.988 133.168ZM40.8587 130.898L38.6714 130.484L39.3152 131.709L40.8587 130.898Z" fill="#212121"/>
<path d="M173.409 57.8944C173.56 57.8009 173.809 57.663 174.155 57.4808C174.497 57.3014 174.746 57.1777 174.902 57.1095C175.589 56.7988 176.25 56.7331 176.887 56.9124C177.52 57.086 178.046 57.5699 178.463 58.364C178.881 59.1581 178.983 59.8681 178.769 60.4942C178.553 61.1146 178.122 61.6193 177.478 62.0083C177.181 62.1782 176.938 62.3132 176.748 62.4131C176.558 62.5131 176.303 62.6397 175.984 62.7932C175.298 63.1038 174.639 63.1724 174.005 62.9987C173.368 62.8195 172.841 62.3328 172.424 61.5387C172.006 60.7446 171.906 60.0374 172.122 59.4169C172.335 58.7908 172.764 58.2833 173.409 57.8944ZM174.267 59.4242C173.968 59.6026 173.77 59.8031 173.673 60.0255C173.57 60.2508 173.601 60.5201 173.766 60.8332C173.93 61.1464 174.135 61.3245 174.379 61.3676C174.617 61.4136 174.894 61.3642 175.211 61.2193C175.519 61.0717 175.754 60.9553 175.916 60.8701C176.067 60.7907 176.301 60.6602 176.62 60.4785C176.922 60.3056 177.124 60.1065 177.227 59.8812C177.321 59.6532 177.286 59.3826 177.121 59.0695C176.957 58.7563 176.755 58.5767 176.517 58.5307C176.27 58.482 175.99 58.5329 175.676 58.6834C175.508 58.7575 175.268 58.8768 174.954 59.0414C174.641 59.206 174.412 59.3336 174.267 59.4242ZM171.849 55.6592C171.83 55.7048 171.793 55.7423 171.737 55.7717C171.659 55.8128 171.581 55.8144 171.504 55.7764L169.172 54.7004C169.155 54.6951 169.118 54.6789 169.06 54.6518C169 54.6191 168.946 54.5835 168.897 54.5449C168.848 54.5064 168.811 54.4619 168.784 54.4116L168.246 53.3882C168.214 53.3267 168.208 53.2618 168.23 53.1936C168.251 53.1253 168.292 53.075 168.354 53.0427L173.773 50.1942C173.834 50.1619 173.899 50.1563 173.967 50.1775C174.036 50.1987 174.086 50.2401 174.118 50.3016L174.696 51.4005C174.728 51.462 174.734 51.5269 174.712 51.5952C174.691 51.6634 174.65 51.7137 174.588 51.746L170.923 53.6729L172.202 54.2743C172.259 54.3014 172.301 54.3401 172.328 54.3905C172.366 54.4632 172.366 54.538 172.328 54.6151L171.849 55.6592ZM169.915 45.5644L168.808 43.4589C168.776 43.3974 168.77 43.3325 168.792 43.2643C168.813 43.196 168.854 43.1457 168.916 43.1134L169.805 42.646C169.866 42.6137 169.931 42.6081 170 42.6293C170.068 42.6505 170.118 42.6919 170.15 42.7534L172.479 47.1825C172.511 47.244 172.516 47.3089 172.495 47.3771C172.474 47.4454 172.433 47.4957 172.371 47.528L171.65 47.9072C171.437 48.0189 171.23 48.0246 171.027 47.9241L167.913 46.3596C167.685 46.2512 167.5 46.1984 167.359 46.2013C167.209 46.2015 167.067 46.2369 166.933 46.3075C166.793 46.381 166.68 46.5048 166.593 46.6789C166.503 46.8475 166.53 47.0688 166.674 47.3428C166.774 47.5329 166.893 47.6633 167.03 47.734C167.159 47.8021 167.265 47.8352 167.35 47.8335C167.426 47.8291 167.545 47.8168 167.705 47.7966C167.793 47.7864 167.865 47.8018 167.922 47.8431C167.98 47.8843 168.03 47.9468 168.075 48.0307L168.617 49.0625C168.643 49.1128 168.65 49.1664 168.637 49.2232C168.616 49.2773 168.58 49.3176 168.529 49.344C168.194 49.5063 167.832 49.5786 167.444 49.5611C167.051 49.5465 166.669 49.4158 166.296 49.169C165.918 48.9252 165.598 48.5544 165.337 48.0567C165.087 47.5813 164.965 47.1246 164.97 46.6865C164.969 46.2513 165.075 45.8676 165.285 45.5355C165.488 45.2008 165.765 44.9408 166.117 44.7556C166.459 44.5763 166.81 44.4914 167.172 44.501C167.525 44.508 167.938 44.6268 168.409 44.8574L169.915 45.5644ZM160.518 38.6853C160.485 38.6238 160.48 38.5589 160.501 38.4907C160.522 38.4224 160.564 38.3721 160.625 38.3398L161.514 37.8724C161.598 37.8283 161.725 37.8328 161.896 37.8858L163.453 38.3629C163.324 37.8455 163.327 37.3834 163.463 36.9765C163.599 36.5697 163.876 36.256 164.296 36.0355C164.917 35.7092 165.504 35.6789 166.057 35.9446C166.608 36.2047 167.091 36.729 167.505 37.5175C167.773 38.0264 167.928 38.5122 167.971 38.9747C168.015 39.4373 167.963 39.8354 167.818 40.169C167.666 40.5056 167.451 40.7544 167.172 40.9155C167.121 40.9419 167.07 40.9472 167.019 40.9313C166.96 40.9127 166.916 40.8783 166.89 40.8279L166.334 39.771C166.287 39.6815 166.266 39.6 166.27 39.5265C166.269 39.4558 166.282 39.3665 166.311 39.2586C166.353 39.0938 166.371 38.938 166.365 38.7912C166.351 38.6417 166.284 38.4523 166.163 38.223C166.016 37.9434 165.851 37.7447 165.668 37.6269C165.482 37.5035 165.296 37.4903 165.112 37.5874C164.927 37.6844 164.833 37.8445 164.829 38.0679C164.822 38.2856 164.892 38.5343 165.039 38.8139L165.405 39.5101C165.437 39.5716 165.443 39.6365 165.422 39.7048C165.4 39.773 165.359 39.8233 165.298 39.8557L164.576 40.2349C164.52 40.2643 164.463 40.2767 164.403 40.2723C164.341 40.2623 164.267 40.244 164.182 40.2175L162.817 39.8001L163.967 41.9895C164 42.051 164.005 42.1159 163.984 42.1841C163.963 42.2524 163.922 42.3027 163.86 42.335L162.971 42.8024C162.909 42.8347 162.844 42.8403 162.776 42.8191C162.708 42.7978 162.658 42.7565 162.625 42.695L160.518 38.6853ZM163.225 29.5785C163.257 29.64 163.263 29.7049 163.242 29.7731C163.22 29.8414 163.179 29.8917 163.117 29.924L162.262 30.3738L163.651 33.0161C163.683 33.0776 163.689 33.1425 163.667 33.2107C163.646 33.279 163.605 33.3293 163.543 33.3616L162.654 33.829C162.509 33.9055 162.369 33.9323 162.236 33.9096L157.755 33.0638C157.667 33.0458 157.605 33.0217 157.567 32.9913C157.522 32.9583 157.479 32.9055 157.441 32.8328L156.775 31.5662C156.743 31.5047 156.738 31.4398 156.759 31.3715C156.78 31.3033 156.821 31.253 156.883 31.2206L160.104 29.5274L159.725 28.806C159.692 28.7445 159.687 28.6796 159.708 28.6114C159.729 28.5431 159.771 28.4928 159.832 28.4605L160.721 27.9931C160.783 27.9607 160.848 27.9552 160.916 27.9764C160.984 27.9976 161.035 28.039 161.067 28.1005L161.446 28.8219L162.302 28.3722C162.363 28.3398 162.428 28.3343 162.496 28.3555C162.565 28.3767 162.615 28.4181 162.647 28.4796L163.225 29.5785ZM159.354 31.8487L161.541 32.262L160.898 31.0373L159.354 31.8487Z" fill="#212121"/>
<defs>
<linearGradient id="paint0_linear" x1="79.2233" y1="41.6447" x2="120.868" y2="120.868" gradientUnits="userSpaceOnUse">
<stop stop-color="#F2ABFF"/>
<stop offset="1" stop-color="#FFEBAF"/>
</linearGradient>
</defs>
</svg>
