<svg width="193" height="57" viewBox="0 0 193 57" fill="none" xmlns="http://www.w3.org/2000/svg">
<path fill-rule="evenodd" clip-rule="evenodd" d="M72.0153 10.6506L180.874 110.053L180.874 110.054C174.992 116.495 175.445 126.485 181.886 132.367L142.835 175.133C136.394 169.252 126.404 169.705 120.522 176.146L11.6636 76.7434C17.5451 70.3018 17.0914 60.312 10.65 54.4301L10.6497 54.4298L49.7008 11.6639L49.7011 11.6642C56.1426 17.5462 66.1328 17.0926 72.0148 10.6511L72.0153 10.6506Z" fill="url(#paint0_linear)"/>
<path d="M87.3681 54.7378L88.5319 58.5297L90.4238 55.1134L94.3761 55.2613L91.6633 52.3378L92.9318 48.6448L89.3691 50.2428L86.2117 47.8061L86.7172 51.7287L83.4863 53.9224L87.3681 54.7378Z" fill="#212121"/>
<path d="M99.4209 65.7422L100.585 69.5341L102.477 66.1177L106.429 66.2657L103.716 63.3421L104.985 59.6492L101.422 61.2472L98.2644 58.8105L98.7699 62.7331L95.539 64.9268L99.4209 65.7422Z" fill="#212121"/>
<mask id="path-4-inside-1" fill="white">
<path fill-rule="evenodd" clip-rule="evenodd" d="M71.8399 14.0567L177.497 110.536C171.961 116.598 172.541 126.141 178.793 131.85L178.794 131.85L142.04 172.1C142.04 172.1 142.04 172.1 142.039 172.1C135.787 166.391 126.231 166.678 120.695 172.741C120.695 172.741 120.695 172.741 120.695 172.741L15.0383 76.2616L15.0384 76.2615C20.5744 70.1989 19.9939 60.6561 13.7419 54.9471L50.4958 14.697C56.7478 20.406 66.3039 20.1193 71.8399 14.0567Z"/>
</mask>
<path d="M177.497 110.536L178.663 111.601L179.728 110.434L178.562 109.369L177.497 110.536ZM71.8399 14.0567L72.905 12.8903L71.7386 11.8253L70.6736 12.9917L71.8399 14.0567ZM178.793 131.85L177.728 133.016L178.793 131.85ZM178.794 131.85L179.96 132.915L181.025 131.749L179.859 130.684L178.794 131.85ZM142.04 172.1L140.975 173.267L142.141 174.332L143.206 173.165L142.04 172.1ZM120.695 172.741L119.63 173.907L120.796 174.972L121.861 173.806L120.695 172.741ZM15.0383 76.2616L13.872 75.1966L12.8069 76.363L13.9733 77.428L15.0383 76.2616ZM15.0384 76.2615L13.8721 75.1965L15.0384 76.2615ZM13.7419 54.9471L12.5755 53.8821L11.5105 55.0484L12.6768 56.1134L13.7419 54.9471ZM50.4958 14.697L51.5608 13.5306L50.3944 12.4656L49.3294 13.632L50.4958 14.697ZM178.562 109.369L72.905 12.8903L70.7749 15.223L176.432 111.702L178.562 109.369ZM179.858 130.684C174.216 125.532 173.746 116.986 178.663 111.601L176.33 109.471C170.176 116.211 170.866 126.75 177.728 133.016L179.858 130.684ZM179.859 130.684L179.858 130.684L177.728 133.016L177.728 133.017L179.859 130.684ZM143.206 173.165L179.96 132.915L177.627 130.785L140.873 171.035L143.206 173.165ZM140.974 173.267C140.974 173.267 140.974 173.267 140.975 173.267C140.975 173.267 140.975 173.267 140.975 173.267L143.105 170.934C143.105 170.934 143.105 170.934 143.105 170.934C143.105 170.934 143.104 170.934 143.104 170.934L140.974 173.267ZM121.862 173.806C126.779 168.421 135.332 168.115 140.974 173.267L143.104 170.934C136.242 164.668 125.684 164.935 119.529 171.675L121.862 173.806ZM121.861 173.806C121.861 173.806 121.861 173.806 121.862 173.806C121.862 173.806 121.862 173.806 121.862 173.806L119.529 171.675C119.529 171.676 119.529 171.676 119.529 171.676C119.529 171.676 119.529 171.676 119.529 171.676L121.861 173.806ZM13.9733 77.428L119.63 173.907L121.76 171.574L16.1033 75.0953L13.9733 77.428ZM13.8721 75.1965L13.872 75.1966L16.2046 77.3267L16.2048 77.3265L13.8721 75.1965ZM12.6768 56.1134C18.3188 61.2654 18.7892 69.8116 13.8721 75.1965L16.2048 77.3265C22.3596 70.5862 21.669 60.0468 14.8069 53.7807L12.6768 56.1134ZM49.3294 13.632L12.5755 53.8821L14.9082 56.0121L51.6621 15.762L49.3294 13.632ZM70.6736 12.9917C65.7565 18.3765 57.2028 18.6826 51.5608 13.5306L49.4307 15.8633C56.2929 22.1294 66.8514 21.8621 73.0063 15.1217L70.6736 12.9917Z" fill="#C34DDB" mask="url(#path-4-inside-1)"/>
<rect x="69.834" y="20.066" width="1.05296" height="3.15889" rx="0.526482" transform="rotate(42.4003 69.834 20.066)" fill="#C34DDB"/>
<rect x="52.793" y="38.7271" width="1.05296" height="3.15889" rx="0.526482" transform="rotate(42.4003 52.793 38.7271)" fill="#C34DDB"/>
<rect x="65.5742" y="24.7314" width="1.05296" height="3.15889" rx="0.526482" transform="rotate(42.4003 65.5742 24.7314)" fill="#C34DDB"/>
<rect x="48.5332" y="43.3926" width="1.05296" height="3.15889" rx="0.526482" transform="rotate(42.4003 48.5332 43.3926)" fill="#C34DDB"/>
<rect x="61.3145" y="29.3969" width="1.05296" height="3.15889" rx="0.526482" transform="rotate(42.4003 61.3145 29.3969)" fill="#C34DDB"/>
<rect x="44.2734" y="48.058" width="1.05296" height="3.15889" rx="0.526482" transform="rotate(42.4003 44.2734 48.058)" fill="#C34DDB"/>
<rect x="57.0547" y="34.0614" width="1.05296" height="3.15889" rx="0.526482" transform="rotate(42.4003 57.0547 34.0614)" fill="#C34DDB"/>
<rect x="40.0137" y="52.7238" width="1.05296" height="3.15889" rx="0.526482" transform="rotate(42.4003 40.0137 52.7238)" fill="#C34DDB"/>
<path d="M79.129 64.6089C79.2715 64.7391 79.3473 64.9034 79.3563 65.1017C79.3653 65.3001 79.3047 65.4705 79.1746 65.6131L77.293 67.6736C77.1628 67.8162 76.9986 67.8919 76.8002 67.9009C76.6019 67.91 76.4314 67.8494 76.2889 67.7192L72.8676 64.5951L63.7616 74.5673C63.6314 74.7099 63.4672 74.7857 63.2688 74.7947C63.0705 74.8037 62.9 74.7431 62.7575 74.6129L60.211 72.2876C60.0684 72.1575 59.9926 71.9932 59.9836 71.7948C59.9746 71.5965 60.0352 71.4261 60.1654 71.2835L69.2714 61.3113L65.8501 58.1872C65.7076 58.057 65.6318 57.8927 65.6228 57.6944C65.6138 57.4961 65.6744 57.3256 65.8045 57.1831L67.6861 55.1225C67.8163 54.98 67.9805 54.9042 68.1789 54.8952C68.3772 54.8862 68.5476 54.9468 68.6902 55.0769L79.129 64.6089ZM69.5001 80.7699C69.3576 80.6397 69.2818 80.4754 69.2728 80.2771C69.2638 80.0788 69.3243 79.9083 69.4545 79.7657L80.9213 67.2081C81.0515 67.0656 81.2158 66.9898 81.4141 66.9808C81.6125 66.9718 81.7829 67.0324 81.9255 67.1625L84.472 69.4878C84.6145 69.618 84.6903 69.7823 84.6993 69.9806C84.7083 70.179 84.6477 70.3494 84.5176 70.492L73.0507 83.0496C72.9206 83.1921 72.7563 83.2679 72.558 83.2769C72.3596 83.2859 72.1892 83.2254 72.0466 83.0952L69.5001 80.7699ZM83.1481 83.75C82.5846 84.4713 82.3014 85.2108 82.2985 85.9687C82.3086 86.7384 82.7219 87.496 83.5383 88.2415C84.3159 88.9515 85.0157 89.3173 85.6378 89.3387C86.2599 89.3602 86.8374 89.2221 87.3705 88.9247C87.6494 88.7753 87.8633 88.6973 88.012 88.6906C88.1608 88.6838 88.3388 88.7751 88.5462 88.9644L91.0927 91.2898C91.2094 91.3963 91.2651 91.5304 91.26 91.6921C91.2798 91.8527 91.2364 91.9913 91.1299 92.1079C90.324 92.9644 89.3117 93.5134 88.0929 93.7551C86.8989 93.9956 85.6466 93.9096 84.336 93.4971C83.0253 93.0846 81.8128 92.3695 80.6983 91.3518C79.493 90.2512 78.6563 89.0594 78.1881 87.7764C77.7318 86.4804 77.6183 85.2123 77.8477 83.9721C78.0889 82.7189 78.6274 81.5827 79.4631 80.5634C80.0052 79.9177 80.4597 79.3939 80.8265 78.9922C81.2644 78.5127 81.8631 77.883 82.6227 77.1032C83.5491 76.1668 84.6194 75.5281 85.8338 75.1873C87.0599 74.8335 88.3331 74.8316 89.6533 75.1816C90.9983 75.5304 92.2734 76.2551 93.4786 77.3556C94.5931 78.3733 95.4152 79.5161 95.9448 80.784C96.4744 82.0518 96.6676 83.2977 96.5244 84.5215C96.406 85.7443 95.9569 86.7957 95.177 87.6758C95.0705 87.7925 94.9304 87.8547 94.7569 87.8626C94.6081 87.8693 94.4754 87.8195 94.3588 87.713L91.8123 85.3876C91.6049 85.1983 91.4979 85.0293 91.4911 84.8805C91.4844 84.7317 91.5427 84.5117 91.6661 84.2204C91.9141 83.6626 91.9992 83.0749 91.9215 82.4573C91.8437 81.8397 91.4161 81.1759 90.6385 80.4659C89.8221 79.7204 89.0301 79.3775 88.2627 79.4372C87.5082 79.5087 86.7973 79.8577 86.1302 80.4843C85.7019 80.9012 85.1919 81.4337 84.6002 82.0816C84.0322 82.7037 83.5482 83.2598 83.1481 83.75ZM101.059 108.411C101.051 108.498 101.005 108.587 100.922 108.678C100.816 108.795 100.676 108.857 100.502 108.865C100.353 108.872 100.221 108.822 100.104 108.715L97.0131 105.893C96.8446 105.739 96.7316 105.577 96.6742 105.405C96.6285 105.221 96.6119 104.992 96.6243 104.718L97.175 96.7367L93.0213 101.285C92.8912 101.428 92.7269 101.504 92.5286 101.513C92.3302 101.522 92.1598 101.461 92.0172 101.331L89.4707 99.0057C89.3282 98.8756 89.2524 98.7113 89.2434 98.513C89.2344 98.3146 89.2949 98.1442 89.4251 98.0016L100.892 85.444C101.022 85.3014 101.186 85.2257 101.385 85.2167C101.583 85.2076 101.754 85.2682 101.896 85.3984L104.443 87.7237C104.585 87.8539 104.661 88.0181 104.67 88.2165C104.679 88.4148 104.618 88.5853 104.488 88.7278L100.743 92.8295L107.998 91.7547C108.22 91.7198 108.419 91.7108 108.593 91.7277C108.768 91.7446 108.959 91.8477 109.166 92.0371L112.199 94.8062C112.315 94.9127 112.371 95.0468 112.366 95.2085C112.386 95.3691 112.342 95.5077 112.236 95.6243C112.165 95.7021 112.08 95.7556 111.982 95.7849L101.82 97.2711L101.059 108.411ZM110.45 108.466L116.009 113.543C116.152 113.673 116.322 113.734 116.521 113.725C116.719 113.716 116.883 113.64 117.014 113.497L118.895 111.437C119.025 111.294 119.086 111.124 119.077 110.926C119.068 110.727 118.992 110.563 118.849 110.433L113.29 105.356L115.207 103.257L121.194 108.724C121.337 108.854 121.507 108.915 121.706 108.906C121.904 108.897 122.068 108.821 122.198 108.678L124.08 106.618C124.21 106.475 124.271 106.305 124.262 106.106C124.253 105.908 124.177 105.744 124.034 105.614L114.976 97.3419C114.833 97.2117 114.663 97.1511 114.464 97.1601C114.266 97.1691 114.102 97.2449 113.972 97.3874L102.505 109.945C102.375 110.088 102.314 110.258 102.323 110.456C102.332 110.655 102.408 110.819 102.55 110.949L111.764 119.363C111.907 119.493 112.077 119.554 112.276 119.545C112.474 119.536 112.638 119.46 112.769 119.317L114.65 117.257C114.78 117.114 114.841 116.944 114.832 116.745C114.823 116.547 114.747 116.383 114.605 116.253L108.462 110.644L110.45 108.466ZM136.934 117.392C137.076 117.523 137.152 117.687 137.161 117.885C137.17 118.084 137.109 118.254 136.979 118.397L135.098 120.457C134.967 120.6 134.803 120.675 134.605 120.684C134.407 120.693 134.236 120.633 134.094 120.503L130.672 117.379L121.566 127.351C121.436 127.493 121.272 127.569 121.073 127.578C120.875 127.587 120.705 127.527 120.562 127.396L118.016 125.071C117.873 124.941 117.797 124.777 117.788 124.578C117.779 124.38 117.84 124.21 117.97 124.067L127.076 114.095L123.655 110.971C123.512 110.84 123.436 110.676 123.427 110.478C123.418 110.28 123.479 110.109 123.609 109.967L125.491 107.906C125.621 107.763 125.785 107.688 125.983 107.679C126.182 107.67 126.352 107.73 126.495 107.86L136.934 117.392Z" fill="#212121"/>
<path d="M49.1836 32.5377C49.0445 32.4277 48.8303 32.2407 48.541 31.9765C48.2564 31.7167 48.0554 31.5246 47.938 31.4002C47.4126 30.8606 47.126 30.261 47.0782 29.6013C47.0261 28.9463 47.3025 28.2875 47.9074 27.625C48.5124 26.9626 49.1455 26.6252 49.8068 26.6131C50.4638 26.6056 51.0848 26.8391 51.6698 27.3133C51.9303 27.5341 52.1398 27.7168 52.2984 27.8617C52.4571 28.0065 52.6628 28.2029 52.9155 28.4508C53.4409 28.9904 53.7296 29.5877 53.7817 30.2427C53.8295 30.9024 53.551 31.5635 52.946 32.226C52.3411 32.8885 51.7101 33.2234 51.0531 33.2309C50.3918 33.243 49.7686 33.012 49.1836 32.5377ZM50.3308 31.2111C50.6002 31.4314 50.856 31.5495 51.0982 31.5653C51.3451 31.5854 51.5878 31.4648 51.8263 31.2035C52.0649 30.9423 52.163 30.6896 52.1206 30.4456C52.0829 30.2058 51.9421 29.9618 51.6983 29.7135C51.4549 29.4741 51.2656 29.2927 51.1303 29.1691C51.0043 29.0541 50.8018 28.8777 50.5226 28.6399C50.2575 28.415 50.0015 28.2924 49.7547 28.2723C49.5082 28.2612 49.2657 28.3862 49.0271 28.6475C48.7886 28.9087 48.6881 29.1592 48.7258 29.399C48.764 29.6477 48.9071 29.8939 49.1551 30.1375C49.2819 30.2704 49.4759 30.4561 49.7372 30.6947C49.9985 30.9333 50.1963 31.1054 50.3308 31.2111ZM47.6119 34.7649C47.6612 34.7671 47.7091 34.7895 47.7558 34.8321C47.8211 34.8918 47.849 34.9643 47.8394 35.0497L47.6202 37.6087C47.621 37.6265 47.6184 37.6669 47.6123 37.7298C47.602 37.7973 47.587 37.8606 47.5673 37.9196C47.5476 37.9787 47.5186 38.0292 47.4802 38.0712L46.7006 38.9249C46.6538 38.9763 46.5946 39.0035 46.5232 39.0068C46.4518 39.01 46.3905 38.9882 46.3392 38.9413L41.8184 34.8133C41.7671 34.7664 41.7398 34.7073 41.7366 34.6359C41.7333 34.5645 41.7551 34.5031 41.802 34.4518L42.6391 33.5351C42.686 33.4837 42.7451 33.4565 42.8165 33.4532C42.8879 33.45 42.9493 33.4718 43.0006 33.5186L46.0587 36.3112L46.1894 34.9033C46.1954 34.8404 46.2177 34.7879 46.256 34.746C46.3114 34.6853 46.3818 34.6598 46.4672 34.6693L47.6119 34.7649ZM38.7755 40.0149L37.1715 41.7714C37.1247 41.8227 37.0655 41.85 36.9941 41.8532C36.9227 41.8565 36.8614 41.8347 36.81 41.7878L36.0682 41.1104C36.0169 41.0636 35.9896 41.0045 35.9864 40.933C35.9832 40.8616 36.005 40.8003 36.0518 40.749L39.4258 37.054C39.4727 37.0027 39.5318 36.9754 39.6032 36.9721C39.6747 36.9689 39.736 36.9907 39.7873 37.0376L40.3892 37.5871C40.5664 37.749 40.6423 37.9423 40.6167 38.1671L40.2037 41.627C40.1793 41.8786 40.1925 42.0702 40.2432 42.2021C40.2943 42.3429 40.3758 42.4644 40.4878 42.5666C40.6044 42.6731 40.7594 42.7377 40.9527 42.7602C41.1418 42.7874 41.3407 42.6867 41.5494 42.4581C41.6943 42.2994 41.7766 42.1437 41.7965 41.9907C41.8168 41.8467 41.8118 41.7351 41.7813 41.656C41.7513 41.5858 41.6995 41.4786 41.6259 41.3344C41.5865 41.2557 41.5765 41.1823 41.5958 41.1144C41.615 41.0464 41.6566 40.9775 41.7205 40.9075L42.5065 40.0467C42.5448 40.0047 42.5929 39.9802 42.6507 39.9731C42.709 39.9749 42.7591 39.995 42.8011 40.0333C43.0678 40.294 43.2588 40.6096 43.374 40.98C43.4938 41.3547 43.501 41.759 43.3955 42.1931C43.2947 42.6315 43.0547 43.0583 42.6755 43.4735C42.3134 43.8701 41.9254 44.1403 41.5116 44.2843C41.1025 44.4326 40.7059 44.464 40.3219 44.3786C39.9383 44.3021 39.5995 44.1297 39.3056 43.8613C39.021 43.6014 38.8217 43.2997 38.7078 42.956C38.5942 42.6213 38.5658 42.1933 38.6226 41.672L38.7755 40.0149ZM35.5001 51.1909C35.4532 51.2423 35.3941 51.2695 35.3227 51.2728C35.2513 51.276 35.1899 51.2542 35.1386 51.2074L34.3968 50.53C34.3268 50.4661 34.2878 50.3449 34.2797 50.1664L34.1991 48.54C33.7565 48.8374 33.3208 48.9913 32.8919 49.0018C32.4631 49.0124 32.0737 48.8579 31.7238 48.5384C31.206 48.0655 30.9779 47.5236 31.0396 46.9126C31.097 46.3063 31.4261 45.6742 32.0268 45.0164C32.4145 44.5918 32.8184 44.2806 33.2388 44.0826C33.6591 43.8846 34.0509 43.7975 34.4142 43.8213C34.7822 43.8493 35.0894 43.9673 35.3358 44.1752C35.3778 44.2136 35.4 44.2595 35.4025 44.3131C35.4053 44.3755 35.3876 44.4278 35.3492 44.4698L34.5441 45.3515C34.4759 45.4262 34.4065 45.474 34.3359 45.4951C34.27 45.5205 34.1813 45.5379 34.07 45.5474C33.9008 45.5641 33.7481 45.6001 33.612 45.6554C33.4763 45.7197 33.3211 45.8475 33.1465 46.0388C32.9335 46.2721 32.8027 46.4949 32.7542 46.7073C32.7015 46.9243 32.7521 47.1031 32.906 47.2437C33.06 47.3843 33.2427 47.4185 33.454 47.3463C33.6611 47.2788 33.8712 47.1284 34.0842 46.8951L34.6146 46.3142C34.6615 46.2629 34.7206 46.2356 34.792 46.2324C34.8634 46.2292 34.9248 46.251 34.9761 46.2978L35.5779 46.8474C35.6246 46.89 35.6559 46.94 35.6719 46.9974C35.6837 47.0595 35.6916 47.1351 35.6956 47.2244L35.7671 48.6499L37.4349 46.8234C37.4818 46.7721 37.5409 46.7448 37.6123 46.7416C37.6837 46.7384 37.7451 46.7602 37.7964 46.807L38.5382 47.4844C38.5895 47.5313 38.6168 47.5904 38.62 47.6618C38.6233 47.7332 38.6015 47.7946 38.5546 47.8459L35.5001 51.1909ZM26.0153 51.7403C26.0621 51.689 26.1212 51.6617 26.1926 51.6585C26.2641 51.6552 26.3254 51.677 26.3767 51.7239L27.0905 52.3757L29.1034 50.1713C29.1503 50.12 29.2094 50.0927 29.2808 50.0895C29.3522 50.0862 29.4136 50.108 29.4649 50.1549L30.2067 50.8322C30.328 50.943 30.4006 51.0649 30.4246 51.198L31.1522 55.6995C31.1651 55.7884 31.1637 55.8555 31.1479 55.9009C31.1325 55.9553 31.0971 56.0128 31.0417 56.0735L30.0768 57.1302C30.0299 57.1815 29.9708 57.2088 29.8994 57.212C29.828 57.2153 29.7666 57.1934 29.7153 57.1466L27.028 54.6928L26.4785 55.2946C26.4316 55.3459 26.3725 55.3732 26.3011 55.3764C26.2297 55.3797 26.1683 55.3579 26.117 55.311L25.3752 54.6336C25.3239 54.5868 25.2966 54.5276 25.2934 54.4562C25.2901 54.3848 25.3119 54.3235 25.3588 54.2722L25.9084 53.6703L25.1945 53.0185C25.1432 52.9717 25.116 52.9125 25.1127 52.8411C25.1095 52.7697 25.1313 52.7084 25.1781 52.657L26.0153 51.7403ZM29.4659 54.6089L29.1112 52.4114L28.1783 53.4331L29.4659 54.6089Z" fill="#212121"/>
<defs>
<linearGradient id="paint0_linear" x1="126.444" y1="60.3517" x2="66.0926" y2="126.445" gradientUnits="userSpaceOnUse">
<stop stop-color="#F2ABFF"/>
<stop offset="1" stop-color="#FFEBAF"/>
</linearGradient>
</defs>
</svg>
