<svg width="2320" height="497" viewBox="0 0 2320 497" fill="none" xmlns="http://www.w3.org/2000/svg">
<g opacity="0.1" filter="url(#filter0_f)">
<path d="M-313 497.5H1160L-313 476.361V497.5Z" fill="white"/>
<path d="M-313 497.5H1160L-313 518.639V497.5Z" fill="white"/>
<path d="M2633 497.5H1160L2633 476.361V497.5Z" fill="white"/>
<path d="M2633 497.5H1160L2633 518.639V497.5Z" fill="white"/>
<path d="M1160 -691V497.5L1186.2 -691L1160 -691Z" fill="white"/>
<path d="M1160 -691V497.5L1133.8 -691L1160 -691Z" fill="white"/>
<path d="M1160 1686L1160 497.5L1186.2 1686H1160Z" fill="white"/>
<path d="M1160 1686L1160 497.5L1133.8 1686H1160Z" fill="white"/>
<path d="M423.5 -531.771L1160 497.5L446.19 -542.341L423.5 -531.771Z" fill="white"/>
<path d="M423.5 -531.771L1160 497.5L400.81 -521.202L423.5 -531.771Z" fill="white"/>
<path d="M1896.5 1526.77L1160 497.5L1919.19 1516.2L1896.5 1526.77Z" fill="white"/>
<path d="M1896.5 1526.77L1160 497.5L1873.81 1537.34L1896.5 1526.77Z" fill="white"/>
<path d="M2435.66 -96.7499L1160 497.5L2448.76 -78.4427L2435.66 -96.7499Z" fill="white"/>
<path d="M2435.66 -96.7499L1160 497.5L2422.56 -115.057L2435.66 -96.7499Z" fill="white"/>
<path d="M-115.656 1091.75L1160 497.5L-102.556 1110.06L-115.656 1091.75Z" fill="white"/>
<path d="M-115.656 1091.75L1160 497.5L-128.755 1073.44L-115.656 1091.75Z" fill="white"/>
<path d="M778.76 -650.503L1160 497.5L804.067 -655.974L778.76 -650.503Z" fill="white"/>
<path d="M778.76 -650.503L1160 497.5L753.453 -645.032L778.76 -650.503Z" fill="white"/>
<path d="M1541.24 1645.5L1160 497.5L1566.55 1640.03L1541.24 1645.5Z" fill="white"/>
<path d="M1541.24 1645.5L1160 497.5L1515.93 1650.97L1541.24 1645.5Z" fill="white"/>
<path d="M2582.81 189.893L1160 497.5L2589.59 210.312L2582.81 189.893Z" fill="white"/>
<path d="M2582.81 189.893L1160 497.5L2576.03 169.474L2582.81 189.893Z" fill="white"/>
<path d="M-262.809 805.106L1160 497.5L-256.028 825.525L-262.809 805.106Z" fill="white"/>
<path d="M-262.809 805.106L1160 497.5L-269.589 784.687L-262.809 805.106Z" fill="white"/>
<path d="M118.432 -342.896L1160 497.5L136.958 -357.844L118.432 -342.896Z" fill="white"/>
<path d="M118.432 -342.896L1160 497.5L99.9061 -327.949L118.432 -342.896Z" fill="white"/>
<path d="M2201.57 1337.9L1160 497.5L2220.09 1322.95L2201.57 1337.9Z" fill="white"/>
<path d="M2201.57 1337.9L1160 497.5L2183.04 1352.84L2201.57 1337.9Z" fill="white"/>
<path d="M2201.57 -342.896L1160 497.5L2220.09 -327.949L2201.57 -342.896Z" fill="white"/>
<path d="M2201.57 -342.896L1160 497.5L2183.04 -357.844L2201.57 -342.896Z" fill="white"/>
<path d="M118.432 1337.9L1160 497.5L136.958 1352.84L118.432 1337.9Z" fill="white"/>
<path d="M118.432 1337.9L1160 497.5L99.906 1322.95L118.432 1337.9Z" fill="white"/>
<path d="M-262.809 189.894L1160 497.5L-256.028 169.475L-262.809 189.894Z" fill="white"/>
<path d="M-262.809 189.894L1160 497.5L-269.59 210.313L-262.809 189.894Z" fill="white"/>
<path d="M2582.81 805.107L1160 497.5L2589.59 784.688L2582.81 805.107Z" fill="white"/>
<path d="M2582.81 805.107L1160 497.5L2576.03 825.526L2582.81 805.107Z" fill="white"/>
<path d="M1541.24 -650.503L1160 497.5L1566.55 -645.032L1541.24 -650.503Z" fill="white"/>
<path d="M1541.24 -650.503L1160 497.5L1515.93 -655.974L1541.24 -650.503Z" fill="white"/>
<path d="M778.759 1645.5L1160 497.5L804.066 1650.97L778.759 1645.5Z" fill="white"/>
<path d="M778.759 1645.5L1160 497.5L753.453 1640.03L778.759 1645.5Z" fill="white"/>
<path d="M-115.656 -96.7501L1160 497.5L-102.556 -115.057L-115.656 -96.7501Z" fill="white"/>
<path d="M-115.656 -96.7501L1160 497.5L-128.756 -78.4428L-115.656 -96.7501Z" fill="white"/>
<path d="M2435.66 1091.75L1160 497.5L2448.75 1073.44L2435.66 1091.75Z" fill="white"/>
<path d="M2435.66 1091.75L1160 497.5L2422.56 1110.06L2435.66 1091.75Z" fill="white"/>
<path d="M1896.5 -531.771L1160 497.5L1919.19 -521.202L1896.5 -531.771Z" fill="white"/>
<path d="M1896.5 -531.771L1160 497.5L1873.81 -542.341L1896.5 -531.771Z" fill="white"/>
<path d="M423.5 1526.77L1160 497.5L446.189 1537.34L423.5 1526.77Z" fill="white"/>
<path d="M423.5 1526.77L1160 497.5L400.81 1516.2L423.5 1526.77Z" fill="white"/>
</g>
<defs>
<filter id="filter0_f" x="-353" y="-731" width="3026" height="2457" filterUnits="userSpaceOnUse" color-interpolation-filters="sRGB">
<feFlood flood-opacity="0" result="BackgroundImageFix"/>
<feBlend mode="normal" in="SourceGraphic" in2="BackgroundImageFix" result="shape"/>
<feGaussianBlur stdDeviation="20" result="effect1_foregroundBlur"/>
</filter>
</defs>
</svg>
