<svg width="158" height="144" viewBox="0 0 158 144" fill="none" xmlns="http://www.w3.org/2000/svg">
<mask id="mask0" style="mask-type:alpha" maskUnits="userSpaceOnUse" x="0" y="19" width="127" height="125">
<path fill-rule="evenodd" clip-rule="evenodd" d="M9.44136 79.8704C17.094 75.4521 19.716 65.6667 15.2978 58.014C15.182 57.8136 15.0626 57.6166 14.9397 57.4231L72.7037 24.073L87.864 30.3313L82.1727 47.4736L96.5159 51.3169L95.0387 67.7582L109.864 68.4364L107.923 92.0739L123.766 98.5153L59.9498 135.36C59.9001 135.269 59.8494 135.18 59.7978 135.09C55.3795 127.438 45.594 124.816 37.9414 129.234C37.7048 129.37 37.4731 129.512 37.2462 129.659L8.72584 80.26C8.96624 80.1368 9.20482 80.007 9.44136 79.8704Z" fill="#C4C4C4"/>
</mask>
<g mask="url(#mask0)">
<path fill-rule="evenodd" clip-rule="evenodd" d="M14.5323 57.8675L142.197 -15.8399L142.198 -15.8394C146.559 -8.2851 156.219 -5.69675 163.773 -10.058L192.729 40.096C185.175 44.4575 182.587 54.1168 186.948 61.671L59.2832 135.378C54.9215 127.824 45.2621 125.236 37.7079 129.598L37.7076 129.598L8.75109 79.4439L8.75143 79.4437C16.3058 75.0822 18.8941 65.4224 14.5326 57.8681L14.5323 57.8675Z" fill="url(#paint0_linear)"/>
<path d="M89.4676 40.242L93.434 40.2792L90.7495 37.4429L92.0856 33.7203L88.4786 35.4222L85.3421 33.0964L85.7881 36.9756L82.5107 39.2484L86.4025 39.9526L87.5167 43.6956L89.4676 40.242Z" fill="#212121"/>
<path d="M103.6 32.0818L107.567 32.1191L104.882 29.2827L106.218 25.5602L102.611 27.2621L99.4749 24.9363L99.9209 28.8155L96.6435 31.0882L100.535 31.7925L101.649 35.5354L103.6 32.0818Z" fill="#212121"/>
<path d="M117.735 23.9217L121.702 23.9589L119.017 21.1226L120.353 17.4L116.746 19.1019L113.61 16.7761L114.056 20.6553L110.778 22.9281L114.67 23.6323L115.784 27.3753L117.735 23.9217Z" fill="#212121"/>
<path d="M61.1981 56.5641L65.1644 56.6014L62.48 53.765L63.8161 50.0425L60.2091 51.7444L57.0726 49.4186L57.5185 53.2978L54.2412 55.5705L58.133 56.2748L59.2472 60.0177L61.1981 56.5641Z" fill="#212121"/>
<path d="M75.3309 48.4031L79.2972 48.4404L76.6128 45.604L77.9489 41.8815L74.3419 43.5834L71.2054 41.2576L71.6514 45.1367L68.374 47.4095L72.2658 48.1137L73.38 51.8567L75.3309 48.4031Z" fill="#212121"/>
<path d="M114.212 83.101L118.178 83.1382L115.494 80.3019L116.83 76.5793L113.223 78.2812L110.086 75.9555L110.532 79.8346L107.255 82.1074L111.147 82.8116L112.261 86.5546L114.212 83.101Z" fill="#212121"/>
<path d="M128.345 74.9408L132.311 74.9781L129.626 72.1417L130.963 68.4192L127.356 70.1211L124.219 67.7953L124.665 71.6745L121.388 73.9472L125.279 74.6515L126.394 78.3944L128.345 74.9408Z" fill="#212121"/>
<path d="M85.9422 99.4223L89.9086 99.4595L87.2241 96.6232L88.5602 92.9006L84.9532 94.6025L81.8167 92.2767L82.2627 96.1559L78.9853 98.4287L82.8772 99.1329L83.9913 102.876L85.9422 99.4223Z" fill="#212121"/>
<path d="M100.075 91.2621L104.041 91.2994L101.357 88.463L102.693 84.7405L99.086 86.4424L95.9495 84.1166L96.3955 87.9958L93.1181 90.2685L97.01 90.9728L98.1241 94.7157L100.075 91.2621Z" fill="#212121"/>
<mask id="path-12-inside-1" fill="white">
<path fill-rule="evenodd" clip-rule="evenodd" d="M17.7253 59.0635L141.635 -12.4759C145.74 -5.36589 155.012 -3.03381 162.344 -7.26705L162.344 -7.26719L189.597 39.9365C189.597 39.9366 189.597 39.9366 189.597 39.9367C182.265 44.1699 179.649 53.3654 183.754 60.4754C183.754 60.4755 183.754 60.4755 183.754 60.4756L59.8438 132.015L59.8437 132.015C55.7388 124.905 46.4672 122.573 39.135 126.806L11.8819 79.6023C19.2141 75.369 21.8303 66.1735 17.7253 59.0635Z"/>
</mask>
<path d="M141.635 -12.4759L143.003 -13.2656L142.213 -14.6334L140.846 -13.8437L141.635 -12.4759ZM17.7253 59.0635L16.9356 57.6957L15.5678 58.4854L16.3575 59.8533L17.7253 59.0635ZM162.344 -7.26705L163.134 -5.89921L162.344 -7.26705ZM162.344 -7.26719L163.712 -8.05691L162.922 -9.42475L161.555 -8.63503L162.344 -7.26719ZM189.597 39.9365L190.387 41.3043L191.755 40.5146L190.965 39.1468L189.597 39.9365ZM183.754 60.4756L184.543 61.8434L185.911 61.0537L185.122 59.6858L183.754 60.4756ZM59.8438 132.015L58.476 132.805L59.2657 134.173L60.6336 133.383L59.8438 132.015ZM39.135 126.806L37.7671 127.596L38.5569 128.964L39.9247 128.174L39.135 126.806ZM11.8819 79.6023L11.0922 78.2344L9.72438 79.0242L10.5141 80.392L11.8819 79.6023ZM140.846 -13.8437L16.9356 57.6957L18.5151 60.4314L142.425 -11.108L140.846 -13.8437ZM161.554 -8.63489C154.938 -4.81472 146.649 -6.95042 143.003 -13.2656L140.267 -11.6862C144.831 -3.78135 155.086 -1.2529 163.134 -5.89921L161.554 -8.63489ZM161.555 -8.63503L161.554 -8.63489L163.134 -5.89921L163.134 -5.89935L161.555 -8.63503ZM190.965 39.1468L163.712 -8.05691L160.976 -6.47746L188.229 40.7262L190.965 39.1468ZM190.387 41.3045C190.387 41.3045 190.387 41.3044 190.387 41.3044C190.387 41.3044 190.387 41.3044 190.387 41.3043L188.808 38.5687C188.808 38.5687 188.808 38.5687 188.807 38.5687C188.807 38.5688 188.807 38.5688 188.807 38.5688L190.387 41.3045ZM185.122 59.6857C181.475 53.3705 183.77 45.1247 190.387 41.3045L188.807 38.5688C180.76 43.2151 177.822 53.3603 182.386 61.2651L185.122 59.6857ZM185.122 59.6858L185.122 59.6858L185.122 59.6858C185.122 59.6858 185.122 59.6858 185.122 59.6858C185.122 59.6858 185.122 59.6858 185.122 59.6858C185.122 59.6858 185.122 59.6858 185.122 59.6858L185.122 59.6858C185.122 59.6858 185.122 59.6858 185.122 59.6858C185.122 59.6858 185.122 59.6858 185.122 59.6858C185.122 59.6858 185.122 59.6858 185.122 59.6858C185.122 59.6858 185.122 59.6858 185.122 59.6858C185.122 59.6858 185.122 59.6858 185.122 59.6858C185.122 59.6858 185.122 59.6858 185.122 59.6858C185.122 59.6858 185.122 59.6858 185.122 59.6858C185.122 59.6858 185.122 59.6858 185.122 59.6858C185.122 59.6857 185.122 59.6857 185.122 59.6857C185.122 59.6857 185.122 59.6857 185.122 59.6857C185.122 59.6857 185.122 59.6857 185.122 59.6857C185.122 59.6857 185.122 59.6857 185.122 59.6857C185.122 59.6857 185.122 59.6857 185.122 59.6857C185.122 59.6857 185.122 59.6857 185.122 59.6857L185.122 59.6857C185.122 59.6857 185.122 59.6857 185.122 59.6857C185.122 59.6857 185.122 59.6857 185.122 59.6857C185.122 59.6857 185.122 59.6857 185.122 59.6857L185.122 59.6857L185.122 59.6857L182.386 61.2651L182.386 61.2651L182.386 61.2651C182.386 61.2651 182.386 61.2651 182.386 61.2651C182.386 61.2652 182.386 61.2652 182.386 61.2652C182.386 61.2652 182.386 61.2652 182.386 61.2652L182.386 61.2652C182.386 61.2652 182.386 61.2652 182.386 61.2652C182.386 61.2652 182.386 61.2652 182.386 61.2652C182.386 61.2652 182.386 61.2652 182.386 61.2652C182.386 61.2652 182.386 61.2652 182.386 61.2652C182.386 61.2652 182.386 61.2652 182.386 61.2652C182.386 61.2652 182.386 61.2652 182.386 61.2652C182.386 61.2652 182.386 61.2652 182.386 61.2652C182.386 61.2652 182.386 61.2652 182.386 61.2652C182.386 61.2652 182.386 61.2652 182.386 61.2652C182.386 61.2652 182.386 61.2652 182.386 61.2652C182.386 61.2652 182.386 61.2652 182.386 61.2652C182.386 61.2652 182.386 61.2652 182.386 61.2652C182.386 61.2653 182.386 61.2653 182.386 61.2653C182.386 61.2653 182.386 61.2653 182.386 61.2653L182.386 61.2653C182.386 61.2653 182.386 61.2653 182.386 61.2653C182.386 61.2653 182.386 61.2653 182.386 61.2653C182.386 61.2653 182.386 61.2653 182.386 61.2653L182.386 61.2653L182.386 61.2653L185.122 59.6858ZM60.6336 133.383L184.543 61.8434L182.964 59.1077L59.0541 130.647L60.6336 133.383ZM58.4759 132.805L58.476 132.805L61.2117 131.225L61.2116 131.225L58.4759 132.805ZM39.9247 128.174C46.5414 124.354 54.8298 126.489 58.4759 132.805L61.2116 131.225C56.6477 123.32 46.3929 120.792 38.3452 125.438L39.9247 128.174ZM10.5141 80.392L37.7671 127.596L40.5028 126.016L13.2498 78.8126L10.5141 80.392ZM16.3575 59.8533C20.0036 66.1685 17.7089 74.4143 11.0922 78.2344L12.6717 80.9701C20.7193 76.3238 23.657 66.1786 19.0932 58.2738L16.3575 59.8533Z" fill="#C34DDB" mask="url(#path-12-inside-1)"/>
<rect x="22.8477" y="62.7933" width="1.05296" height="3.15889" rx="0.526482" transform="rotate(-30 22.8477 62.7933)" fill="#C34DDB"/>
<rect x="35.4824" y="84.6788" width="1.05296" height="3.15889" rx="0.526482" transform="rotate(-30 35.4824 84.6788)" fill="#C34DDB"/>
<rect x="26.0078" y="68.2645" width="1.05296" height="3.15889" rx="0.526482" transform="rotate(-30 26.0078 68.2645)" fill="#C34DDB"/>
<rect x="38.6426" y="90.1499" width="1.05296" height="3.15889" rx="0.526482" transform="rotate(-30 38.6426 90.1499)" fill="#C34DDB"/>
<rect x="29.166" y="73.7356" width="1.05296" height="3.15889" rx="0.526482" transform="rotate(-30 29.166 73.7356)" fill="#C34DDB"/>
<rect x="41.8008" y="95.621" width="1.05296" height="3.15889" rx="0.526482" transform="rotate(-30 41.8008 95.621)" fill="#C34DDB"/>
<rect x="32.3242" y="79.2067" width="1.05296" height="3.15889" rx="0.526482" transform="rotate(-30 32.3242 79.2067)" fill="#C34DDB"/>
<rect x="44.9609" y="101.093" width="1.05296" height="3.15889" rx="0.526482" transform="rotate(-30 44.9609 101.093)" fill="#C34DDB"/>
<rect x="48.1191" y="106.564" width="1.05296" height="3.15889" rx="0.526482" transform="rotate(-30 48.1191 106.564)" fill="#C34DDB"/>
<rect x="51.2773" y="112.035" width="1.05296" height="3.15889" rx="0.526482" transform="rotate(-30 51.2773 112.035)" fill="#C34DDB"/>
<rect x="54.4355" y="117.506" width="1.05296" height="3.15889" rx="0.526482" transform="rotate(-30 54.4355 117.506)" fill="#C34DDB"/>
<rect x="57.5957" y="122.977" width="1.05296" height="3.15889" rx="0.526482" transform="rotate(-30 57.5957 122.977)" fill="#C34DDB"/>
<path d="M68.1161 67.4016C68.2833 67.305 68.4627 67.2825 68.6545 67.3339C68.8463 67.3852 68.9905 67.4945 69.087 67.6617L70.4821 70.0782C70.5787 70.2454 70.6012 70.4249 70.5499 70.6167C70.4985 70.8085 70.3892 70.9526 70.222 71.0491L66.2097 73.3656L72.9618 85.0607C73.0583 85.2279 73.0809 85.4073 73.0295 85.5991C72.9781 85.7909 72.8688 85.9351 72.7016 86.0316L69.7152 87.7558C69.548 87.8523 69.3685 87.8749 69.1767 87.8235C68.985 87.7721 68.8408 87.6628 68.7443 87.4957L61.9922 75.8006L57.9798 78.1171C57.8127 78.2137 57.6332 78.2362 57.4414 78.1848C57.2496 78.1335 57.1055 78.0242 57.0089 77.857L55.6138 75.4405C55.5172 75.2733 55.4947 75.0938 55.5461 74.902C55.5974 74.7102 55.7067 74.5661 55.8739 74.4696L68.1161 67.4016ZM80.6091 81.4662C80.4419 81.5627 80.2624 81.5853 80.0707 81.5339C79.8789 81.4825 79.7347 81.3732 79.6382 81.206L71.1355 66.479C71.039 66.3118 71.0164 66.1323 71.0678 65.9405C71.1192 65.7487 71.2285 65.6046 71.3957 65.5081L74.3821 63.7838C74.5493 63.6873 74.7288 63.6648 74.9206 63.7161C75.1124 63.7675 75.2565 63.8768 75.353 64.044L83.8557 78.7711C83.9522 78.9382 83.9748 79.1177 83.9234 79.3095C83.872 79.5013 83.7627 79.6455 83.5956 79.742L80.6091 81.4662ZM87.5764 69.3582C88.0935 70.1134 88.7128 70.6069 89.4344 70.8388C90.1711 71.0619 91.0182 70.897 91.9757 70.3442C92.8876 69.8178 93.4478 69.2613 93.6563 68.6748C93.8649 68.0883 93.9079 67.4961 93.7856 66.898C93.7276 66.587 93.7179 66.3595 93.7564 66.2157C93.7949 66.0719 93.9358 65.9298 94.179 65.7894L97.1654 64.0651C97.3022 63.9862 97.4469 63.9735 97.5995 64.0273C97.7585 64.057 97.8776 64.1403 97.9565 64.2771C98.5292 65.3042 98.7465 66.4351 98.6083 67.6699C98.4766 68.8808 98.016 70.0485 97.2265 71.1731C96.4369 72.2976 95.3887 73.2372 94.0816 73.9918C92.6682 74.8079 91.2792 75.245 89.9146 75.3034C88.5413 75.3465 87.2982 75.0712 86.1854 74.4776C85.0639 73.8687 84.1436 73.0119 83.4247 71.9071C82.9732 71.1952 82.6114 70.6036 82.3393 70.1325C82.0147 69.5701 81.5955 68.809 81.0819 67.8492C80.4694 66.683 80.1843 65.4697 80.2265 64.2091C80.26 62.9334 80.6432 61.7192 81.376 60.5666C82.1152 59.3901 83.1915 58.3938 84.6049 57.5777C85.912 56.8231 87.2498 56.3851 88.6185 56.2636C89.9871 56.1421 91.2331 56.3347 92.3564 56.8412C93.4861 57.3238 94.3525 58.0698 94.9556 59.0793C95.0346 59.2161 95.0516 59.3684 95.0066 59.5362C94.968 59.68 94.8804 59.7915 94.7436 59.8704L91.7572 61.5946C91.514 61.735 91.3205 61.786 91.1766 61.7474C91.0328 61.7089 90.8407 61.5868 90.6003 61.381C90.1436 60.976 89.6091 60.7172 88.997 60.6045C88.3848 60.4919 87.6228 60.6988 86.7109 61.2253C85.7534 61.7781 85.1871 62.4293 85.0119 63.1789C84.852 63.9197 84.9697 64.7028 85.3652 65.5282C85.6332 66.0625 85.9865 66.7096 86.4252 67.4695C86.8464 68.199 87.2301 68.8286 87.5764 69.3582ZM116.499 59.7422C116.579 59.7767 116.65 59.8471 116.712 59.9535C116.791 60.0903 116.808 60.2426 116.763 60.4104C116.724 60.5542 116.637 60.6656 116.5 60.7446L112.875 62.8374C112.678 62.9515 112.488 63.01 112.308 63.013C112.118 63.0007 111.895 62.9473 111.638 62.8527L104.196 59.9146L107.276 65.2491C107.373 65.4163 107.395 65.5958 107.344 65.7876C107.293 65.9794 107.183 66.1235 107.016 66.22L104.03 67.9443C103.863 68.0408 103.683 68.0633 103.491 68.012C103.3 67.9606 103.155 67.8513 103.059 67.6841L94.5562 52.957C94.4597 52.7899 94.4371 52.6104 94.4885 52.4186C94.5399 52.2268 94.6492 52.0827 94.8164 51.9861L97.8028 50.2619C97.97 50.1654 98.1495 50.1428 98.3413 50.1942C98.533 50.2456 98.6772 50.3549 98.7737 50.5221L101.551 55.3323L102.72 48.0915C102.754 47.8694 102.805 47.6776 102.874 47.5162C102.943 47.3548 103.099 47.2039 103.343 47.0635L106.899 45.0102C107.036 44.9313 107.18 44.9187 107.333 44.9724C107.492 45.0022 107.611 45.0854 107.69 45.2222C107.743 45.3134 107.768 45.4102 107.766 45.5125L106.11 55.6483L116.499 59.7422ZM119.391 50.8077L125.911 47.0433C126.078 46.9468 126.187 46.8027 126.239 46.6109C126.29 46.4191 126.268 46.2396 126.171 46.0724L124.776 43.6559C124.679 43.4887 124.535 43.3795 124.343 43.3281C124.152 43.2767 123.972 43.2992 123.805 43.3958L117.285 47.1601L115.863 44.698L122.885 40.6441C123.052 40.5476 123.162 40.4034 123.213 40.2116C123.264 40.0198 123.242 39.8404 123.145 39.6732L121.75 37.2567C121.654 37.0895 121.509 36.9802 121.318 36.9288C121.126 36.8774 120.946 36.9 120.779 36.9965L110.156 43.13C109.988 43.2265 109.879 43.3707 109.828 43.5625C109.776 43.7543 109.799 43.9337 109.895 44.1009L118.398 58.828C118.495 58.9952 118.639 59.1045 118.831 59.1559C119.022 59.2072 119.202 59.1847 119.369 59.0882L130.175 52.8493C130.342 52.7528 130.451 52.6087 130.503 52.4169C130.554 52.2251 130.532 52.0456 130.435 51.8784L129.04 49.4619C128.943 49.2947 128.799 49.1855 128.607 49.1341C128.416 49.0827 128.236 49.1053 128.069 49.2018L120.865 53.361L119.391 50.8077ZM135.907 28.2625C136.074 28.1659 136.254 28.1434 136.445 28.1948C136.637 28.2462 136.781 28.3554 136.878 28.5226L138.273 30.9391C138.37 31.1063 138.392 31.2858 138.341 31.4776C138.289 31.6694 138.18 31.8135 138.013 31.91L134.001 34.2266L140.753 45.9216C140.849 46.0888 140.872 46.2683 140.82 46.46C140.769 46.6518 140.66 46.796 140.493 46.8925L137.506 48.6167C137.339 48.7132 137.159 48.7358 136.968 48.6844C136.776 48.633 136.632 48.5237 136.535 48.3566L129.783 36.6615L125.771 38.9781C125.604 39.0746 125.424 39.0971 125.232 39.0458C125.04 38.9944 124.896 38.8851 124.8 38.7179L123.405 36.3014C123.308 36.1342 123.286 35.9547 123.337 35.7629C123.388 35.5712 123.498 35.427 123.665 35.3305L135.907 28.2625Z" fill="#212121"/>
<path d="M28.4917 86.2487C28.3448 86.3481 28.1017 86.4957 27.7625 86.6916C27.4288 86.8843 27.1849 87.0178 27.0308 87.0922C26.3576 87.4298 25.6994 87.5216 25.0561 87.3678C24.416 87.2194 23.8717 86.7567 23.4231 85.9798C22.9746 85.2029 22.8445 84.4974 23.0329 83.8634C23.2244 83.2348 23.6347 82.7135 24.2636 82.2992C24.5528 82.1177 24.7904 81.9733 24.9764 81.8659C25.1624 81.7585 25.4118 81.6218 25.7245 81.4558C26.3977 81.1182 27.0543 81.0236 27.6945 81.172C28.3377 81.3259 28.8836 81.7913 29.3322 82.5682C29.7808 83.3451 29.9093 84.0479 29.7177 84.6764C29.5293 85.3104 29.1207 85.8345 28.4917 86.2487ZM27.5741 84.7541C27.8655 84.564 28.0554 84.3559 28.1437 84.1298C28.2375 83.9005 28.196 83.6327 28.0191 83.3263C27.8422 83.0199 27.631 82.85 27.3856 82.8167C27.1456 82.7801 26.8704 82.8405 26.56 82.9978C26.2583 83.1575 26.0281 83.2831 25.8694 83.3747C25.7217 83.46 25.4923 83.5997 25.1813 83.7939C24.8867 83.9785 24.6925 84.1855 24.5987 84.4147C24.5135 84.6463 24.5594 84.9153 24.7363 85.2217C24.9131 85.5281 25.1216 85.6995 25.3615 85.7361C25.6101 85.7749 25.888 85.713 26.1953 85.5502C26.3603 85.4695 26.5959 85.3407 26.9023 85.1638C27.2087 84.9869 27.4326 84.8504 27.5741 84.7541ZM30.1394 88.4204C30.1564 88.3741 30.1923 88.3351 30.247 88.3035C30.3236 88.2593 30.4012 88.2546 30.4797 88.2896L32.8526 89.2722C32.8699 89.2769 32.9076 89.2916 32.9656 89.3164C33.0269 89.3467 33.0827 89.3801 33.133 89.4167C33.1833 89.4534 33.2227 89.4963 33.2511 89.5455L33.8292 90.5468C33.864 90.607 33.8721 90.6716 33.8536 90.7406C33.8351 90.8097 33.7957 90.8616 33.7355 90.8963L28.4338 93.9573C28.3736 93.992 28.309 94.0001 28.24 93.9816C28.1709 93.9631 28.119 93.9238 28.0843 93.8636L27.4636 92.7885C27.4288 92.7283 27.4207 92.6637 27.4392 92.5947C27.4577 92.5256 27.497 92.4737 27.5572 92.439L31.1437 90.3683L29.8412 89.8181C29.7831 89.7933 29.7398 89.7563 29.7114 89.707C29.6703 89.6359 29.6673 89.5611 29.7022 89.4826L30.1394 88.4204ZM32.4718 98.4306L33.6612 100.491C33.6959 100.551 33.704 100.615 33.6855 100.684C33.667 100.753 33.6277 100.805 33.5675 100.84L32.6976 101.342C32.6374 101.377 32.5728 101.385 32.5037 101.367C32.4347 101.348 32.3828 101.309 32.348 101.249L29.8462 96.9153C29.8115 96.8552 29.8033 96.7906 29.8218 96.7215C29.8403 96.6525 29.8797 96.6006 29.9399 96.5658L30.6457 96.1583C30.8536 96.0383 31.0608 96.0244 31.2673 96.1168L34.4404 97.5567C34.6728 97.6559 34.8595 97.7013 35.0005 97.6929C35.1501 97.6867 35.2906 97.6457 35.4219 97.5699C35.5587 97.491 35.667 97.3627 35.747 97.1853C35.8301 97.0133 35.7942 96.7933 35.6394 96.5252C35.532 96.3391 35.4084 96.2135 35.2687 96.1483C35.1375 96.0854 35.0296 96.0565 34.945 96.0616C34.869 96.069 34.7512 96.086 34.5914 96.1125C34.5045 96.1263 34.4316 96.1137 34.3726 96.0747C34.3137 96.0358 34.2605 95.9753 34.2131 95.8932L33.6303 94.8838C33.6019 94.8345 33.593 94.7813 33.6038 94.724C33.6231 94.6691 33.6574 94.6274 33.7066 94.599C34.0358 94.4236 34.3943 94.3369 34.7822 94.3391C35.1756 94.3382 35.5632 94.4536 35.9451 94.6854C36.3324 94.9141 36.6667 95.2719 36.9478 95.7588C37.2163 96.2239 37.3566 96.6754 37.3688 97.1134C37.3864 97.5483 37.2964 97.9358 37.0989 98.276C36.91 98.6185 36.6432 98.8892 36.2985 99.0882C35.9648 99.2809 35.6169 99.3796 35.2548 99.3844C34.9015 99.3914 34.4849 99.2891 34.0052 99.0773L32.4718 98.4306ZM42.1344 104.932C42.1692 104.992 42.1773 105.057 42.1588 105.126C42.1403 105.195 42.101 105.247 42.0408 105.281L41.1708 105.784C41.0888 105.831 40.9614 105.832 40.7888 105.785L39.2142 105.37C39.3638 105.882 39.3788 106.344 39.2592 106.756C39.1396 107.168 38.8746 107.492 38.4642 107.729C37.8569 108.08 37.2714 108.133 36.7076 107.89C36.1471 107.652 35.6441 107.147 35.1987 106.376C34.9112 105.878 34.7367 105.399 34.6751 104.938C34.6135 104.478 34.6489 104.078 34.7814 103.739C34.9194 103.396 35.1247 103.139 35.3974 102.967C35.4467 102.939 35.4972 102.931 35.549 102.945C35.6094 102.961 35.6538 102.994 35.6822 103.043L36.2792 104.078C36.3298 104.165 36.3544 104.246 36.3532 104.319C36.3574 104.39 36.3473 104.48 36.3227 104.589C36.2874 104.755 36.2755 104.911 36.2871 105.058C36.3074 105.207 36.3823 105.393 36.5118 105.617C36.6697 105.891 36.8426 106.083 37.0304 106.194C37.2213 106.309 37.4071 106.315 37.5876 106.211C37.7682 106.107 37.856 105.943 37.8511 105.72C37.8493 105.502 37.7695 105.256 37.6115 104.983L37.2183 104.301C37.1835 104.241 37.1754 104.177 37.1939 104.108C37.2124 104.038 37.2517 103.987 37.3119 103.952L38.0177 103.544C38.0724 103.513 38.1296 103.498 38.1891 103.5C38.2519 103.508 38.3264 103.523 38.4127 103.546L39.7931 103.909L38.5564 101.767C38.5216 101.707 38.5135 101.642 38.532 101.573C38.5505 101.504 38.5899 101.452 38.65 101.418L39.52 100.915C39.5802 100.88 39.6448 100.872 39.7138 100.891C39.7829 100.909 39.8348 100.949 39.8695 101.009L42.1344 104.932ZM39.7902 114.139C39.7554 114.079 39.7473 114.014 39.7658 113.945C39.7843 113.876 39.8237 113.824 39.8838 113.789L40.721 113.306L39.2284 110.721C39.1936 110.661 39.1855 110.596 39.204 110.527C39.2225 110.458 39.2619 110.406 39.322 110.371L40.192 109.869C40.3342 109.787 40.4724 109.755 40.6065 109.772L45.1173 110.439C45.2059 110.454 45.2695 110.476 45.308 110.504C45.3552 110.536 45.3993 110.587 45.4403 110.658L46.1558 111.897C46.1906 111.957 46.1987 112.022 46.1802 112.091C46.1617 112.16 46.1224 112.212 46.0622 112.247L42.9107 114.066L43.3182 114.772C43.3529 114.832 43.361 114.897 43.3425 114.966C43.324 115.035 43.2847 115.087 43.2245 115.122L42.3546 115.624C42.2944 115.659 42.2298 115.667 42.1607 115.648C42.0917 115.63 42.0398 115.59 42.0051 115.53L41.5976 114.824L40.7604 115.308C40.7003 115.342 40.6356 115.35 40.5666 115.332C40.4976 115.313 40.4457 115.274 40.4109 115.214L39.7902 114.139ZM43.5679 111.717L41.366 111.391L42.0578 112.589L43.5679 111.717Z" fill="#212121"/>
<g style="mix-blend-mode:color">
<rect x="-11.373" y="11.4194" width="148" height="132" fill="url(#paint1_linear)"/>
</g>
</g>
<path d="M99.627 38.4199L101.625 28.9203L108.127 38.4199H99.627Z" fill="#C4C4C4"/>
<path d="M118.127 79.4194L122.627 63.9194L129.127 76.9194L118.127 79.4194Z" fill="#C4C4C4"/>
<defs>
<linearGradient id="paint0_linear" x1="78.3644" y1="21.0139" x2="123.115" y2="98.5249" gradientUnits="userSpaceOnUse">
<stop stop-color="#F2ABFF"/>
<stop offset="1" stop-color="#FFEBAF"/>
</linearGradient>
<linearGradient id="paint1_linear" x1="62.627" y1="11.4194" x2="62.627" y2="143.419" gradientUnits="userSpaceOnUse">
<stop stop-color="white"/>
<stop offset="1" stop-color="#F7F7F7"/>
</linearGradient>
</defs>
</svg>
