<svg width="161" height="146" viewBox="0 0 161 146" fill="none" xmlns="http://www.w3.org/2000/svg">
<mask id="mask0" style="mask-type:alpha" maskUnits="userSpaceOnUse" x="30" y="18" width="131" height="128">
<path fill-rule="evenodd" clip-rule="evenodd" d="M151.908 82.0187C151.684 81.903 151.462 81.7815 151.242 81.6541C143.589 77.2359 140.967 67.4504 145.385 59.7977C145.535 59.5388 145.69 59.2856 145.852 59.0382L77.6397 19.6559L80.2329 36.1642L62.9746 40.0565L66.3849 54.1498L51.8406 61.3411L58.2329 74.2693L37.2246 84.6568L39.1349 101.348L100.831 136.968C100.849 136.937 100.867 136.905 100.885 136.874C105.303 129.221 115.089 126.599 122.742 131.018C122.962 131.145 123.179 131.277 123.391 131.413L151.908 82.0187Z" fill="#C4C4C4"/>
</mask>
<g mask="url(#mask0)">
<path fill-rule="evenodd" clip-rule="evenodd" d="M18.4209 -14.3258L146.086 59.3816L146.086 59.3821C141.724 66.9364 144.312 76.596 151.866 80.9576L122.91 131.112C115.356 126.75 105.697 129.339 101.335 136.892L-26.33 63.1851C-21.9689 55.6308 -24.5573 45.9714 -32.1115 41.61L-32.1119 41.6098L-3.15538 -8.54427L-3.15504 -8.54408C4.39933 -4.18256 14.0591 -6.77088 18.4206 -14.3252L18.4209 -14.3258Z" fill="url(#paint0_linear)"/>
<path d="M71.1522 41.7559L73.1031 45.2095L74.2173 41.4665L78.1091 40.7623L74.8317 38.4895L75.2777 34.6103L72.1412 36.9361L68.5342 35.2342L69.8703 38.9568L67.1858 41.7931L71.1522 41.7559Z" fill="#212121"/>
<path d="M85.285 49.9169L87.2359 53.3705L88.3501 49.6275L92.2419 48.9233L88.9645 46.6505L89.4105 42.7714L86.274 45.0971L82.667 43.3952L84.0031 47.1178L81.3187 49.9541L85.285 49.9169Z" fill="#212121"/>
<path d="M99.4198 58.0773L101.371 61.5309L102.485 57.7879L106.377 57.0837L103.099 54.8109L103.545 50.9318L100.409 53.2575L96.8018 51.5556L98.1378 55.2782L95.4534 58.1145L99.4198 58.0773Z" fill="#212121"/>
<path d="M42.8827 25.4359L44.8336 28.8895L45.9477 25.1466L49.8396 24.4423L46.5622 22.1696L47.0081 18.2904L43.8717 20.6162L40.2647 18.9143L41.6007 22.6368L38.9163 25.4732L42.8827 25.4359Z" fill="#212121"/>
<path d="M57.0174 33.5955L58.9683 37.0491L60.0825 33.3061L63.9743 32.6019L60.697 30.3291L61.1429 26.4499L58.0064 28.7757L54.3995 27.0738L55.7355 30.7964L53.0511 33.6327L57.0174 33.5955Z" fill="#212121"/>
<path d="M46.4061 84.6151L48.357 88.0687L49.4712 84.3258L53.363 83.6215L50.0856 81.3488L50.5316 77.4696L47.3951 79.7954L43.7881 78.0935L45.1242 81.816L42.4397 84.6524L46.4061 84.6151Z" fill="#212121"/>
<path d="M60.5409 92.7755L62.4918 96.2291L63.6059 92.4862L67.4978 91.7819L64.2204 89.5092L64.6663 85.63L61.5299 87.9558L57.9229 86.2539L59.2589 89.9764L56.5745 92.8128L60.5409 92.7755Z" fill="#212121"/>
<path d="M74.6756 100.936L76.6266 104.39L77.7407 100.647L81.6325 99.9428L78.3552 97.6701L78.8011 93.7909L75.6646 96.1167L72.0577 94.4148L73.3937 98.1373L70.7093 100.974L74.6756 100.936Z" fill="#212121"/>
<path d="M32.2713 76.4547L34.2223 79.9083L35.3364 76.1654L39.2282 75.4611L35.9509 73.1884L36.3968 69.3092L33.2603 71.635L29.6534 69.9331L30.9894 73.6556L28.305 76.492L32.2713 76.4547Z" fill="#212121"/>
<mask id="path-12-inside-1" fill="white">
<path fill-rule="evenodd" clip-rule="evenodd" d="M18.9812 -10.9617L142.891 60.5777C138.786 67.6877 141.402 76.8832 148.735 81.1164L148.735 81.1166L121.482 128.32C121.482 128.32 121.482 128.32 121.481 128.32C114.149 124.087 104.878 126.419 100.773 133.529C100.773 133.529 100.773 133.529 100.773 133.529L-23.1374 61.9897L-23.1373 61.9895C-19.0323 54.8795 -21.6485 45.684 -28.9807 41.4508L-1.72756 -5.7529C5.60462 -1.51968 14.8762 -3.85175 18.9812 -10.9617Z"/>
</mask>
<path d="M142.891 60.5777L144.259 61.3674L145.049 59.9996L143.681 59.2099L142.891 60.5777ZM18.9812 -10.9617L19.7709 -12.3296L18.4031 -13.1193L17.6134 -11.7515L18.9812 -10.9617ZM148.735 81.1166L150.103 81.9063L150.892 80.5385L149.524 79.7487L148.735 81.1166ZM121.482 128.32L120.692 129.688L122.06 130.478L122.85 129.11L121.482 128.32ZM100.773 133.529L99.9828 134.897L101.351 135.687L102.14 134.319L100.773 133.529ZM-23.1374 61.9897L-24.5052 61.2L-25.2949 62.5678L-23.9271 63.3575L-23.1374 61.9897ZM-28.9807 41.4508L-30.3485 40.6611L-31.1382 42.0289L-29.7704 42.8186L-28.9807 41.4508ZM-1.72756 -5.7529L-0.937843 -7.12074L-2.30568 -7.91046L-3.0954 -6.54262L-1.72756 -5.7529ZM143.681 59.2099L19.7709 -12.3296L18.1915 -9.5939L142.101 61.9455L143.681 59.2099ZM149.524 79.7486C142.908 75.9284 140.613 67.6826 144.259 61.3674L141.523 59.788C136.959 67.6928 139.897 77.838 147.945 82.4843L149.524 79.7486ZM149.524 79.7487L149.524 79.7486L147.945 82.4843L147.945 82.4844L149.524 79.7487ZM122.85 129.11L150.103 81.9063L147.367 80.3268L120.114 127.531L122.85 129.11ZM120.692 129.688C120.692 129.688 120.692 129.688 120.692 129.688C120.692 129.688 120.692 129.688 120.692 129.688L122.271 126.952C122.271 126.952 122.271 126.952 122.271 126.952C122.271 126.952 122.271 126.952 122.271 126.952L120.692 129.688ZM102.141 134.319C105.787 128.003 114.075 125.868 120.692 129.688L122.271 126.952C114.224 122.306 103.969 124.834 99.4048 132.739L102.141 134.319ZM102.14 134.319L102.14 134.319L102.14 134.319C102.14 134.319 102.14 134.319 102.14 134.319C102.14 134.319 102.14 134.319 102.14 134.319C102.14 134.319 102.14 134.319 102.14 134.319L102.14 134.319C102.14 134.319 102.14 134.319 102.14 134.319C102.14 134.319 102.14 134.319 102.14 134.319C102.14 134.319 102.14 134.319 102.14 134.319C102.14 134.319 102.14 134.319 102.14 134.319C102.14 134.319 102.14 134.319 102.14 134.319C102.14 134.319 102.14 134.319 102.14 134.319C102.14 134.319 102.14 134.319 102.14 134.319C102.14 134.319 102.14 134.319 102.14 134.319C102.14 134.319 102.14 134.319 102.14 134.319C102.14 134.319 102.14 134.319 102.14 134.319C102.14 134.319 102.14 134.319 102.14 134.319C102.14 134.319 102.14 134.319 102.14 134.319C102.14 134.319 102.14 134.319 102.14 134.319C102.14 134.319 102.14 134.319 102.14 134.319L102.14 134.319C102.14 134.319 102.14 134.319 102.14 134.319C102.14 134.319 102.14 134.319 102.14 134.319C102.14 134.319 102.14 134.319 102.14 134.319L102.14 134.319L102.141 134.319L99.4048 132.739L99.4048 132.739L99.4048 132.739C99.4048 132.739 99.4048 132.739 99.4048 132.739C99.4048 132.739 99.4048 132.739 99.4048 132.739C99.4048 132.739 99.4048 132.739 99.4048 132.739L99.4048 132.739C99.4048 132.739 99.4048 132.739 99.4048 132.739C99.4048 132.739 99.4048 132.739 99.4048 132.739C99.4048 132.739 99.4048 132.739 99.4048 132.739C99.4048 132.739 99.4048 132.739 99.4048 132.739C99.4048 132.739 99.4048 132.739 99.4048 132.739C99.4048 132.739 99.4048 132.739 99.4048 132.739C99.4048 132.739 99.4048 132.739 99.4048 132.739C99.4048 132.739 99.4048 132.739 99.4048 132.739C99.4048 132.739 99.4048 132.739 99.4048 132.739C99.4048 132.739 99.4048 132.739 99.4048 132.739C99.4047 132.739 99.4047 132.739 99.4047 132.739C99.4047 132.739 99.4047 132.739 99.4047 132.739C99.4047 132.739 99.4047 132.739 99.4047 132.739C99.4047 132.739 99.4047 132.739 99.4047 132.739L99.4047 132.739C99.4047 132.739 99.4047 132.739 99.4047 132.739C99.4047 132.739 99.4047 132.739 99.4047 132.739C99.4047 132.739 99.4047 132.739 99.4047 132.739L99.4047 132.739L99.4047 132.739L102.14 134.319ZM-23.9271 63.3575L99.9828 134.897L101.562 132.161L-22.3476 60.6218L-23.9271 63.3575ZM-24.5051 61.1998L-24.5052 61.2L-21.7695 62.7794L-21.7694 62.7792L-24.5051 61.1998ZM-29.7704 42.8186C-23.1537 46.6388 -20.859 54.8846 -24.5051 61.1998L-21.7694 62.7792C-17.2056 54.8744 -20.1433 44.7292 -28.191 40.0829L-29.7704 42.8186ZM-3.0954 -6.54262L-30.3485 40.6611L-27.6128 42.2405L-0.359724 -4.96318L-3.0954 -6.54262ZM17.6134 -11.7515C13.9673 -5.43628 5.67888 -3.30059 -0.937843 -7.12074L-2.51728 -4.38506C5.53035 0.261229 15.7852 -2.26722 20.349 -10.172L17.6134 -11.7515Z" fill="#C34DDB" mask="url(#path-12-inside-1)"/>
<rect x="136.857" y="63.7812" width="1.05296" height="3.15889" rx="0.526482" transform="rotate(30 136.857 63.7812)" fill="#C34DDB"/>
<rect x="124.223" y="85.666" width="1.05296" height="3.15889" rx="0.526482" transform="rotate(30 124.223 85.666)" fill="#C34DDB"/>
<rect x="133.699" y="69.2523" width="1.05296" height="3.15889" rx="0.526482" transform="rotate(30 133.699 69.2523)" fill="#C34DDB"/>
<rect x="121.064" y="91.1375" width="1.05296" height="3.15889" rx="0.526482" transform="rotate(30 121.064 91.1375)" fill="#C34DDB"/>
<rect x="130.541" y="74.7238" width="1.05296" height="3.15889" rx="0.526482" transform="rotate(30 130.541 74.7238)" fill="#C34DDB"/>
<rect x="117.904" y="96.6088" width="1.05296" height="3.15889" rx="0.526482" transform="rotate(30 117.904 96.6088)" fill="#C34DDB"/>
<rect x="127.381" y="80.1942" width="1.05296" height="3.15889" rx="0.526482" transform="rotate(30 127.381 80.1942)" fill="#C34DDB"/>
<rect x="114.746" y="102.081" width="1.05296" height="3.15889" rx="0.526482" transform="rotate(30 114.746 102.081)" fill="#C34DDB"/>
<rect x="111.586" y="107.552" width="1.05296" height="3.15889" rx="0.526482" transform="rotate(30 111.586 107.552)" fill="#C34DDB"/>
<rect x="108.428" y="113.023" width="1.05296" height="3.15889" rx="0.526482" transform="rotate(30 108.428 113.023)" fill="#C34DDB"/>
<rect x="105.27" y="118.494" width="1.05296" height="3.15889" rx="0.526482" transform="rotate(30 105.27 118.494)" fill="#C34DDB"/>
<rect x="102.109" y="123.966" width="1.05296" height="3.15889" rx="0.526482" transform="rotate(30 102.109 123.966)" fill="#C34DDB"/>
<path d="M36.957 36.8461C37.1242 36.9427 37.2335 37.0868 37.2848 37.2786C37.3362 37.4704 37.3137 37.6499 37.2171 37.817L35.822 40.2336C35.7254 40.4007 35.5813 40.51 35.3895 40.5614C35.1977 40.6128 35.0182 40.5902 34.8511 40.4937L30.8387 38.1772L24.0866 49.8722C23.9901 50.0394 23.8459 50.1487 23.6542 50.2001C23.4624 50.2515 23.2829 50.2289 23.1157 50.1324L20.1293 48.4081C19.9621 48.3116 19.8528 48.1675 19.8014 47.9757C19.75 47.7839 19.7726 47.6044 19.8691 47.4372L26.6212 35.7422L22.6089 33.4257C22.4417 33.3292 22.3324 33.185 22.281 32.9932C22.2297 32.8014 22.2522 32.622 22.3487 32.4548L23.7439 30.0383C23.8404 29.8711 23.9846 29.7618 24.1764 29.7104C24.3682 29.659 24.5476 29.6816 24.7148 29.7781L36.957 36.8461ZM31.0232 54.6977C30.856 54.6012 30.7467 54.4571 30.6953 54.2653C30.6439 54.0735 30.6665 53.894 30.763 53.7268L39.2657 38.9998C39.3622 38.8326 39.5064 38.7233 39.6982 38.6719C39.8899 38.6205 40.0694 38.6431 40.2366 38.7396L43.2231 40.4638C43.3902 40.5604 43.4995 40.7045 43.5509 40.8963C43.6023 41.0881 43.5797 41.2676 43.4832 41.4347L34.9805 56.1618C34.884 56.329 34.7399 56.4383 34.5481 56.4897C34.3563 56.5411 34.1768 56.5185 34.0096 56.422L31.0232 54.6977ZM44.9927 54.6776C44.5972 55.503 44.4794 56.2861 44.6394 57.0269C44.8146 57.7765 45.3809 58.4277 46.3384 58.9805C47.2503 59.507 48.0123 59.7139 48.6245 59.6013C49.2366 59.4886 49.7711 59.2298 50.2278 58.8248C50.4682 58.6191 50.6603 58.4969 50.8041 58.4584C50.948 58.4198 51.1415 58.4708 51.3846 58.6112L54.3711 60.3354C54.5079 60.4144 54.5912 60.5334 54.6209 60.6924C54.6747 60.845 54.662 60.9897 54.5831 61.1265C53.98 62.136 53.1092 62.8896 51.9707 63.3874C50.8562 63.8787 49.6146 64.0637 48.246 63.9422C46.8773 63.8208 45.5395 63.3827 44.2324 62.6281C42.819 61.812 41.7459 60.8277 41.0131 59.6751C40.2891 58.5073 39.906 57.2932 39.8637 56.0327C39.8302 54.7569 40.1121 53.5316 40.7094 52.3566C41.1002 51.6095 41.4316 51.0004 41.7036 50.5293C42.0283 49.967 42.4778 49.2234 43.0522 48.2987C43.7559 47.1851 44.6642 46.3315 45.777 45.7379C46.8985 45.129 48.1416 44.8538 49.5062 44.9121C50.8947 44.964 52.2957 45.398 53.7091 46.214C55.0162 46.9686 56.0644 47.9082 56.8539 49.0328C57.6435 50.1573 58.0997 51.3326 58.2227 52.5587C58.3696 53.7783 58.1567 54.9017 57.584 55.9287C57.505 56.0655 57.3817 56.1564 57.2138 56.2013C57.07 56.2399 56.9297 56.2197 56.7929 56.1407L53.8065 54.4165C53.5633 54.2761 53.4224 54.1339 53.3839 53.9901C53.3454 53.8463 53.3551 53.6188 53.4131 53.3078C53.5354 52.7098 53.4924 52.1175 53.2838 51.531C53.0753 50.9445 52.5151 50.3881 51.6032 49.8616C50.6457 49.3088 49.7986 49.1439 49.0618 49.367C48.3403 49.5989 47.721 50.0924 47.2039 50.8477C46.8752 51.3468 46.4915 51.9764 46.0527 52.7363C45.6315 53.4658 45.2782 54.1129 44.9927 54.6776ZM67.7815 74.9171C67.792 75.0042 67.7665 75.101 67.7051 75.2073C67.6261 75.3441 67.5027 75.435 67.3349 75.48C67.1911 75.5185 67.0508 75.4983 66.914 75.4193L63.2892 73.3266C63.0916 73.2125 62.9464 73.078 62.8535 72.923C62.7694 72.7528 62.7039 72.5327 62.6573 72.2626L61.4811 64.3492L58.4012 69.6838C58.3047 69.8509 58.1605 69.9602 57.9688 70.0116C57.777 70.063 57.5975 70.0404 57.4303 69.9439L54.4439 68.2197C54.2767 68.1232 54.1674 67.979 54.116 67.7872C54.0646 67.5954 54.0872 67.416 54.1837 67.2488L62.6864 52.5217C62.7829 52.3545 62.9271 52.2452 63.1188 52.1939C63.3106 52.1425 63.4901 52.165 63.6573 52.2616L66.6437 53.9858C66.8109 54.0823 66.9202 54.2265 66.9716 54.4182C67.023 54.61 67.0004 54.7895 66.9039 54.9567L64.1267 59.7669L70.982 57.1592C71.1914 57.0774 71.3832 57.026 71.5574 57.0051C71.7316 56.9841 71.9403 57.0438 72.1835 57.1842L75.7399 59.2374C75.8767 59.3164 75.9599 59.4354 75.9897 59.5945C76.0434 59.7471 76.0308 59.8918 75.9519 60.0285C75.8992 60.1197 75.8281 60.1902 75.7387 60.2398L66.1328 63.8736L67.7815 74.9171ZM76.9651 72.9545L83.4852 76.7189C83.6524 76.8154 83.8318 76.838 84.0236 76.7866C84.2154 76.7352 84.3596 76.6259 84.4561 76.4587L85.8512 74.0422C85.9478 73.875 85.9703 73.6955 85.9189 73.5037C85.8676 73.312 85.7583 73.1678 85.5911 73.0713L79.0711 69.3069L80.4926 66.8448L87.5141 70.8987C87.6813 70.9953 87.8608 71.0178 88.0526 70.9664C88.2444 70.9151 88.3885 70.8058 88.485 70.6386L89.8802 68.2221C89.9767 68.0549 89.9993 67.8754 89.9479 67.6836C89.8965 67.4918 89.7872 67.3477 89.6201 67.2512L78.9965 61.1177C78.8293 61.0211 78.6498 60.9986 78.4581 61.05C78.2663 61.1013 78.1221 61.2106 78.0256 61.3778L69.5229 76.1049C69.4264 76.2721 69.4038 76.4515 69.4552 76.6433C69.5066 76.8351 69.6159 76.9793 69.7831 77.0758L80.589 83.3146C80.7562 83.4111 80.9357 83.4337 81.1275 83.3823C81.3192 83.3309 81.4634 83.2216 81.5599 83.0544L82.9551 80.6379C83.0516 80.4707 83.0742 80.2913 83.0228 80.0995C82.9714 79.9077 82.8621 79.7635 82.6949 79.667L75.491 75.5078L76.9651 72.9545ZM104.748 75.9852C104.915 76.0817 105.024 76.2259 105.076 76.4177C105.127 76.6095 105.105 76.7889 105.008 76.9561L103.613 79.3726C103.516 79.5398 103.372 79.6491 103.18 79.7005C102.989 79.7519 102.809 79.7293 102.642 79.6328L98.6296 77.3163L91.8775 89.0113C91.781 89.1785 91.6368 89.2878 91.445 89.3392C91.2532 89.3905 91.0738 89.368 90.9066 89.2715L87.9201 87.5472C87.753 87.4507 87.6437 87.3065 87.5923 87.1148C87.5409 86.923 87.5635 86.7435 87.66 86.5763L94.4121 74.8813L90.3998 72.5648C90.2326 72.4683 90.1233 72.3241 90.0719 72.1323C90.0205 71.9405 90.0431 71.761 90.1396 71.5939L91.5348 69.1774C91.6313 69.0102 91.7755 68.9009 91.9673 68.8495C92.159 68.7981 92.3385 68.8207 92.5057 68.9172L104.748 75.9852Z" fill="#212121"/>
<path d="M118.801 110.841C118.961 110.919 119.21 111.055 119.549 111.251C119.883 111.444 120.121 111.588 120.262 111.684C120.891 112.099 121.3 112.623 121.488 113.257C121.68 113.885 121.551 114.588 121.103 115.365C120.654 116.142 120.108 116.607 119.465 116.761C118.825 116.91 118.168 116.815 117.495 116.477C117.193 116.318 116.949 116.184 116.763 116.077C116.577 115.969 116.334 115.822 116.034 115.634C115.405 115.22 114.995 114.698 114.803 114.07C114.615 113.436 114.745 112.73 115.194 111.953C115.642 111.176 116.187 110.714 116.827 110.565C117.47 110.412 118.128 110.503 118.801 110.841ZM117.966 112.383C117.655 112.226 117.38 112.165 117.14 112.202C116.895 112.235 116.684 112.405 116.507 112.712C116.33 113.018 116.288 113.286 116.382 113.515C116.47 113.741 116.66 113.949 116.952 114.139C117.241 114.321 117.465 114.457 117.623 114.549C117.771 114.634 118.007 114.763 118.331 114.935C118.638 115.098 118.914 115.163 119.16 115.129C119.403 115.087 119.613 114.913 119.79 114.607C119.966 114.3 120.011 114.034 119.922 113.808C119.832 113.573 119.639 113.364 119.345 113.179C119.192 113.076 118.963 112.937 118.656 112.76C118.35 112.583 118.12 112.457 117.966 112.383ZM119.858 108.328C119.81 108.337 119.758 108.325 119.703 108.293C119.627 108.249 119.584 108.184 119.575 108.099L119.239 105.553C119.235 105.535 119.229 105.495 119.221 105.433C119.217 105.364 119.218 105.299 119.224 105.237C119.231 105.176 119.248 105.12 119.277 105.071L119.855 104.07C119.89 104.009 119.941 103.97 120.01 103.952C120.08 103.933 120.144 103.941 120.204 103.976L125.506 107.037C125.566 107.072 125.606 107.124 125.624 107.193C125.643 107.262 125.634 107.326 125.6 107.386L124.979 108.462C124.944 108.522 124.892 108.561 124.823 108.58C124.754 108.598 124.69 108.59 124.629 108.555L121.043 106.485L121.218 107.888C121.225 107.95 121.215 108.006 121.186 108.056C121.145 108.127 121.082 108.167 120.997 108.176L119.858 108.328ZM127.361 101.303L128.55 99.2432C128.585 99.183 128.637 99.1437 128.706 99.1252C128.775 99.1067 128.84 99.1148 128.9 99.1495L129.77 99.6518C129.83 99.6866 129.869 99.7385 129.888 99.8075C129.906 99.8765 129.898 99.9412 129.863 100.001L127.362 104.335C127.327 104.395 127.275 104.434 127.206 104.453C127.137 104.471 127.072 104.463 127.012 104.428L126.306 104.021C126.098 103.901 125.983 103.728 125.96 103.503L125.62 100.035C125.59 99.7844 125.536 99.6 125.458 99.4822C125.378 99.3556 125.272 99.2545 125.141 99.1787C125.004 99.0997 124.839 99.0699 124.645 99.0895C124.455 99.1035 124.282 99.2446 124.127 99.5127C124.02 99.6987 123.973 99.8685 123.986 100.022C123.997 100.167 124.026 100.275 124.073 100.346C124.117 100.408 124.191 100.502 124.294 100.627C124.349 100.695 124.375 100.764 124.37 100.835C124.366 100.905 124.34 100.982 124.293 101.064L123.71 102.073C123.682 102.123 123.64 102.157 123.585 102.176C123.528 102.187 123.475 102.178 123.425 102.15C123.109 101.952 122.855 101.685 122.663 101.348C122.465 101.008 122.371 100.614 122.381 100.168C122.385 99.7181 122.528 99.2497 122.809 98.7627C123.078 98.2977 123.399 97.9504 123.772 97.7209C124.14 97.4882 124.52 97.3724 124.914 97.3733C125.305 97.3657 125.673 97.4613 126.017 97.6603C126.351 97.853 126.61 98.105 126.796 98.4161C126.978 98.7186 127.098 99.1306 127.154 99.6519L127.361 101.303ZM128.16 89.6845C128.195 89.6243 128.247 89.5849 128.316 89.5664C128.385 89.5479 128.449 89.5561 128.51 89.5908L129.38 90.0931C129.462 90.1405 129.526 90.2505 129.572 90.4231L130 91.9942C130.368 91.6087 130.761 91.3648 131.177 91.2624C131.594 91.1601 132.007 91.2273 132.418 91.4643C133.025 91.8149 133.364 92.2952 133.435 92.9052C133.509 93.5097 133.324 94.1977 132.878 94.9691C132.591 95.467 132.263 95.8578 131.895 96.1414C131.527 96.425 131.163 96.5942 130.803 96.649C130.438 96.7007 130.112 96.6514 129.827 96.5013C129.778 96.4728 129.746 96.4327 129.732 96.3809C129.716 96.3205 129.722 96.2657 129.751 96.2165L130.348 95.1824C130.398 95.0948 130.456 95.0332 130.52 94.9974C130.579 94.9585 130.662 94.9224 130.769 94.8892C130.93 94.8367 131.072 94.7687 131.193 94.6854C131.311 94.5935 131.436 94.4353 131.565 94.211C131.723 93.9374 131.803 93.6917 131.805 93.4739C131.81 93.2506 131.722 93.0868 131.541 92.9826C131.361 92.8783 131.175 92.8841 130.984 93.0001C130.796 93.1105 130.623 93.3025 130.465 93.5761L130.072 94.2573C130.037 94.3174 129.985 94.3568 129.916 94.3753C129.847 94.3938 129.783 94.3857 129.723 94.3509L129.017 93.9434C128.962 93.9118 128.921 93.8697 128.893 93.8171C128.868 93.759 128.844 93.6868 128.821 93.6005L128.445 92.2235L127.208 94.3656C127.173 94.4258 127.122 94.4651 127.053 94.4836C126.984 94.5021 126.919 94.494 126.859 94.4592L125.989 93.957C125.929 93.9222 125.889 93.8703 125.871 93.8013C125.852 93.7322 125.86 93.6676 125.895 93.6074L128.16 89.6845ZM137.306 87.1112C137.271 87.1713 137.219 87.2107 137.15 87.2292C137.081 87.2477 137.016 87.2396 136.956 87.2048L136.119 86.7215L134.626 89.3067C134.592 89.3669 134.54 89.4062 134.471 89.4247C134.402 89.4432 134.337 89.4351 134.277 89.4004L133.407 88.8981C133.265 88.816 133.168 88.7125 133.116 88.5877L131.438 84.3474C131.407 84.2634 131.394 84.1975 131.399 84.1498C131.403 84.0934 131.425 84.0296 131.466 83.9585L132.181 82.7192C132.216 82.659 132.268 82.6197 132.337 82.6012C132.406 82.5827 132.471 82.5908 132.531 82.6255L135.682 84.4451L136.09 83.7393C136.125 83.6791 136.177 83.6397 136.246 83.6212C136.315 83.6027 136.379 83.6109 136.439 83.6456L137.309 84.1479C137.37 84.1826 137.409 84.2345 137.427 84.3036C137.446 84.3726 137.438 84.4372 137.403 84.4974L136.996 85.2032L137.833 85.6865C137.893 85.7213 137.932 85.7731 137.951 85.8422C137.969 85.9112 137.961 85.9758 137.926 86.036L137.306 87.1112ZM133.319 85.0505L134.138 87.1206L134.83 85.9223L133.319 85.0505Z" fill="#212121"/>
<g style="mix-blend-mode:color">
<rect x="18.4102" y="10.8771" width="148" height="132" fill="url(#paint1_linear)"/>
</g>
</g>
<path d="M39.9102 68.877L26.9102 74.377V62.3771L39.9102 68.877Z" fill="#C4C4C4"/>
<path d="M48.4102 44.8771L45.9102 32.3771L54.4102 34.3771L48.4102 44.8771Z" fill="#C4C4C4"/>
<defs>
<linearGradient id="paint0_linear" x1="82.2531" y1="22.5277" x2="37.5022" y2="100.039" gradientUnits="userSpaceOnUse">
<stop stop-color="#F2ABFF"/>
<stop offset="1" stop-color="#FFEBAF"/>
</linearGradient>
<linearGradient id="paint1_linear" x1="92.4102" y1="10.8771" x2="92.4102" y2="142.877" gradientUnits="userSpaceOnUse">
<stop stop-color="white"/>
<stop offset="1" stop-color="#F7F7F7"/>
</linearGradient>
</defs>
</svg>
