<svg width="379" height="224" viewBox="0 0 379 224" fill="none"
  xmlns="http://www.w3.org/2000/svg">
  <rect width="379" height="224" rx="24" fill="#15181E"/>
  <rect x="1" y="1" width="377" height="220" rx="24" fill="#20252D"/>
  <rect x="81.5" y="159.5" width="255" height="29" rx="14.5" stroke="#777E89"/>
  <rect x="82" y="97" width="126" height="28" rx="14" stroke="url(#paint0_linear)" stroke-width="2"/>
  <path d="M48.528 117C48.432 117 48.352 116.968 48.288 116.904C48.224 116.829 48.192 116.749 48.192 116.664C48.192 116.611 48.1973 116.563 48.208 116.52L52.016 106.232C52.048 106.115 52.112 106.013 52.208 105.928C52.304 105.843 52.4373 105.8 52.608 105.8H54.656C54.8267 105.8 54.96 105.843 55.056 105.928C55.152 106.013 55.2213 106.115 55.264 106.232L59.056 116.52C59.0773 116.563 59.088 116.611 59.088 116.664C59.088 116.749 59.0507 116.829 58.976 116.904C58.912 116.968 58.832 117 58.736 117H57.056C56.9067 117 56.7947 116.963 56.72 116.888C56.6453 116.813 56.5973 116.744 56.576 116.68L55.888 114.888H51.376L50.704 116.68C50.672 116.744 50.6187 116.813 50.544 116.888C50.48 116.963 50.368 117 50.208 117H48.528ZM51.984 112.824H55.28L53.632 108.232L51.984 112.824Z" fill="#EA1E62"/>
  <path d="M99.58 118C99.46 118 99.36 117.96 99.28 117.88C99.2 117.787 99.16 117.68 99.16 117.56C99.16 117.493 99.1667 117.44 99.18 117.4C99.2067 117.36 99.2267 117.327 99.24 117.3L102.12 113.34C101.893 113.393 101.66 113.42 101.42 113.42C100.78 113.393 100.173 113.26 99.6 113.02C99.0267 112.78 98.5133 112.453 98.06 112.04C97.6067 111.627 97.2533 111.14 97 110.58C96.7467 110.02 96.62 109.4 96.62 108.72C96.62 108.107 96.7333 107.507 96.96 106.92C97.2 106.333 97.5533 105.807 98.02 105.34C98.4867 104.873 99.0667 104.5 99.76 104.22C100.453 103.94 101.26 103.8 102.18 103.8C103.1 103.8 103.913 103.927 104.62 104.18C105.327 104.433 105.92 104.787 106.4 105.24C106.88 105.68 107.24 106.193 107.48 106.78C107.72 107.353 107.84 107.967 107.84 108.62C107.84 109.207 107.733 109.753 107.52 110.26C107.32 110.767 107.073 111.24 106.78 111.68C106.487 112.12 106.193 112.547 105.9 112.96L102.54 117.6C102.487 117.667 102.407 117.753 102.3 117.86C102.207 117.953 102.053 118 101.84 118H99.58ZM102.2 111.04C102.653 111.04 103.053 110.947 103.4 110.76C103.76 110.573 104.04 110.307 104.24 109.96C104.453 109.613 104.56 109.2 104.56 108.72C104.56 108.227 104.453 107.813 104.24 107.48C104.04 107.133 103.76 106.867 103.4 106.68C103.04 106.493 102.64 106.4 102.2 106.4C101.773 106.4 101.38 106.493 101.02 106.68C100.673 106.867 100.393 107.133 100.18 107.48C99.9667 107.813 99.86 108.227 99.86 108.72C99.86 109.2 99.9667 109.613 100.18 109.96C100.393 110.307 100.673 110.573 101.02 110.76C101.38 110.947 101.773 111.04 102.2 111.04Z" fill="white"/>
  <path d="M102.68 181.2C101.72 181.2 100.893 181.067 100.2 180.8C99.52 180.52 98.9533 180.14 98.5 179.66C98.06 179.167 97.7267 178.6 97.5 177.96C97.2867 177.307 97.16 176.613 97.12 175.88C97.1067 175.52 97.0933 175.12 97.08 174.68C97.08 174.227 97.08 173.773 97.08 173.32C97.0933 172.867 97.1067 172.453 97.12 172.08C97.1467 171.347 97.2733 170.66 97.5 170.02C97.74 169.38 98.0867 168.82 98.54 168.34C98.9933 167.86 99.56 167.487 100.24 167.22C100.933 166.94 101.747 166.8 102.68 166.8C103.613 166.8 104.42 166.94 105.1 167.22C105.78 167.487 106.347 167.86 106.8 168.34C107.253 168.82 107.593 169.38 107.82 170.02C108.06 170.66 108.2 171.347 108.24 172.08C108.253 172.453 108.26 172.867 108.26 173.32C108.273 173.773 108.273 174.227 108.26 174.68C108.26 175.12 108.253 175.52 108.24 175.88C108.2 176.613 108.067 177.307 107.84 177.96C107.613 178.6 107.273 179.167 106.82 179.66C106.38 180.14 105.813 180.52 105.12 180.8C104.44 181.067 103.627 181.2 102.68 181.2ZM102.68 178.6C103.453 178.6 104.02 178.347 104.38 177.84C104.74 177.333 104.927 176.647 104.94 175.78C104.967 175.393 104.98 174.993 104.98 174.58C104.98 174.167 104.98 173.753 104.98 173.34C104.98 172.927 104.967 172.54 104.94 172.18C104.927 171.353 104.74 170.68 104.38 170.16C104.02 169.64 103.453 169.38 102.68 169.38C101.907 169.38 101.34 169.64 100.98 170.16C100.62 170.68 100.427 171.353 100.4 172.18C100.4 172.54 100.393 172.927 100.38 173.34C100.38 173.753 100.38 174.167 100.38 174.58C100.393 174.993 100.4 175.393 100.4 175.78C100.427 176.647 100.62 177.333 100.98 177.84C101.353 178.347 101.92 178.6 102.68 178.6Z" fill="#777E89"/>
  <path d="M146.54 118C146.407 118 146.287 117.953 146.18 117.86C146.087 117.767 146.04 117.647 146.04 117.5V107.56L143.16 109.8C143.04 109.88 142.913 109.913 142.78 109.9C142.66 109.873 142.553 109.8 142.46 109.68L141.46 108.36C141.38 108.24 141.347 108.113 141.36 107.98C141.387 107.847 141.46 107.74 141.58 107.66L146.14 104.14C146.22 104.087 146.293 104.053 146.36 104.04C146.44 104.013 146.527 104 146.62 104H148.74C148.887 104 149.007 104.047 149.1 104.14C149.193 104.233 149.24 104.353 149.24 104.5V117.5C149.24 117.647 149.193 117.767 149.1 117.86C149.007 117.953 148.887 118 148.74 118H146.54Z" fill="white"/>
  <path d="M146.54 181C146.407 181 146.287 180.953 146.18 180.86C146.087 180.767 146.04 180.647 146.04 180.5V170.56L143.16 172.8C143.04 172.88 142.913 172.913 142.78 172.9C142.66 172.873 142.553 172.8 142.46 172.68L141.46 171.36C141.38 171.24 141.347 171.113 141.36 170.98C141.387 170.847 141.46 170.74 141.58 170.66L146.14 167.14C146.22 167.087 146.293 167.053 146.36 167.04C146.44 167.013 146.527 167 146.62 167H148.74C148.887 167 149.007 167.047 149.1 167.14C149.193 167.233 149.24 167.353 149.24 167.5V180.5C149.24 180.647 149.193 180.767 149.1 180.86C149.007 180.953 148.887 181 148.74 181H146.54Z" fill="#777E89"/>
  <path d="M188.36 118.2C187.373 118.2 186.527 118.08 185.82 117.84C185.113 117.6 184.533 117.293 184.08 116.92C183.627 116.547 183.287 116.14 183.06 115.7C182.833 115.247 182.713 114.813 182.7 114.4C182.7 114.28 182.74 114.18 182.82 114.1C182.9 114.02 183 113.98 183.12 113.98H185.34C185.487 113.98 185.607 114.013 185.7 114.08C185.793 114.133 185.873 114.233 185.94 114.38C186.06 114.687 186.233 114.933 186.46 115.12C186.7 115.307 186.98 115.44 187.3 115.52C187.633 115.587 187.987 115.62 188.36 115.62C189.107 115.62 189.693 115.447 190.12 115.1C190.547 114.753 190.76 114.267 190.76 113.64C190.76 113 190.56 112.54 190.16 112.26C189.76 111.98 189.193 111.84 188.46 111.84H186.32C186.187 111.84 186.073 111.793 185.98 111.7C185.887 111.607 185.84 111.493 185.84 111.36V110.38C185.84 110.22 185.867 110.087 185.92 109.98C185.987 109.873 186.053 109.787 186.12 109.72L189.56 106.6H183.92C183.773 106.6 183.653 106.553 183.56 106.46C183.467 106.367 183.42 106.247 183.42 106.1V104.5C183.42 104.353 183.467 104.233 183.56 104.14C183.653 104.047 183.773 104 183.92 104H192.82C192.967 104 193.087 104.047 193.18 104.14C193.273 104.233 193.32 104.353 193.32 104.5V105.96C193.32 106.093 193.287 106.213 193.22 106.32C193.167 106.413 193.1 106.493 193.02 106.56L189.78 109.74L189.98 109.78C190.767 109.86 191.467 110.053 192.08 110.36C192.693 110.667 193.173 111.107 193.52 111.68C193.867 112.24 194.04 112.953 194.04 113.82C194.04 114.727 193.793 115.507 193.3 116.16C192.807 116.813 192.133 117.32 191.28 117.68C190.427 118.027 189.453 118.2 188.36 118.2Z" fill="white"/>
  <path d="M188.36 181.2C187.373 181.2 186.527 181.08 185.82 180.84C185.113 180.6 184.533 180.293 184.08 179.92C183.627 179.547 183.287 179.14 183.06 178.7C182.833 178.247 182.713 177.813 182.7 177.4C182.7 177.28 182.74 177.18 182.82 177.1C182.9 177.02 183 176.98 183.12 176.98H185.34C185.487 176.98 185.607 177.013 185.7 177.08C185.793 177.133 185.873 177.233 185.94 177.38C186.06 177.687 186.233 177.933 186.46 178.12C186.7 178.307 186.98 178.44 187.3 178.52C187.633 178.587 187.987 178.62 188.36 178.62C189.107 178.62 189.693 178.447 190.12 178.1C190.547 177.753 190.76 177.267 190.76 176.64C190.76 176 190.56 175.54 190.16 175.26C189.76 174.98 189.193 174.84 188.46 174.84H186.32C186.187 174.84 186.073 174.793 185.98 174.7C185.887 174.607 185.84 174.493 185.84 174.36V173.38C185.84 173.22 185.867 173.087 185.92 172.98C185.987 172.873 186.053 172.787 186.12 172.72L189.56 169.6H183.92C183.773 169.6 183.653 169.553 183.56 169.46C183.467 169.367 183.42 169.247 183.42 169.1V167.5C183.42 167.353 183.467 167.233 183.56 167.14C183.653 167.047 183.773 167 183.92 167H192.82C192.967 167 193.087 167.047 193.18 167.14C193.273 167.233 193.32 167.353 193.32 167.5V168.96C193.32 169.093 193.287 169.213 193.22 169.32C193.167 169.413 193.1 169.493 193.02 169.56L189.78 172.74L189.98 172.78C190.767 172.86 191.467 173.053 192.08 173.36C192.693 173.667 193.173 174.107 193.52 174.68C193.867 175.24 194.04 175.953 194.04 176.82C194.04 177.727 193.793 178.507 193.3 179.16C192.807 179.813 192.133 180.32 191.28 180.68C190.427 181.027 189.453 181.2 188.36 181.2Z" fill="#777E89"/>
  <path d="M227.58 118C227.46 118 227.36 117.96 227.28 117.88C227.2 117.787 227.16 117.68 227.16 117.56C227.16 117.493 227.167 117.44 227.18 117.4C227.207 117.36 227.227 117.327 227.24 117.3L230.12 113.34C229.893 113.393 229.66 113.42 229.42 113.42C228.78 113.393 228.173 113.26 227.6 113.02C227.027 112.78 226.513 112.453 226.06 112.04C225.607 111.627 225.253 111.14 225 110.58C224.747 110.02 224.62 109.4 224.62 108.72C224.62 108.107 224.733 107.507 224.96 106.92C225.2 106.333 225.553 105.807 226.02 105.34C226.487 104.873 227.067 104.5 227.76 104.22C228.453 103.94 229.26 103.8 230.18 103.8C231.1 103.8 231.913 103.927 232.62 104.18C233.327 104.433 233.92 104.787 234.4 105.24C234.88 105.68 235.24 106.193 235.48 106.78C235.72 107.353 235.84 107.967 235.84 108.62C235.84 109.207 235.733 109.753 235.52 110.26C235.32 110.767 235.073 111.24 234.78 111.68C234.487 112.12 234.193 112.547 233.9 112.96L230.54 117.6C230.487 117.667 230.407 117.753 230.3 117.86C230.207 117.953 230.053 118 229.84 118H227.58ZM230.2 111.04C230.653 111.04 231.053 110.947 231.4 110.76C231.76 110.573 232.04 110.307 232.24 109.96C232.453 109.613 232.56 109.2 232.56 108.72C232.56 108.227 232.453 107.813 232.24 107.48C232.04 107.133 231.76 106.867 231.4 106.68C231.04 106.493 230.64 106.4 230.2 106.4C229.773 106.4 229.38 106.493 229.02 106.68C228.673 106.867 228.393 107.133 228.18 107.48C227.967 107.813 227.86 108.227 227.86 108.72C227.86 109.2 227.967 109.613 228.18 109.96C228.393 110.307 228.673 110.573 229.02 110.76C229.38 110.947 229.773 111.04 230.2 111.04Z" fill="#777E89"/>
  <path d="M230.5 181.2C229.34 181.2 228.327 180.987 227.46 180.56C226.593 180.133 225.92 179.547 225.44 178.8C224.973 178.04 224.74 177.187 224.74 176.24C224.74 175.84 224.8 175.44 224.92 175.04C225.04 174.64 225.187 174.267 225.36 173.92C225.533 173.56 225.707 173.24 225.88 172.96C226.067 172.68 226.22 172.453 226.34 172.28L229.94 167.4C229.993 167.333 230.073 167.253 230.18 167.16C230.3 167.053 230.453 167 230.64 167H232.9C233.02 167 233.12 167.047 233.2 167.14C233.28 167.22 233.32 167.32 233.32 167.44C233.32 167.493 233.307 167.547 233.28 167.6C233.267 167.64 233.247 167.673 233.22 167.7L230.48 171.48C230.587 171.453 230.707 171.433 230.84 171.42C230.973 171.407 231.093 171.4 231.2 171.4C231.84 171.413 232.453 171.547 233.04 171.8C233.64 172.04 234.173 172.373 234.64 172.8C235.107 173.213 235.473 173.707 235.74 174.28C236.02 174.853 236.16 175.493 236.16 176.2C236.16 177.093 235.927 177.92 235.46 178.68C235.007 179.44 234.353 180.053 233.5 180.52C232.66 180.973 231.66 181.2 230.5 181.2ZM230.46 178.6C230.9 178.6 231.307 178.513 231.68 178.34C232.053 178.153 232.353 177.887 232.58 177.54C232.807 177.18 232.92 176.747 232.92 176.24C232.92 175.72 232.807 175.287 232.58 174.94C232.353 174.58 232.053 174.313 231.68 174.14C231.307 173.953 230.9 173.86 230.46 173.86C230.033 173.86 229.627 173.953 229.24 174.14C228.867 174.313 228.567 174.58 228.34 174.94C228.127 175.287 228.02 175.72 228.02 176.24C228.02 176.747 228.133 177.18 228.36 177.54C228.587 177.887 228.887 178.153 229.26 178.34C229.633 178.513 230.033 178.6 230.46 178.6Z" fill="#777E89"/>
  <path d="M273.5 118.2C272.34 118.2 271.327 117.987 270.46 117.56C269.593 117.133 268.92 116.547 268.44 115.8C267.973 115.04 267.74 114.187 267.74 113.24C267.74 112.84 267.8 112.44 267.92 112.04C268.04 111.64 268.187 111.267 268.36 110.92C268.533 110.56 268.707 110.24 268.88 109.96C269.067 109.68 269.22 109.453 269.34 109.28L272.94 104.4C272.993 104.333 273.073 104.253 273.18 104.16C273.3 104.053 273.453 104 273.64 104H275.9C276.02 104 276.12 104.047 276.2 104.14C276.28 104.22 276.32 104.32 276.32 104.44C276.32 104.493 276.307 104.547 276.28 104.6C276.267 104.64 276.247 104.673 276.22 104.7L273.48 108.48C273.587 108.453 273.707 108.433 273.84 108.42C273.973 108.407 274.093 108.4 274.2 108.4C274.84 108.413 275.453 108.547 276.04 108.8C276.64 109.04 277.173 109.373 277.64 109.8C278.107 110.213 278.473 110.707 278.74 111.28C279.02 111.853 279.16 112.493 279.16 113.2C279.16 114.093 278.927 114.92 278.46 115.68C278.007 116.44 277.353 117.053 276.5 117.52C275.66 117.973 274.66 118.2 273.5 118.2ZM273.46 115.6C273.9 115.6 274.307 115.513 274.68 115.34C275.053 115.153 275.353 114.887 275.58 114.54C275.807 114.18 275.92 113.747 275.92 113.24C275.92 112.72 275.807 112.287 275.58 111.94C275.353 111.58 275.053 111.313 274.68 111.14C274.307 110.953 273.9 110.86 273.46 110.86C273.033 110.86 272.627 110.953 272.24 111.14C271.867 111.313 271.567 111.58 271.34 111.94C271.127 112.287 271.02 112.72 271.02 113.24C271.02 113.747 271.133 114.18 271.36 114.54C271.587 114.887 271.887 115.153 272.26 115.34C272.633 115.513 273.033 115.6 273.46 115.6Z" fill="#777E89"/>
  <path d="M273.5 181.2C272.34 181.2 271.327 180.987 270.46 180.56C269.593 180.133 268.92 179.547 268.44 178.8C267.973 178.04 267.74 177.187 267.74 176.24C267.74 175.84 267.8 175.44 267.92 175.04C268.04 174.64 268.187 174.267 268.36 173.92C268.533 173.56 268.707 173.24 268.88 172.96C269.067 172.68 269.22 172.453 269.34 172.28L272.94 167.4C272.993 167.333 273.073 167.253 273.18 167.16C273.3 167.053 273.453 167 273.64 167H275.9C276.02 167 276.12 167.047 276.2 167.14C276.28 167.22 276.32 167.32 276.32 167.44C276.32 167.493 276.307 167.547 276.28 167.6C276.267 167.64 276.247 167.673 276.22 167.7L273.48 171.48C273.587 171.453 273.707 171.433 273.84 171.42C273.973 171.407 274.093 171.4 274.2 171.4C274.84 171.413 275.453 171.547 276.04 171.8C276.64 172.04 277.173 172.373 277.64 172.8C278.107 173.213 278.473 173.707 278.74 174.28C279.02 174.853 279.16 175.493 279.16 176.2C279.16 177.093 278.927 177.92 278.46 178.68C278.007 179.44 277.353 180.053 276.5 180.52C275.66 180.973 274.66 181.2 273.5 181.2ZM273.46 178.6C273.9 178.6 274.307 178.513 274.68 178.34C275.053 178.153 275.353 177.887 275.58 177.54C275.807 177.18 275.92 176.747 275.92 176.24C275.92 175.72 275.807 175.287 275.58 174.94C275.353 174.58 275.053 174.313 274.68 174.14C274.307 173.953 273.9 173.86 273.46 173.86C273.033 173.86 272.627 173.953 272.24 174.14C271.867 174.313 271.567 174.58 271.34 174.94C271.127 175.287 271.02 175.72 271.02 176.24C271.02 176.747 271.133 177.18 271.36 177.54C271.587 177.887 271.887 178.153 272.26 178.34C272.633 178.513 273.033 178.6 273.46 178.6Z" fill="#777E89"/>
  <path d="M311.36 118C311.213 118 311.093 117.953 311 117.86C310.907 117.767 310.86 117.647 310.86 117.5V116.3C310.86 116.193 310.887 116.047 310.94 115.86C311.007 115.673 311.147 115.493 311.36 115.32L313.98 112.74C314.953 111.993 315.747 111.36 316.36 110.84C316.973 110.307 317.427 109.827 317.72 109.4C318.013 108.973 318.16 108.56 318.16 108.16C318.16 107.64 318.013 107.213 317.72 106.88C317.44 106.547 316.987 106.38 316.36 106.38C315.933 106.38 315.573 106.473 315.28 106.66C314.987 106.833 314.76 107.067 314.6 107.36C314.453 107.653 314.347 107.967 314.28 108.3C314.24 108.473 314.16 108.593 314.04 108.66C313.92 108.727 313.787 108.76 313.64 108.76H311.52C311.387 108.76 311.28 108.72 311.2 108.64C311.12 108.56 311.08 108.46 311.08 108.34C311.093 107.727 311.22 107.147 311.46 106.6C311.713 106.053 312.067 105.567 312.52 105.14C312.973 104.713 313.52 104.38 314.16 104.14C314.8 103.887 315.527 103.76 316.34 103.76C317.46 103.76 318.4 103.947 319.16 104.32C319.92 104.68 320.493 105.18 320.88 105.82C321.267 106.46 321.46 107.2 321.46 108.04C321.46 108.68 321.327 109.273 321.06 109.82C320.807 110.367 320.433 110.893 319.94 111.4C319.46 111.893 318.873 112.407 318.18 112.94L315.84 115.3H321.26C321.407 115.3 321.527 115.347 321.62 115.44C321.713 115.533 321.76 115.653 321.76 115.8V117.5C321.76 117.647 321.713 117.767 321.62 117.86C321.527 117.953 321.407 118 321.26 118H311.36Z" fill="#777E89"/>
  <path d="M311.36 181C311.213 181 311.093 180.953 311 180.86C310.907 180.767 310.86 180.647 310.86 180.5V179.3C310.86 179.193 310.887 179.047 310.94 178.86C311.007 178.673 311.147 178.493 311.36 178.32L313.98 175.74C314.953 174.993 315.747 174.36 316.36 173.84C316.973 173.307 317.427 172.827 317.72 172.4C318.013 171.973 318.16 171.56 318.16 171.16C318.16 170.64 318.013 170.213 317.72 169.88C317.44 169.547 316.987 169.38 316.36 169.38C315.933 169.38 315.573 169.473 315.28 169.66C314.987 169.833 314.76 170.067 314.6 170.36C314.453 170.653 314.347 170.967 314.28 171.3C314.24 171.473 314.16 171.593 314.04 171.66C313.92 171.727 313.787 171.76 313.64 171.76H311.52C311.387 171.76 311.28 171.72 311.2 171.64C311.12 171.56 311.08 171.46 311.08 171.34C311.093 170.727 311.22 170.147 311.46 169.6C311.713 169.053 312.067 168.567 312.52 168.14C312.973 167.713 313.52 167.38 314.16 167.14C314.8 166.887 315.527 166.76 316.34 166.76C317.46 166.76 318.4 166.947 319.16 167.32C319.92 167.68 320.493 168.18 320.88 168.82C321.267 169.46 321.46 170.2 321.46 171.04C321.46 171.68 321.327 172.273 321.06 172.82C320.807 173.367 320.433 173.893 319.94 174.4C319.46 174.893 318.873 175.407 318.18 175.94L315.84 178.3H321.26C321.407 178.3 321.527 178.347 321.62 178.44C321.713 178.533 321.76 178.653 321.76 178.8V180.5C321.76 180.647 321.713 180.767 321.62 180.86C321.527 180.953 321.407 181 321.26 181H311.36Z" fill="#777E89"/>
  <path d="M49.568 180C49.4613 180 49.3707 179.963 49.296 179.888C49.2213 179.813 49.184 179.717 49.184 179.6V169.2C49.184 169.083 49.2213 168.987 49.296 168.912C49.3707 168.837 49.4613 168.8 49.568 168.8H54.336C55.2213 168.8 55.9467 168.928 56.512 169.184C57.088 169.44 57.5093 169.803 57.776 170.272C58.0427 170.741 58.176 171.291 58.176 171.92C58.176 172.315 58.1013 172.661 57.952 172.96C57.8133 173.259 57.6373 173.504 57.424 173.696C57.2213 173.888 57.024 174.032 56.832 174.128C57.248 174.32 57.616 174.64 57.936 175.088C58.256 175.525 58.416 176.048 58.416 176.656C58.416 177.328 58.2613 177.915 57.952 178.416C57.6533 178.917 57.2107 179.307 56.624 179.584C56.0373 179.861 55.3227 180 54.48 180H49.568ZM51.728 178.112H54.176C54.6987 178.112 55.0933 177.968 55.36 177.68C55.6267 177.381 55.76 177.035 55.76 176.64C55.76 176.224 55.6213 175.877 55.344 175.6C55.0773 175.312 54.688 175.168 54.176 175.168H51.728V178.112ZM51.728 173.328H54.032C54.5333 173.328 54.9067 173.205 55.152 172.96C55.408 172.704 55.536 172.379 55.536 171.984C55.536 171.589 55.408 171.275 55.152 171.04C54.9067 170.805 54.5333 170.688 54.032 170.688H51.728V173.328Z" fill="#EA1E62"/>
  <g clip-path="url(#clip0)">
    <rect x="89" y="36" width="24" height="24" rx="12" fill="#FF5722"/>
    <g filter="url(#filter0_d)">
      <path d="M100.976 43.2629C101.671 43.2629 102.325 43.4046 102.937 43.688C103.559 43.9623 104.057 44.36 104.432 44.8811C104.807 45.3931 104.995 45.992 104.995 46.6777C104.995 47.0069 104.944 47.3131 104.844 47.5966C104.752 47.8709 104.647 48.1086 104.528 48.3097C104.409 48.5017 104.231 48.7714 103.993 49.1189L101.388 52.7257C101.379 52.744 101.351 52.7806 101.305 52.8354C101.269 52.8811 101.219 52.9223 101.155 52.9589C101.1 52.9863 101.036 53 100.963 53H98.782C98.6997 53 98.6311 52.9726 98.5763 52.9177C98.5306 52.8537 98.5077 52.7806 98.5077 52.6983C98.5077 52.6434 98.5306 52.584 98.5763 52.52L100.332 50.0514C99.7191 49.9691 99.1568 49.7817 98.6448 49.4891C98.1328 49.1966 97.7214 48.808 97.4106 48.3234C97.1088 47.8389 96.958 47.2903 96.958 46.6777C96.958 45.992 97.1454 45.3931 97.5203 44.8811C97.8951 44.36 98.3888 43.9623 99.0014 43.688C99.6231 43.4046 100.281 43.2629 100.976 43.2629ZM100.976 45.4571C100.583 45.4571 100.236 45.5714 99.934 45.8C99.6414 46.0286 99.4951 46.3211 99.4951 46.6777C99.4951 47.0343 99.6414 47.3269 99.934 47.5554C100.236 47.784 100.583 47.8983 100.976 47.8983C101.369 47.8983 101.712 47.784 102.005 47.5554C102.307 47.3269 102.457 47.0343 102.457 46.6777C102.457 46.3211 102.307 46.0286 102.005 45.8C101.712 45.5714 101.369 45.4571 100.976 45.4571Z" fill="#20252D"/>
    </g>
    <ellipse cx="101" cy="42" rx="12" ry="6" fill="url(#paint1_linear)"/>
    <g filter="url(#filter1_f)">
      <path fill-rule="evenodd" clip-rule="evenodd" d="M112.971 46.1265C112.537 52.5376 107.343 57.5999 101 57.5999C94.6567 57.5999 89.463 52.5376 89.0293 46.1265C89.0099 46.4057 89 46.6875 89 46.9717C89 53.5991 94.3726 58.9717 101 58.9717C107.627 58.9717 113 53.5991 113 46.9717C113 46.6875 112.99 46.4057 112.971 46.1265Z" fill="#060709"/>
    </g>
  </g>
  <g clip-path="url(#clip1)">
    <rect x="123" y="36" width="24" height="24" rx="12" fill="#FFC108"/>
    <g filter="url(#filter2_d)">
      <path d="M131.839 46.4857C131.794 46.4309 131.771 46.3577 131.771 46.2663C131.771 46.1383 131.821 46.0377 131.922 45.9646L134.87 43.7017C134.888 43.6834 134.934 43.6469 135.007 43.592C135.09 43.5371 135.172 43.4914 135.254 43.4549C135.336 43.4183 135.419 43.4 135.501 43.4H137.174C137.275 43.4 137.362 43.4366 137.435 43.5097C137.508 43.5829 137.544 43.6697 137.544 43.7703V52.6297C137.544 52.7303 137.508 52.8171 137.435 52.8903C137.362 52.9634 137.275 53 137.174 53H135.378C135.277 53 135.19 52.9634 135.117 52.8903C135.044 52.8171 135.007 52.7303 135.007 52.6297V46.6366L133.375 47.8709C133.302 47.9257 133.224 47.9531 133.142 47.9531C133.023 47.9531 132.927 47.9029 132.854 47.8023L131.839 46.4857Z" fill="#20252D"/>
    </g>
    <ellipse cx="135" cy="42" rx="12" ry="6" fill="url(#paint2_linear)"/>
    <g filter="url(#filter3_f)">
      <path fill-rule="evenodd" clip-rule="evenodd" d="M146.971 46.127C146.537 52.5381 141.343 57.6006 135 57.6006C128.657 57.6006 123.463 52.5381 123.029 46.127C123.01 46.4061 123 46.6879 123 46.972C123 53.5994 128.373 58.972 135 58.972C141.627 58.972 147 53.5994 147 46.972C147 46.6879 146.99 46.4061 146.971 46.127Z" fill="#060709"/>
    </g>
  </g>
  <g clip-path="url(#clip2)">
    <rect x="158" y="36" width="24" height="24" rx="12" fill="#8BC44A"/>
    <g filter="url(#filter4_d)">
      <path d="M173.183 43.4C173.284 43.4 173.371 43.4366 173.444 43.5097C173.517 43.5829 173.553 43.6697 173.553 43.7703V45.224C173.553 45.3611 173.462 45.5211 173.279 45.704L171.62 47.3771C172.37 47.56 172.959 47.8754 173.389 48.3234C173.819 48.7714 174.034 49.3383 174.034 50.024C174.034 51.0389 173.677 51.8114 172.964 52.3417C172.26 52.872 171.263 53.1371 169.974 53.1371C169.142 53.1371 168.415 53.0091 167.793 52.7531C167.172 52.4971 166.696 52.1634 166.367 51.752C166.038 51.3314 165.864 50.888 165.846 50.4217C165.846 50.3394 165.873 50.2709 165.928 50.216C165.992 50.152 166.065 50.12 166.148 50.12H167.876C168.022 50.12 168.141 50.1474 168.232 50.2023C168.324 50.248 168.429 50.3257 168.548 50.4354C168.731 50.6 168.918 50.728 169.11 50.8194C169.311 50.9017 169.599 50.9429 169.974 50.9429C170.431 50.9429 170.797 50.8651 171.071 50.7097C171.355 50.5543 171.496 50.3257 171.496 50.024C171.496 49.7223 171.355 49.4937 171.071 49.3383C170.797 49.1829 170.431 49.1051 169.974 49.1051H168.836C168.735 49.1051 168.648 49.0686 168.575 48.9954C168.502 48.9223 168.465 48.8354 168.465 48.7349V47.5554C168.465 47.464 168.488 47.3817 168.534 47.3086C168.589 47.2354 168.662 47.1531 168.753 47.0617L170.207 45.5943H166.628C166.527 45.5943 166.44 45.5577 166.367 45.4846C166.294 45.4114 166.257 45.3246 166.257 45.224V43.7703C166.257 43.6697 166.294 43.5829 166.367 43.5097C166.44 43.4366 166.527 43.4 166.628 43.4H173.183Z" fill="#20252D"/>
    </g>
    <ellipse cx="170" cy="42" rx="12" ry="6" fill="url(#paint3_linear)"/>
    <g filter="url(#filter5_f)">
      <path fill-rule="evenodd" clip-rule="evenodd" d="M181.971 46.126C181.537 52.5372 176.343 57.5996 170 57.5996C163.657 57.5996 158.463 52.5372 158.029 46.126C158.01 46.4051 158 46.6869 158 46.971C158 53.5985 163.373 58.971 170 58.971C176.627 58.971 182 53.5985 182 46.971C182 46.6869 181.99 46.4051 181.971 46.126Z" fill="#060709"/>
    </g>
  </g>
  <g clip-path="url(#clip3)">
    <rect x="193" y="36" width="24" height="24" rx="12" fill="#03A9F4"/>
    <g filter="url(#filter6_d)">
      <path d="M205.047 53.1371C204.307 53.1371 203.621 53 202.99 52.7257C202.368 52.4423 201.87 52.04 201.495 51.5189C201.129 50.9977 200.947 50.3897 200.947 49.6949C200.947 49.3474 200.997 49.032 201.097 48.7486C201.207 48.456 201.317 48.2183 201.427 48.0354C201.545 47.8434 201.728 47.5691 201.975 47.2126L204.595 43.6743C204.604 43.656 204.627 43.624 204.663 43.5783C204.709 43.5234 204.759 43.4823 204.814 43.4549C204.878 43.4183 204.947 43.4 205.02 43.4H207.2C207.283 43.4 207.347 43.432 207.392 43.496C207.447 43.5509 207.475 43.6194 207.475 43.7017C207.475 43.7474 207.452 43.8069 207.406 43.88L205.623 46.2937C206.281 46.3669 206.876 46.5497 207.406 46.8423C207.936 47.1349 208.357 47.528 208.668 48.0217C208.979 48.5063 209.134 49.064 209.134 49.6949C209.134 50.3897 208.947 50.9977 208.572 51.5189C208.206 52.04 207.712 52.4423 207.091 52.7257C206.469 53 205.788 53.1371 205.047 53.1371ZM205.047 50.9429C205.459 50.9429 205.82 50.8286 206.131 50.6C206.441 50.3714 206.597 50.0697 206.597 49.6949C206.597 49.32 206.441 49.0183 206.131 48.7897C205.82 48.5611 205.459 48.4469 205.047 48.4469C204.636 48.4469 204.27 48.5611 203.95 48.7897C203.639 49.0183 203.484 49.32 203.484 49.6949C203.484 50.0697 203.639 50.3714 203.95 50.6C204.27 50.8286 204.636 50.9429 205.047 50.9429Z" fill="#20252D"/>
    </g>
    <ellipse cx="205" cy="42" rx="12" ry="6" fill="url(#paint4_linear)"/>
    <g filter="url(#filter7_f)">
      <path fill-rule="evenodd" clip-rule="evenodd" d="M216.971 46.127C216.537 52.5381 211.343 57.6006 205 57.6006C198.657 57.6006 193.463 52.5381 193.029 46.127C193.01 46.4061 193 46.6879 193 46.972C193 53.5994 198.373 58.972 205 58.972C211.627 58.972 217 53.5994 217 46.972C217 46.6879 216.99 46.4061 216.971 46.127Z" fill="#060709"/>
    </g>
  </g>
  <g clip-path="url(#clip4)">
    <rect x="228" y="36" width="24" height="24" rx="12" fill="#3F51B5"/>
    <g filter="url(#filter8_d)">
      <path d="M240.047 53.1371C239.307 53.1371 238.621 53 237.99 52.7257C237.368 52.4423 236.87 52.04 236.495 51.5189C236.129 50.9977 235.947 50.3897 235.947 49.6949C235.947 49.3474 235.997 49.032 236.097 48.7486C236.207 48.456 236.317 48.2183 236.427 48.0354C236.545 47.8434 236.728 47.5691 236.975 47.2126L239.595 43.6743C239.604 43.656 239.627 43.624 239.663 43.5783C239.709 43.5234 239.759 43.4823 239.814 43.4549C239.878 43.4183 239.947 43.4 240.02 43.4H242.2C242.283 43.4 242.347 43.432 242.392 43.496C242.447 43.5509 242.475 43.6194 242.475 43.7017C242.475 43.7474 242.452 43.8069 242.406 43.88L240.623 46.2937C241.281 46.3669 241.876 46.5497 242.406 46.8423C242.936 47.1349 243.357 47.528 243.668 48.0217C243.979 48.5063 244.134 49.064 244.134 49.6949C244.134 50.3897 243.947 50.9977 243.572 51.5189C243.206 52.04 242.712 52.4423 242.091 52.7257C241.469 53 240.788 53.1371 240.047 53.1371ZM240.047 50.9429C240.459 50.9429 240.82 50.8286 241.131 50.6C241.441 50.3714 241.597 50.0697 241.597 49.6949C241.597 49.32 241.441 49.0183 241.131 48.7897C240.82 48.5611 240.459 48.4469 240.047 48.4469C239.636 48.4469 239.27 48.5611 238.95 48.7897C238.639 49.0183 238.484 49.32 238.484 49.6949C238.484 50.0697 238.639 50.3714 238.95 50.6C239.27 50.8286 239.636 50.9429 240.047 50.9429Z" fill="#20252D"/>
    </g>
    <ellipse cx="240" cy="42" rx="12" ry="6" fill="url(#paint5_linear)"/>
    <g filter="url(#filter9_f)">
      <path fill-rule="evenodd" clip-rule="evenodd" d="M251.971 46.127C251.537 52.5381 246.343 57.6006 240 57.6006C233.657 57.6006 228.463 52.5381 228.029 46.127C228.01 46.4061 228 46.6879 228 46.972C228 53.5994 233.373 58.972 240 58.972C246.627 58.972 252 53.5994 252 46.972C252 46.6879 251.99 46.4061 251.971 46.127Z" fill="#060709"/>
    </g>
  </g>
  <g clip-path="url(#clip5)">
    <rect x="261" y="36" width="24" height="24" rx="12" fill="#EA1E62"/>
    <g filter="url(#filter10_d)">
      <path d="M273.151 50.8057H276.593C276.694 50.8057 276.78 50.8423 276.854 50.9154C276.927 50.9886 276.963 51.0754 276.963 51.176V52.6297C276.963 52.7303 276.927 52.8171 276.854 52.8903C276.78 52.9634 276.694 53 276.593 53H269.352C269.251 53 269.164 52.9634 269.091 52.8903C269.018 52.8171 268.982 52.7303 268.982 52.6297V51.4503C268.982 51.1029 269.114 50.8331 269.379 50.6411L273.48 47.7063C273.772 47.4869 273.964 47.2857 274.056 47.1029C274.156 46.9109 274.207 46.7051 274.207 46.4857C274.207 46.2571 274.124 46.0286 273.96 45.8C273.804 45.5714 273.503 45.4571 273.055 45.4571C272.744 45.4571 272.497 45.5211 272.314 45.6491C272.14 45.768 272.026 45.8823 271.971 45.992C271.926 46.0926 271.862 46.2526 271.779 46.472C271.734 46.5909 271.665 46.6731 271.574 46.7189C271.482 46.7646 271.368 46.7874 271.231 46.7874H269.544C269.462 46.7874 269.388 46.76 269.324 46.7051C269.27 46.6411 269.242 46.568 269.242 46.4857C269.26 45.9463 269.411 45.4343 269.695 44.9497C269.978 44.456 270.403 44.0537 270.97 43.7429C271.537 43.4229 272.227 43.2629 273.041 43.2629C273.818 43.2629 274.486 43.4137 275.043 43.7154C275.601 44.008 276.022 44.4011 276.305 44.8949C276.598 45.3794 276.744 45.9097 276.744 46.4857C276.744 47.0434 276.616 47.5509 276.36 48.008C276.113 48.456 275.683 48.904 275.071 49.352L273.151 50.8057Z" fill="#20252D"/>
    </g>
    <ellipse cx="273" cy="42" rx="12" ry="6" fill="url(#paint6_linear)"/>
    <g filter="url(#filter11_f)">
      <path fill-rule="evenodd" clip-rule="evenodd" d="M284.971 46.127C284.537 52.5381 279.343 57.6006 273 57.6006C266.657 57.6006 261.463 52.5381 261.029 46.127C261.01 46.4061 261 46.6879 261 46.972C261 53.5994 266.373 58.972 273 58.972C279.627 58.972 285 53.5994 285 46.972C285 46.6879 284.99 46.4061 284.971 46.127Z" fill="#060709"/>
    </g>
  </g>
  <path d="M102 82C99.24 82 97 84.24 97 87C97 89.76 99.24 92 102 92C104.76 92 107 89.76 107 87C107 84.24 104.76 82 102 82ZM102 91C99.795 91 98 89.205 98 87C98 84.795 99.795 83 102 83C104.205 83 106 84.795 106 87C106 89.205 104.205 91 102 91ZM103.94 85.145L101 88.085L100.06 87.145C99.865 86.95 99.55 86.95 99.355 87.145C99.16 87.34 99.16 87.655 99.355 87.85L100.65 89.145C100.845 89.34 101.16 89.34 101.355 89.145L104.65 85.85C104.845 85.655 104.845 85.34 104.65 85.145C104.455 84.95 104.135 84.95 103.94 85.145Z" fill="#8BC44A"/>
  <path d="M147 82C144.24 82 142 84.24 142 87C142 89.76 144.24 92 147 92C149.76 92 152 89.76 152 87C152 84.24 149.76 82 147 82ZM147 91C144.795 91 143 89.205 143 87C143 84.795 144.795 83 147 83C149.205 83 151 84.795 151 87C151 89.205 149.205 91 147 91ZM148.94 85.145L146 88.085L145.06 87.145C144.865 86.95 144.55 86.95 144.355 87.145C144.16 87.34 144.16 87.655 144.355 87.85L145.65 89.145C145.845 89.34 146.16 89.34 146.355 89.145L149.65 85.85C149.845 85.655 149.845 85.34 149.65 85.145C149.455 84.95 149.135 84.95 148.94 85.145Z" fill="#8BC44A"/>
  <path d="M188 82C185.24 82 183 84.24 183 87C183 89.76 185.24 92 188 92C190.76 92 193 89.76 193 87C193 84.24 190.76 82 188 82ZM188 91C185.795 91 184 89.205 184 87C184 84.795 185.795 83 188 83C190.205 83 192 84.795 192 87C192 89.205 190.205 91 188 91ZM189.94 85.145L187 88.085L186.06 87.145C185.865 86.95 185.55 86.95 185.355 87.145C185.16 87.34 185.16 87.655 185.355 87.85L186.65 89.145C186.845 89.34 187.16 89.34 187.355 89.145L190.65 85.85C190.845 85.655 190.845 85.34 190.65 85.145C190.455 84.95 190.135 84.95 189.94 85.145Z" fill="#8BC44A"/>
  <path d="M273 82C270.24 82 268 84.24 268 87C268 89.76 270.24 92 273 92C275.76 92 278 89.76 278 87C278 84.24 275.76 82 273 82ZM273 91C270.795 91 269 89.205 269 87C269 84.795 270.795 83 273 83C275.205 83 277 84.795 277 87C277 89.205 275.205 91 273 91ZM274.94 85.145L272 88.085L271.06 87.145C270.865 86.95 270.55 86.95 270.355 87.145C270.16 87.34 270.16 87.655 270.355 87.85L271.65 89.145C271.845 89.34 272.16 89.34 272.355 89.145L275.65 85.85C275.845 85.655 275.845 85.34 275.65 85.145C275.455 84.95 275.135 84.95 274.94 85.145Z" fill="#8BC44A"/>
  <path d="M316 82C313.24 82 311 84.24 311 87C311 89.76 313.24 92 316 92C318.76 92 321 89.76 321 87C321 84.24 318.76 82 316 82ZM316 91C313.795 91 312 89.205 312 87C312 84.795 313.795 83 316 83C318.205 83 320 84.795 320 87C320 89.205 318.205 91 316 91ZM317.94 85.145L315 88.085L314.06 87.145C313.865 86.95 313.55 86.95 313.355 87.145C313.16 87.34 313.16 87.655 313.355 87.85L314.65 89.145C314.845 89.34 315.16 89.34 315.355 89.145L318.65 85.85C318.845 85.655 318.845 85.34 318.65 85.145C318.455 84.95 318.135 84.95 317.94 85.145Z" fill="#8BC44A"/>
  <path d="M230 145C227.24 145 225 147.24 225 150C225 152.76 227.24 155 230 155C232.76 155 235 152.76 235 150C235 147.24 232.76 145 230 145ZM230 154C227.795 154 226 152.205 226 150C226 147.795 227.795 146 230 146C232.205 146 234 147.795 234 150C234 152.205 232.205 154 230 154ZM231.94 148.145L229 151.085L228.06 150.145C227.865 149.95 227.55 149.95 227.355 150.145C227.16 150.34 227.16 150.655 227.355 150.85L228.65 152.145C228.845 152.34 229.16 152.34 229.355 152.145L232.65 148.85C232.845 148.655 232.845 148.34 232.65 148.145C232.455 147.95 232.135 147.95 231.94 148.145Z" fill="#8BC44A"/>
  <path d="M147 145C144.24 145 142 147.24 142 150C142 152.76 144.24 155 147 155C149.76 155 152 152.76 152 150C152 147.24 149.76 145 147 145ZM147 154C144.795 154 143 152.205 143 150C143 147.795 144.795 146 147 146C149.205 146 151 147.795 151 150C151 152.205 149.205 154 147 154ZM148.94 148.145L146 151.085L145.06 150.145C144.865 149.95 144.55 149.95 144.355 150.145C144.16 150.34 144.16 150.655 144.355 150.85L145.65 152.145C145.845 152.34 146.16 152.34 146.355 152.145L149.65 148.85C149.845 148.655 149.845 148.34 149.65 148.145C149.455 147.95 149.135 147.95 148.94 148.145Z" fill="#8BC44A"/>
  <path d="M188 145C185.24 145 183 147.24 183 150C183 152.76 185.24 155 188 155C190.76 155 193 152.76 193 150C193 147.24 190.76 145 188 145ZM188 154C185.795 154 184 152.205 184 150C184 147.795 185.795 146 188 146C190.205 146 192 147.795 192 150C192 152.205 190.205 154 188 154ZM189.94 148.145L187 151.085L186.06 150.145C185.865 149.95 185.55 149.95 185.355 150.145C185.16 150.34 185.16 150.655 185.355 150.85L186.65 152.145C186.845 152.34 187.16 152.34 187.355 152.145L190.65 148.85C190.845 148.655 190.845 148.34 190.65 148.145C190.455 147.95 190.135 147.95 189.94 148.145Z" fill="#8BC44A"/>
  <path d="M273 145C270.24 145 268 147.24 268 150C268 152.76 270.24 155 273 155C275.76 155 278 152.76 278 150C278 147.24 275.76 145 273 145ZM273 154C270.795 154 269 152.205 269 150C269 147.795 270.795 146 273 146C275.205 146 277 147.795 277 150C277 152.205 275.205 154 273 154ZM274.94 148.145L272 151.085L271.06 150.145C270.865 149.95 270.55 149.95 270.355 150.145C270.16 150.34 270.16 150.655 270.355 150.85L271.65 152.145C271.845 152.34 272.16 152.34 272.355 152.145L275.65 148.85C275.845 148.655 275.845 148.34 275.65 148.145C275.455 147.95 275.135 147.95 274.94 148.145Z" fill="#8BC44A"/>
  <path d="M316 145C313.24 145 311 147.24 311 150C311 152.76 313.24 155 316 155C318.76 155 321 152.76 321 150C321 147.24 318.76 145 316 145ZM316 154C313.795 154 312 152.205 312 150C312 147.795 313.795 146 316 146C318.205 146 320 147.795 320 150C320 152.205 318.205 154 316 154ZM317.94 148.145L315 151.085L314.06 150.145C313.865 149.95 313.55 149.95 313.355 150.145C313.16 150.34 313.16 150.655 313.355 150.85L314.65 152.145C314.845 152.34 315.16 152.34 315.355 152.145L318.65 148.85C318.845 148.655 318.845 148.34 318.65 148.145C318.455 147.95 318.135 147.95 317.94 148.145Z" fill="#8BC44A"/>
  <path d="M233.823 83.1835C233.586 82.9469 233.204 82.9469 232.967 83.1835L230 86.1445L227.033 83.1775C226.796 82.9408 226.414 82.9408 226.177 83.1775C225.941 83.4141 225.941 83.7964 226.177 84.033L229.144 87L226.177 89.967C225.941 90.2036 225.941 90.5859 226.177 90.8225C226.414 91.0592 226.796 91.0592 227.033 90.8225L230 87.8555L232.967 90.8225C233.204 91.0592 233.586 91.0592 233.823 90.8225C234.059 90.5859 234.059 90.2036 233.823 89.967L230.856 87L233.823 84.033C234.053 83.8024 234.053 83.4141 233.823 83.1835Z" fill="#EA1E62"/>
  <path d="M106.823 146.184C106.586 145.947 106.204 145.947 105.967 146.184L103 149.144L100.033 146.177C99.7964 145.941 99.4141 145.941 99.1775 146.177C98.9408 146.414 98.9408 146.796 99.1775 147.033L102.144 150L99.1775 152.967C98.9408 153.204 98.9408 153.586 99.1775 153.823C99.4141 154.059 99.7964 154.059 100.033 153.823L103 150.856L105.967 153.823C106.204 154.059 106.586 154.059 106.823 153.823C107.059 153.586 107.059 153.204 106.823 152.967L103.856 150L106.823 147.033C107.053 146.802 107.053 146.414 106.823 146.184Z" fill="#EA1E62"/>
  <defs>
    <filter id="filter0_d" x="96.2713" y="43.2627" width="9.408" height="11.1086" filterUnits="userSpaceOnUse" color-interpolation-filters="sRGB">
      <feFlood flood-opacity="0" result="BackgroundImageFix"/>
      <feColorMatrix in="SourceAlpha" type="matrix" values="0 0 0 0 0 0 0 0 0 0 0 0 0 0 0 0 0 0 127 0" result="hardAlpha"/>
      <feOffset dy="0.685714"/>
      <feGaussianBlur stdDeviation="0.342857"/>
      <feComposite in2="hardAlpha" operator="out"/>
      <feColorMatrix type="matrix" values="0 0 0 0 0 0 0 0 0 0 0 0 0 0 0 0 0 0 0.2 0"/>
      <feBlend mode="normal" in2="BackgroundImageFix" result="effect1_dropShadow"/>
      <feBlend mode="normal" in="SourceGraphic" in2="effect1_dropShadow" result="shape"/>
    </filter>
    <filter id="filter1_f" x="84.8857" y="42.0122" width="32.2286" height="21.0738" filterUnits="userSpaceOnUse" color-interpolation-filters="sRGB">
      <feFlood flood-opacity="0" result="BackgroundImageFix"/>
      <feBlend mode="normal" in="SourceGraphic" in2="BackgroundImageFix" result="shape"/>
      <feGaussianBlur stdDeviation="2.05714" result="effect1_foregroundBlur"/>
    </filter>
    <filter id="filter2_d" x="131.086" y="43.3999" width="7.14514" height="10.9714" filterUnits="userSpaceOnUse" color-interpolation-filters="sRGB">
      <feFlood flood-opacity="0" result="BackgroundImageFix"/>
      <feColorMatrix in="SourceAlpha" type="matrix" values="0 0 0 0 0 0 0 0 0 0 0 0 0 0 0 0 0 0 127 0" result="hardAlpha"/>
      <feOffset dy="0.685714"/>
      <feGaussianBlur stdDeviation="0.342857"/>
      <feComposite in2="hardAlpha" operator="out"/>
      <feColorMatrix type="matrix" values="0 0 0 0 0 0 0 0 0 0 0 0 0 0 0 0 0 0 0.2 0"/>
      <feBlend mode="normal" in2="BackgroundImageFix" result="effect1_dropShadow"/>
      <feBlend mode="normal" in="SourceGraphic" in2="effect1_dropShadow" result="shape"/>
    </filter>
    <filter id="filter3_f" x="118.886" y="42.0127" width="32.2286" height="21.0736" filterUnits="userSpaceOnUse" color-interpolation-filters="sRGB">
      <feFlood flood-opacity="0" result="BackgroundImageFix"/>
      <feBlend mode="normal" in="SourceGraphic" in2="BackgroundImageFix" result="shape"/>
      <feGaussianBlur stdDeviation="2.05714" result="effect1_foregroundBlur"/>
    </filter>
    <filter id="filter4_d" x="165.16" y="43.3999" width="9.55886" height="11.1086" filterUnits="userSpaceOnUse" color-interpolation-filters="sRGB">
      <feFlood flood-opacity="0" result="BackgroundImageFix"/>
      <feColorMatrix in="SourceAlpha" type="matrix" values="0 0 0 0 0 0 0 0 0 0 0 0 0 0 0 0 0 0 127 0" result="hardAlpha"/>
      <feOffset dy="0.685714"/>
      <feGaussianBlur stdDeviation="0.342857"/>
      <feComposite in2="hardAlpha" operator="out"/>
      <feColorMatrix type="matrix" values="0 0 0 0 0 0 0 0 0 0 0 0 0 0 0 0 0 0 0.2 0"/>
      <feBlend mode="normal" in2="BackgroundImageFix" result="effect1_dropShadow"/>
      <feBlend mode="normal" in="SourceGraphic" in2="effect1_dropShadow" result="shape"/>
    </filter>
    <filter id="filter5_f" x="153.886" y="42.0117" width="32.2286" height="21.0736" filterUnits="userSpaceOnUse" color-interpolation-filters="sRGB">
      <feFlood flood-opacity="0" result="BackgroundImageFix"/>
      <feBlend mode="normal" in="SourceGraphic" in2="BackgroundImageFix" result="shape"/>
      <feGaussianBlur stdDeviation="2.05714" result="effect1_foregroundBlur"/>
    </filter>
    <filter id="filter6_d" x="200.262" y="43.3999" width="9.55886" height="11.1086" filterUnits="userSpaceOnUse" color-interpolation-filters="sRGB">
      <feFlood flood-opacity="0" result="BackgroundImageFix"/>
      <feColorMatrix in="SourceAlpha" type="matrix" values="0 0 0 0 0 0 0 0 0 0 0 0 0 0 0 0 0 0 127 0" result="hardAlpha"/>
      <feOffset dy="0.685714"/>
      <feGaussianBlur stdDeviation="0.342857"/>
      <feComposite in2="hardAlpha" operator="out"/>
      <feColorMatrix type="matrix" values="0 0 0 0 0 0 0 0 0 0 0 0 0 0 0 0 0 0 0.2 0"/>
      <feBlend mode="normal" in2="BackgroundImageFix" result="effect1_dropShadow"/>
      <feBlend mode="normal" in="SourceGraphic" in2="effect1_dropShadow" result="shape"/>
    </filter>
    <filter id="filter7_f" x="188.886" y="42.0127" width="32.2286" height="21.0736" filterUnits="userSpaceOnUse" color-interpolation-filters="sRGB">
      <feFlood flood-opacity="0" result="BackgroundImageFix"/>
      <feBlend mode="normal" in="SourceGraphic" in2="BackgroundImageFix" result="shape"/>
      <feGaussianBlur stdDeviation="2.05714" result="effect1_foregroundBlur"/>
    </filter>
    <filter id="filter8_d" x="235.262" y="43.3999" width="9.55886" height="11.1086" filterUnits="userSpaceOnUse" color-interpolation-filters="sRGB">
      <feFlood flood-opacity="0" result="BackgroundImageFix"/>
      <feColorMatrix in="SourceAlpha" type="matrix" values="0 0 0 0 0 0 0 0 0 0 0 0 0 0 0 0 0 0 127 0" result="hardAlpha"/>
      <feOffset dy="0.685714"/>
      <feGaussianBlur stdDeviation="0.342857"/>
      <feComposite in2="hardAlpha" operator="out"/>
      <feColorMatrix type="matrix" values="0 0 0 0 0 0 0 0 0 0 0 0 0 0 0 0 0 0 0.2 0"/>
      <feBlend mode="normal" in2="BackgroundImageFix" result="effect1_dropShadow"/>
      <feBlend mode="normal" in="SourceGraphic" in2="effect1_dropShadow" result="shape"/>
    </filter>
    <filter id="filter9_f" x="223.886" y="42.0127" width="32.2286" height="21.0736" filterUnits="userSpaceOnUse" color-interpolation-filters="sRGB">
      <feFlood flood-opacity="0" result="BackgroundImageFix"/>
      <feBlend mode="normal" in="SourceGraphic" in2="BackgroundImageFix" result="shape"/>
      <feGaussianBlur stdDeviation="2.05714" result="effect1_foregroundBlur"/>
    </filter>
    <filter id="filter10_d" x="268.297" y="43.2627" width="9.35314" height="11.1086" filterUnits="userSpaceOnUse" color-interpolation-filters="sRGB">
      <feFlood flood-opacity="0" result="BackgroundImageFix"/>
      <feColorMatrix in="SourceAlpha" type="matrix" values="0 0 0 0 0 0 0 0 0 0 0 0 0 0 0 0 0 0 127 0" result="hardAlpha"/>
      <feOffset dy="0.685714"/>
      <feGaussianBlur stdDeviation="0.342857"/>
      <feComposite in2="hardAlpha" operator="out"/>
      <feColorMatrix type="matrix" values="0 0 0 0 0 0 0 0 0 0 0 0 0 0 0 0 0 0 0.2 0"/>
      <feBlend mode="normal" in2="BackgroundImageFix" result="effect1_dropShadow"/>
      <feBlend mode="normal" in="SourceGraphic" in2="effect1_dropShadow" result="shape"/>
    </filter>
    <filter id="filter11_f" x="256.886" y="42.0127" width="32.2286" height="21.0736" filterUnits="userSpaceOnUse" color-interpolation-filters="sRGB">
      <feFlood flood-opacity="0" result="BackgroundImageFix"/>
      <feBlend mode="normal" in="SourceGraphic" in2="BackgroundImageFix" result="shape"/>
      <feGaussianBlur stdDeviation="2.05714" result="effect1_foregroundBlur"/>
    </filter>
    <linearGradient id="paint0_linear" x1="81" y1="111" x2="209" y2="111" gradientUnits="userSpaceOnUse">
      <stop stop-color="#FF5722"/>
      <stop offset="0.494792" stop-color="#FFC108"/>
      <stop offset="1" stop-color="#8BC44A"/>
    </linearGradient>
    <linearGradient id="paint1_linear" x1="101" y1="36" x2="101" y2="48" gradientUnits="userSpaceOnUse">
      <stop stop-color="white" stop-opacity="0.6"/>
      <stop offset="1" stop-color="white" stop-opacity="0"/>
    </linearGradient>
    <linearGradient id="paint2_linear" x1="135" y1="36" x2="135" y2="48" gradientUnits="userSpaceOnUse">
      <stop stop-color="white" stop-opacity="0.6"/>
      <stop offset="1" stop-color="white" stop-opacity="0"/>
    </linearGradient>
    <linearGradient id="paint3_linear" x1="170" y1="36" x2="170" y2="48" gradientUnits="userSpaceOnUse">
      <stop stop-color="white" stop-opacity="0.6"/>
      <stop offset="1" stop-color="white" stop-opacity="0"/>
    </linearGradient>
    <linearGradient id="paint4_linear" x1="205" y1="36" x2="205" y2="48" gradientUnits="userSpaceOnUse">
      <stop stop-color="white" stop-opacity="0.6"/>
      <stop offset="1" stop-color="white" stop-opacity="0"/>
    </linearGradient>
    <linearGradient id="paint5_linear" x1="240" y1="36" x2="240" y2="48" gradientUnits="userSpaceOnUse">
      <stop stop-color="white" stop-opacity="0.6"/>
      <stop offset="1" stop-color="white" stop-opacity="0"/>
    </linearGradient>
    <linearGradient id="paint6_linear" x1="273" y1="36" x2="273" y2="48" gradientUnits="userSpaceOnUse">
      <stop stop-color="white" stop-opacity="0.6"/>
      <stop offset="1" stop-color="white" stop-opacity="0"/>
    </linearGradient>
    <clipPath id="clip0">
      <rect x="89" y="36" width="24" height="24" rx="12" fill="white"/>
    </clipPath>
    <clipPath id="clip1">
      <rect x="123" y="36" width="24" height="24" rx="12" fill="white"/>
    </clipPath>
    <clipPath id="clip2">
      <rect x="158" y="36" width="24" height="24" rx="12" fill="white"/>
    </clipPath>
    <clipPath id="clip3">
      <rect x="193" y="36" width="24" height="24" rx="12" fill="white"/>
    </clipPath>
    <clipPath id="clip4">
      <rect x="228" y="36" width="24" height="24" rx="12" fill="white"/>
    </clipPath>
    <clipPath id="clip5">
      <rect x="261" y="36" width="24" height="24" rx="12" fill="white"/>
    </clipPath>
  </defs>
</svg>
