<svg width="67" height="35" viewBox="0 0 67 35" fill="none" xmlns="http://www.w3.org/2000/svg">
<g filter="url(#filter0_f)">
<g clip-path="url(#clip0)">
<rect x="5.84961" y="33.564" width="40.3564" height="40.3564" rx="20.1782" transform="rotate(-45 5.84961 33.564)" fill="#3F51B5"/>
<g filter="url(#filter1_d)">
<path d="M37.4358 36.6839C37.9249 36.1947 38.2076 35.662 38.2837 35.0858C38.3707 34.4988 38.1913 33.9824 37.7456 33.5367C37.376 33.1671 36.9303 33.0149 36.4084 33.0801C35.8758 33.1345 35.3648 33.4063 34.8756 33.8955C34.7126 34.0585 34.5821 34.2325 34.4843 34.4173C34.3973 34.5912 34.2995 34.8195 34.1908 35.1021C34.0929 35.3956 34.0005 35.5859 33.9136 35.6729L31.3697 38.2167C31.2393 38.3471 31.0871 38.4123 30.9132 38.4123C30.7392 38.4123 30.5979 38.3471 30.4892 38.2167L25.157 31.9061C25.0483 31.7756 24.9885 31.6289 24.9776 31.4658C24.9776 31.2919 25.0374 31.1451 25.157 31.0255L32.1362 24.0463C32.2557 23.9268 32.4025 23.867 32.5764 23.867C32.7504 23.867 32.8971 23.9268 33.0167 24.0463L34.7452 25.7748C34.8648 25.8944 34.9246 26.0412 34.9246 26.2151C34.9246 26.389 34.8648 26.5358 34.7452 26.6554L30 31.4006L31.3371 32.966C31.5437 32.2594 31.9242 31.6289 32.4786 31.0744C33.3265 30.2265 34.2343 29.6232 35.2018 29.2644C36.1802 28.8948 37.1531 28.8133 38.1206 29.0198C39.0773 29.2155 39.9578 29.7156 40.7623 30.52C41.6102 31.3679 42.132 32.3029 42.3277 33.3247C42.5125 34.3357 42.4038 35.3576 42.0016 36.3903C41.5993 37.4231 40.9471 38.3906 40.0448 39.2929C39.0881 40.2495 38.0989 40.9235 37.077 41.3149C36.0443 41.6954 35.0768 41.815 34.1745 41.6736C33.2613 41.5214 32.4895 41.1518 31.8589 40.5648C31.7611 40.467 31.7122 40.3528 31.7122 40.2224C31.7122 40.0702 31.7611 39.9452 31.8589 39.8473L33.9299 37.7764C34.1799 37.5264 34.4625 37.4176 34.7778 37.4503C35.2996 37.5155 35.7616 37.5209 36.1639 37.4666C36.5661 37.3905 36.99 37.1296 37.4358 36.6839Z" fill="white"/>
</g>
<ellipse cx="27.2518" cy="26.4299" rx="20.1782" ry="10.0891" transform="rotate(-45 27.2518 26.4299)" fill="url(#paint0_linear)"/>
<g filter="url(#filter2_f)">
<path fill-rule="evenodd" clip-rule="evenodd" d="M46.3927 17.1037C53.4991 25.2423 53.3426 37.4362 45.8007 44.9782C38.258 52.5209 26.0622 52.6766 17.9236 45.5679C18.2327 45.9233 18.5564 46.2705 18.8946 46.6087C26.7747 54.4888 39.5508 54.4888 47.4309 46.6087C55.311 38.7286 55.311 25.9525 47.4309 18.0724C47.0936 17.735 46.7473 17.4121 46.3927 17.1037Z" fill="#060709"/>
</g>
</g>
</g>
<defs>
<filter id="filter0_f" x="0.849609" y="0.0275879" width="67.0726" height="67.0726" filterUnits="userSpaceOnUse" color-interpolation-filters="sRGB">
<feFlood flood-opacity="0" result="BackgroundImageFix"/>
<feBlend mode="normal" in="SourceGraphic" in2="BackgroundImageFix" result="shape"/>
<feGaussianBlur stdDeviation="2.5" result="effect1_foregroundBlur"/>
</filter>
<filter id="filter1_d" x="23.8255" y="23.8669" width="19.7434" height="20.1702" filterUnits="userSpaceOnUse" color-interpolation-filters="sRGB">
<feFlood flood-opacity="0" result="BackgroundImageFix"/>
<feColorMatrix in="SourceAlpha" type="matrix" values="0 0 0 0 0 0 0 0 0 0 0 0 0 0 0 0 0 0 127 0" result="hardAlpha"/>
<feOffset dy="1.15304"/>
<feGaussianBlur stdDeviation="0.576521"/>
<feComposite in2="hardAlpha" operator="out"/>
<feColorMatrix type="matrix" values="0 0 0 0 0 0 0 0 0 0 0 0 0 0 0 0 0 0 0.2 0"/>
<feBlend mode="normal" in2="BackgroundImageFix" result="effect1_dropShadow"/>
<feBlend mode="normal" in="SourceGraphic" in2="effect1_dropShadow" result="shape"/>
</filter>
<filter id="filter2_f" x="10.9704" y="10.1482" width="57.6469" height="57.6469" filterUnits="userSpaceOnUse" color-interpolation-filters="sRGB">
<feFlood flood-opacity="0" result="BackgroundImageFix"/>
<feBlend mode="normal" in="SourceGraphic" in2="BackgroundImageFix" result="shape"/>
<feGaussianBlur stdDeviation="3.45912" result="effect1_foregroundBlur"/>
</filter>
<linearGradient id="paint0_linear" x1="27.2518" y1="16.3408" x2="27.2518" y2="36.519" gradientUnits="userSpaceOnUse">
<stop stop-color="white" stop-opacity="0.6"/>
<stop offset="1" stop-color="white" stop-opacity="0"/>
</linearGradient>
<clipPath id="clip0">
<rect x="5.84961" y="33.564" width="40.3564" height="40.3564" rx="20.1782" transform="rotate(-45 5.84961 33.564)" fill="white"/>
</clipPath>
</defs>
</svg>
