<svg width="67" height="65" viewBox="0 0 67 65" fill="none"
  xmlns="http://www.w3.org/2000/svg">
  <g filter="url(#filter0_f)">
    <g clip-path="url(#clip0)">
      <rect x="4.33398" y="15.2061" width="49.525" height="49.525" rx="24.7625" transform="rotate(-15 4.33398 15.2061)" fill="#03A9F4"/>
      <g filter="url(#filter1_d)">
        <path d="M36.1811 37.1843L43.0424 35.3458C43.2428 35.2921 43.4355 35.3186 43.6203 35.4254C43.8052 35.5321 43.9245 35.6857 43.9782 35.8861L44.7546 38.7837C44.8083 38.9842 44.7818 39.1768 44.6751 39.3617C44.5684 39.5466 44.4148 39.6658 44.2143 39.7196L29.7811 43.5869C29.5806 43.6406 29.3879 43.6141 29.2031 43.5074C29.0182 43.4007 28.8989 43.2471 28.8452 43.0466L28.2153 40.6958C28.0298 40.0033 28.15 39.3948 28.5759 38.8705L35.1818 30.8307C35.6478 30.237 35.9231 29.7336 36.0076 29.3203C36.1055 28.8838 36.0959 28.4469 35.9787 28.0096C35.8566 27.554 35.5706 27.1423 35.1204 26.7746C34.6886 26.402 34.0261 26.3354 33.1332 26.5747C32.5136 26.7407 32.0557 27.0001 31.7596 27.3529C31.4768 27.6826 31.3101 27.9714 31.2593 28.2194C31.2219 28.4443 31.1798 28.7974 31.133 29.2787C31.1053 29.54 31.0126 29.7406 30.8548 29.8806C30.697 30.0205 30.4814 30.1271 30.208 30.2004L26.8457 31.1013C26.6817 31.1453 26.5213 31.1297 26.3644 31.0545C26.2209 30.9562 26.1271 30.8251 26.0832 30.6611C25.8315 29.5761 25.8588 28.475 26.1649 27.3578C26.4662 26.2223 27.0987 25.1934 28.0626 24.271C29.0215 23.3305 30.312 22.6429 31.9339 22.2083C33.4829 21.7932 34.8938 21.7374 36.1666 22.041C37.4345 22.3263 38.4828 22.8853 39.3114 23.718C40.1534 24.5276 40.7282 25.5064 41.0358 26.6545C41.3337 27.7662 41.3496 28.846 41.0834 29.8939C40.8307 30.9187 40.2134 32.0412 39.2317 33.2613L36.1811 37.1843Z" fill="white"/>
      </g>
      <ellipse cx="31.4572" cy="20.7564" rx="24.7625" ry="12.3812" transform="rotate(-15 31.4572 20.7564)" fill="url(#paint0_linear)"/>
      <g filter="url(#filter2_f)">
        <path fill-rule="evenodd" clip-rule="evenodd" d="M57.5231 22.5912C60.081 35.6006 52.4326 48.4633 39.79 51.8508C27.1454 55.2389 14.0882 47.9208 9.8008 35.3717C9.91132 35.9397 10.0424 36.5077 10.1944 37.0751C13.734 50.285 27.3122 58.1244 40.5221 54.5848C53.7321 51.0452 61.5714 37.467 58.0319 24.2571C57.8804 23.6918 57.7105 23.1363 57.5231 22.5912Z" fill="#060709"/>
      </g>
    </g>
  </g>
  <defs>
    <filter id="filter0_f" x="-2.66602" y="-4.61206" width="74.6555" height="74.6555" filterUnits="userSpaceOnUse" color-interpolation-filters="sRGB">
      <feFlood flood-opacity="0" result="BackgroundImageFix"/>
      <feBlend mode="normal" in="SourceGraphic" in2="BackgroundImageFix" result="shape"/>
      <feGaussianBlur stdDeviation="3.5" result="effect1_foregroundBlur"/>
    </filter>
    <filter id="filter1_d" x="24.4971" y="21.8486" width="21.6987" height="24.5952" filterUnits="userSpaceOnUse" color-interpolation-filters="sRGB">
      <feFlood flood-opacity="0" result="BackgroundImageFix"/>
      <feColorMatrix in="SourceAlpha" type="matrix" values="0 0 0 0 0 0 0 0 0 0 0 0 0 0 0 0 0 0 127 0" result="hardAlpha"/>
      <feOffset dy="1.415"/>
      <feGaussianBlur stdDeviation="0.7075"/>
      <feComposite in2="hardAlpha" operator="out"/>
      <feColorMatrix type="matrix" values="0 0 0 0 0 0 0 0 0 0 0 0 0 0 0 0 0 0 0.2 0"/>
      <feBlend mode="normal" in2="BackgroundImageFix" result="effect1_dropShadow"/>
      <feBlend mode="normal" in="SourceGraphic" in2="effect1_dropShadow" result="shape"/>
    </filter>
    <filter id="filter2_f" x="1.31078" y="14.1011" width="66.061" height="49.8235" filterUnits="userSpaceOnUse" color-interpolation-filters="sRGB">
      <feFlood flood-opacity="0" result="BackgroundImageFix"/>
      <feBlend mode="normal" in="SourceGraphic" in2="BackgroundImageFix" result="shape"/>
      <feGaussianBlur stdDeviation="4.245" result="effect1_foregroundBlur"/>
    </filter>
    <linearGradient id="paint0_linear" x1="31.4572" y1="8.37517" x2="31.4572" y2="33.1377" gradientUnits="userSpaceOnUse">
      <stop stop-color="white" stop-opacity="0.6"/>
      <stop offset="1" stop-color="white" stop-opacity="0"/>
    </linearGradient>
    <clipPath id="clip0">
      <rect x="4.33398" y="15.2061" width="49.525" height="49.525" rx="24.7625" transform="rotate(-15 4.33398 15.2061)" fill="white"/>
    </clipPath>
  </defs>
</svg>
