<svg width="148" height="140" viewBox="0 0 148 140" fill="none" xmlns="http://www.w3.org/2000/svg">
<path d="M0 140H8.44584V0H0V140Z" fill="#2BE2B3"/>
<path d="M139.554 140H148V0H139.554V140Z" fill="#2BE2B3"/>
<path d="M131.108 140H122.431V74.4505H4.22241V65.748H131.108V140Z" fill="#2BE2B3"/>
<path d="M114.183 139.999H105.737V91.6231H6.33337V82.7222H114.183V139.999Z" fill="#2BE2B3"/>
<path d="M97.2582 140H88.6144V110.319H6.33337V101.848H97.2582V140Z" fill="#2BE2B3"/>
<path d="M52.8507 139.999H61.2965V106.05H52.8507V139.999Z" fill="#2BE2B3"/>
<path d="M33.8165 140H42.2624V108.168H33.8165V140Z" fill="#2BE2B3"/>
<path d="M16.9236 139.999H25.3695V106.05H16.9236V139.999Z" fill="#2BE2B3"/>
<path d="M16.9236 0V74.2519H143.809V65.5495H25.6004V0H16.9236Z" fill="#2BE2B3"/>
<path d="M35.9272 0V57.2772H143.777V48.3762H44.4061V0H35.9272Z" fill="#2BE2B3"/>
<path d="M141.698 38.1848H50.7728V0H59.4496V29.6809H141.731V38.1848H141.698Z" fill="#2BE2B3"/>
<path d="M86.7001 33.9494H95.146V0H86.7001V33.9494Z" fill="#2BE2B3"/>
<path d="M105.738 31.8317H114.184V0H105.738V31.8317Z" fill="#2BE2B3"/>
<path d="M122.662 33.9494H131.108V0H122.662V33.9494Z" fill="#2BE2B3"/>
</svg>
