<svg version="1.2" baseProfile="tiny-ps" xmlns="http://www.w3.org/2000/svg" viewBox="0 0 150 18" width="150" height="18">
	<title>image</title>
	<style>
		tspan { white-space:pre }
		.shp0 { fill: #2be2b3 } 
	</style>
	<path id="Layer" class="shp0" d="M11.98 0.88L11.98 6.65L4.91 6.65L4.91 0.88L0 0.88L0 18L5.14 18L5.14 12.02L12.22 12.02L12.22 18L17.36 18L17.36 0.88L11.98 0.88Z" />
	<path id="Layer" class="shp0" d="M53.91 0.88L51.34 0.88L51.34 18L70.59 18L70.59 13.09L56.68 13.09L56.68 5.62L70.59 5.62L70.59 0.71L53.91 0.71L53.91 0.88Z" />
	<path id="Layer" class="shp0" d="M144.63 0.88L144.63 8.15L137.55 0.88L132.64 0.88L132.64 18L137.78 18L137.78 10.29L144.86 18L150 18L150 0.88L144.63 0.88Z" />
	<path id="Layer" class="shp0" d="M92.86 0.88L92.86 6.65L84.51 6.65L84.51 0.88L79.17 0.88L79.17 18L84.75 18L84.75 12.02L93.09 12.02L93.09 18L98.67 18L98.67 11.79L93.52 11.79L98.67 6.65L98.67 0.88L92.86 0.88Z" />
	<path id="Layer" fill-rule="evenodd" class="shp0" d="M42.56 0.88L42.56 18L37.65 18L37.65 14.36L30.57 14.36L30.57 18L25.67 18L25.67 0.88L42.56 0.88ZM37.85 5.78L30.77 5.78L30.77 9.22L37.85 9.22L37.85 5.78Z" />
	<path id="Layer" class="shp0" d="M108.48 0.88L106.98 0.88L106.98 18L108.25 18L123.87 18L123.87 13.09L111.68 13.09L111.68 11.82L123.87 11.82L123.87 6.92L111.68 6.92L111.68 5.65L123.87 5.65L123.87 0.74L108.45 0.74L108.45 0.88L108.48 0.88Z" />
</svg>