<svg version="1.2" baseProfile="tiny-ps" xmlns="http://www.w3.org/2000/svg" viewBox="0 0 149 18" width="149" height="18">
	<title>image</title>
	<style>
		tspan { white-space:pre }
		.shp0 { fill: #ffffff } 
	</style>
	<path id="Layer" fill-rule="evenodd" class="shp0" d="M18.2 0.01L3.04 0.01C2.64 0.01 2.24 0.08 1.88 0.23C1.51 0.38 1.17 0.61 0.89 0.88C0.6 1.16 0.38 1.49 0.23 1.86C0.08 2.22 0 2.61 0 3.01L0 15C0 15.4 0.08 15.79 0.23 16.15C0.38 16.52 0.6 16.85 0.89 17.13C1.17 17.4 1.51 17.63 1.88 17.78C2.24 17.93 2.64 18 3.04 18L18.2 18L18.2 15.97L3.04 15.97C2.78 15.97 2.53 15.86 2.34 15.68C2.16 15.5 2.05 15.25 2.05 14.99L2.05 3C2.05 2.74 2.16 2.49 2.34 2.31C2.53 2.13 2.78 2.03 3.04 2.02L18.2 2.02L18.2 0.01ZM29.99 0L29.99 18L46.65 18L46.65 15.96L32.05 15.96L32.05 10.02L43.79 10.02L43.79 7.97L32.06 7.97L32.06 2.03L46.65 2.03L46.65 0L29.99 0Z" />
	<path id="Layer" fill-rule="evenodd" class="shp0" d="M76.7 3.02L76.7 8.3C76.71 8.69 76.63 9.08 76.48 9.45C76.32 9.81 76.1 10.14 75.82 10.42C75.53 10.7 75.2 10.92 74.83 11.07C74.46 11.22 74.06 11.3 73.66 11.29L70.88 11.29L76.6 17.99L73.89 17.99L68.19 11.29L61.49 11.29C61.16 11.28 60.83 11.24 60.5 11.19L60.5 17.99L58.44 17.99L58.44 0.03L73.65 0.03C74.05 0.02 74.44 0.1 74.81 0.25C75.18 0.4 75.52 0.62 75.8 0.9C76.08 1.18 76.31 1.51 76.46 1.87C76.61 2.24 76.69 2.63 76.69 3.02L76.7 3.02ZM61.5 9.25L73.66 9.25C73.79 9.25 73.92 9.22 74.03 9.18C74.15 9.13 74.26 9.06 74.35 8.97C74.44 8.88 74.51 8.78 74.56 8.66C74.6 8.55 74.63 8.42 74.63 8.3L74.63 3.02C74.63 2.9 74.6 2.77 74.56 2.65C74.51 2.53 74.44 2.43 74.35 2.34C74.26 2.24 74.15 2.17 74.04 2.12C73.92 2.07 73.79 2.05 73.66 2.05L61.5 2.05C61.24 2.05 60.99 2.15 60.8 2.34C60.62 2.52 60.51 2.77 60.51 3.02L60.51 8.3C60.51 8.42 60.53 8.55 60.58 8.67C60.63 8.78 60.71 8.89 60.8 8.97C60.89 9.06 61 9.13 61.12 9.18C61.24 9.23 61.37 9.25 61.5 9.25Z" />
	<path id="Layer" fill-rule="evenodd" class="shp0" d="M87.6 2.03L95.71 2.03L95.71 18L97.77 18L97.77 2.03L105.84 2.03L105.84 0L87.6 0L87.6 2.03ZM118.95 17.99L118.95 0L116.89 0L116.89 17.99L118.95 17.99ZM139.55 7.97L133.67 7.97L133.67 0L131.59 0L131.59 17.99L133.67 17.99L133.67 10.02L139.55 10.02L146.34 17.99L149 17.99L141.35 8.99L148.97 0L146.34 0L139.55 7.97Z" />
</svg>