<svg version="1.2" baseProfile="tiny-ps" xmlns="http://www.w3.org/2000/svg" viewBox="0 0 136 150" width="136" height="150">
	<title>image</title>
	<defs>
		<linearGradient id="grd1" gradientUnits="userSpaceOnUse"  x1="172.031" y1="46.96" x2="172.031" y2="102.218">
			<stop offset="0" stop-color="#ffffff"  />
			<stop offset="1" stop-color="#ffffff"  />
		</linearGradient>
		<linearGradient id="grd2" gradientUnits="userSpaceOnUse"  x1="172.031" y1="46.96" x2="172.031" y2="102.218">
			<stop offset="0" stop-color="#ffffff"  />
			<stop offset="1" stop-color="#ffffff"  />
		</linearGradient>
		<linearGradient id="grd3" gradientUnits="userSpaceOnUse"  x1="172.031" y1="46.96" x2="172.031" y2="102.218">
			<stop offset="0" stop-color="#ffffff"  />
			<stop offset="1" stop-color="#ffffff"  />
		</linearGradient>
		<linearGradient id="grd4" gradientUnits="userSpaceOnUse"  x1="172.031" y1="46.96" x2="172.031" y2="102.218">
			<stop offset="0" stop-color="#ffffff"  />
			<stop offset="1" stop-color="#ffffff"  />
		</linearGradient>
	</defs>
	<style>
		tspan { white-space:pre }
		.shp0 { fill: url(#grd1) } 
		.shp1 { fill: url(#grd2) } 
		.shp2 { fill: url(#grd3) } 
		.shp3 { fill: url(#grd4) } 
	</style>
	<path id="Layer" fill-rule="evenodd" class="shp0" d="M128.38 22.86L129.16 27.6C129.78 32.02 130.06 36.47 130.02 40.93C130.01 50.78 128.82 60.59 126.48 70.16C123.32 83.16 117.8 95.46 110.2 106.47C101.43 119.11 88.74 131.54 70.25 141.53L67.98 142.75L65.72 141.53C47.23 131.54 34.54 119.11 25.76 106.47C18.17 95.46 12.65 83.16 9.49 70.16C7.14 60.6 5.96 50.78 5.95 40.94C5.9 36.48 6.19 32.02 6.81 27.61L7.59 22.86C7.66 22.48 7.65 22.08 7.56 21.7C7.47 21.31 7.31 20.95 7.09 20.63C6.86 20.31 6.57 20.04 6.24 19.83C5.91 19.62 5.54 19.48 5.15 19.42C4.76 19.36 4.37 19.37 3.98 19.46C3.6 19.55 3.24 19.71 2.92 19.94C2.61 20.17 2.34 20.46 2.13 20.8C1.93 21.13 1.79 21.5 1.73 21.89L0.94 26.64C0.27 31.37 -0.04 36.15 0 40.94C0.01 51.27 1.25 61.56 3.71 71.6C7.06 85.31 12.88 98.28 20.89 109.88C30.15 123.24 43.59 136.37 62.92 146.79L66.6 148.77C67.03 149 67.52 149.12 68.01 149.12C68.5 149.12 68.98 149 69.42 148.77L73.09 146.79C92.4 136.36 105.84 123.24 115.12 109.88C123.13 98.28 128.95 85.31 132.29 71.61C134.75 61.57 135.99 51.27 136 40.94C136.04 36.16 135.73 31.38 135.06 26.64L134.27 21.9C134.21 21.51 134.07 21.14 133.87 20.8C133.66 20.47 133.39 20.18 133.08 19.95C132.76 19.72 132.4 19.55 132.02 19.46C131.63 19.37 131.24 19.36 130.85 19.42C130.47 19.49 130.09 19.63 129.76 19.84C129.43 20.05 129.14 20.32 128.91 20.64C128.69 20.96 128.53 21.32 128.44 21.7C128.35 22.09 128.34 22.48 128.41 22.87L128.38 22.86Z" />
	<path id="Layer" fill-rule="evenodd" class="shp1" d="M23.83 19.63L67.99 6.11L113.14 19.92C113.89 20.14 114.71 20.06 115.4 19.69C116.1 19.31 116.62 18.68 116.84 17.92C117.07 17.17 117 16.35 116.63 15.65C116.25 14.95 115.62 14.43 114.87 14.2L68.86 0.13C68.29 -0.04 67.69 -0.04 67.12 0.13L22.09 13.9C21.71 14.01 21.36 14.2 21.06 14.45C20.75 14.69 20.5 15 20.32 15.35C20.13 15.69 20.02 16.07 19.98 16.46C19.94 16.86 19.98 17.25 20.09 17.63C20.2 18 20.39 18.35 20.64 18.66C20.89 18.96 21.2 19.21 21.55 19.4C21.89 19.58 22.27 19.7 22.66 19.73C23.05 19.77 23.45 19.73 23.82 19.62L23.83 19.63Z" />
	<path id="Layer" fill-rule="evenodd" class="shp2" d="M2.02 23.73L65.33 147.49C65.58 147.98 65.95 148.38 66.42 148.67C66.88 148.95 67.41 149.11 67.95 149.11C68.49 149.12 69.03 148.97 69.49 148.7C69.96 148.42 70.34 148.02 70.59 147.54L109.2 75.22L109.26 75.1L133.97 23.65C134.31 22.94 134.35 22.12 134.09 21.38C133.83 20.64 133.28 20.04 132.58 19.69C131.87 19.35 131.06 19.3 130.32 19.56C129.58 19.81 128.97 20.35 128.62 21.05L103.95 72.46L68.07 139.72L7.31 21.01C7.14 20.66 6.89 20.34 6.6 20.08C6.3 19.83 5.95 19.63 5.58 19.51C5.21 19.38 4.81 19.34 4.42 19.37C4.03 19.4 3.65 19.51 3.3 19.69C2.95 19.87 2.64 20.11 2.38 20.41C2.13 20.71 1.94 21.06 1.82 21.44C1.7 21.81 1.66 22.21 1.69 22.6C1.73 22.99 1.84 23.37 2.02 23.72L2.02 23.73Z" />
	<path id="Layer" fill-rule="evenodd" class="shp3" d="M32.33 78.85L102.73 78.85C103.52 78.85 104.28 78.54 104.83 77.98C105.39 77.42 105.7 76.66 105.7 75.87C105.7 75.08 105.39 74.33 104.83 73.77C104.28 73.21 103.52 72.9 102.73 72.9L32.33 72.9C31.54 72.9 30.79 73.21 30.23 73.77C29.67 74.33 29.36 75.08 29.36 75.87C29.36 76.66 29.67 77.42 30.23 77.98C30.79 78.54 31.54 78.85 32.33 78.85Z" />
</svg>