<svg xmlns="http://www.w3.org/2000/svg" width="120" height="120" viewBox="0 0 120 120" fill="none">
  <g clip-path="url(#clip0)">
    <path
      d="M52.7927 119.229C50.3265 119.229 49.2055 119.566 46.5151 119.903C41.1344 120.576 42.2553 117.657 41.3586 114.064C40.4619 110.471 39.3408 109.798 35.3053 107.103C31.2697 104.408 27.01 100.591 25.6648 99.0188C24.3196 97.4469 21.405 95.875 19.1631 95.4259C16.9211 94.9767 12.8854 89.5873 10.6434 85.3207C8.40142 81.0541 5.48719 73.6437 5.03868 66.2333C4.62607 59.4161 5.71105 48.0441 10.6434 38.1635C15.5757 28.283 26.3373 20.8726 31.0454 19.5252C35.7536 18.1779 36.6503 17.5042 42.0311 14.1358C47.4118 10.7675 54.3619 11.6657 58.8459 13.4621C63.3298 15.2586 62.6572 14.8095 67.5896 14.1358C72.5219 13.4621 73.8671 16.606 75.2123 16.606C76.5574 16.606 82.4511 7.08282 86.4866 2.14254C90.5222 -2.79773 91.3381 2.10843 91.1139 3.9049C90.8897 5.70136 85.9737 25.3637 85.3011 27.3848C84.6285 29.4058 91.1303 29.6303 93.8206 30.5286C96.511 31.4268 96.511 35.0197 96.7352 36.1425C96.9594 37.2653 101.892 37.2653 105.255 38.1635C108.618 39.0618 114.895 41.3074 115.119 48.0441C115.344 54.7808 112.429 60.1702 109.963 67.3561C107.497 74.542 109.963 84.8716 108.618 88.0154C107.272 91.1593 102.34 100.815 95.8384 104.184C89.3367 107.552 81.4898 107.327 79.472 107.777C77.4542 108.226 72.0363 114.199 66.6928 116.759C61.5363 119.229 54.7082 119.229 52.7927 119.229Z"
      fill="url(#paint0_linear)" />
    <g opacity="0.3">
      <path
        d="M95.9614 80.5673C95.6089 78.4525 92.0686 75.2803 91.5545 74.6194C89.5714 72.6367 92.4359 72.5927 95.9614 73.2976C98.1648 73.7382 100.853 74.6194 101.69 78.805C102.043 80.5673 101.69 84.3123 98.1649 84.7529C94.6394 85.1935 96.4021 83.2109 95.9614 80.5673Z"
        fill="black" />
      <path
        d="M108.041 49.8359C108.606 49.1609 110.317 49.0617 111.101 49.0965C112.848 49.4108 111.294 56.5795 110.068 56.8443C108.841 57.1091 107.336 55.9922 107.071 54.7656C106.806 53.539 107.334 50.6797 108.041 49.8359Z"
        fill="black" />
      <path
        d="M100.94 49.0577C103.195 49.1083 104.884 50.0631 105.446 50.5342C105.994 51.4233 106.003 53.2975 105.83 54.8753C105.657 56.4531 99.4731 55.4376 96.3128 56.8109C93.1526 58.1842 90.0707 62.2068 88.8893 61.2176C87.7078 60.2283 87.8849 56.9313 88.3542 55.171C88.8235 53.4107 88.6589 51.5503 87.4596 52.1251L87.4196 52.1443C86.2173 52.7207 84.2982 53.6409 82.9629 52.5228C81.6127 51.3922 79.0083 50.2163 79.0453 52.4006C79.0823 54.5849 75.5626 58.9587 73.1598 61.8276C70.7571 64.6964 71.5365 62.9087 73.3136 56.5014C75.0907 50.0941 73.2287 44.9461 71.8702 47.2538C70.5117 49.5616 70.0835 51.787 69.3535 50.6015C68.6236 49.416 69.8216 43.5287 71.3077 40.8972C72.7938 38.2657 70.9469 38.5853 69.2728 37.3271C67.5988 36.0689 70.8412 35.6259 74.5078 34.6766C78.1743 33.7273 90.3332 35.1519 91.2182 36.3236C92.1032 37.4954 92.4367 39.4971 91.5475 40.0446C90.6583 40.592 90.978 42.4387 92.2047 42.174C93.4315 41.9092 97.7457 41.2151 102.9 42.9468C108.053 44.6785 108.473 45.8914 106.261 45.6183C104.049 45.3451 96.689 46.9337 95.5034 47.6636C94.3178 48.3934 94.0447 50.6051 95.1301 50.5091C96.2155 50.4131 98.1215 48.9945 100.94 49.0577Z"
        fill="black" />
      <path
        d="M82.002 76.9833C82.562 69.1836 84.0303 65.762 84.6944 65.0262C85.031 64.5276 87.5171 63.3702 86.2284 71.7656C84.9398 80.161 87.3685 89.9464 88.0806 92.696C88.7927 95.4455 95.264 94.4044 98.9579 93.7652C102.652 93.1259 101.138 95.4473 99.0182 97.9786C96.8982 100.51 89.8574 103.945 88.1518 104.096C86.4461 104.247 91.0376 99.622 91.5206 98.0168C92.0036 96.4115 89.3498 98.2088 85.5241 100.891C81.6984 103.573 80.613 103.669 82.9417 96.4318C85.2704 89.1944 81.3021 86.7329 82.002 76.9833Z"
        fill="black" />
      <path
        d="M53.0865 42.5748C55.5796 40.2189 59.9482 39.7628 61.8209 39.8292C63.0832 39.804 62.2494 44.2582 61.3289 44.7002C60.4085 45.1422 58.5289 43.2928 58.1073 46.2471C57.6858 49.2014 60.5017 48.2838 60.6713 48.6369C60.841 48.99 59.9532 53.0371 59.374 53.8946C58.7947 54.7521 56.6771 54.1757 54.0526 52.2495C51.4281 50.3233 49.97 45.5196 53.0865 42.5748Z"
        fill="black" />
      <path
        d="M85.9248 11.597L73.7079 28.3532C73.0986 29.2009 72.7145 30.2822 75.3039 31.3131C77.3755 32.1378 79.8694 31.8828 80.1963 31.3131C83.9417 19.0871 85.9248 14.6812 86.5858 12.2579C86.8223 11.391 86.3654 11.1565 85.9248 11.597Z"
        fill="black" />
      <path
        d="M82.9231 43.8533C81.4134 42.6325 77.8494 41.912 76.2562 41.7044C77.0094 39.2502 84.8996 40.6279 86.399 40.9254C87.8984 41.2229 87.4029 42.3638 86.7082 44.2287C86.0135 46.0937 84.8103 45.3793 82.9231 43.8533Z"
        fill="black" />
      <path
        d="M89.6707 89.1406C89.6707 86.4971 90.7465 84.3123 91.9951 82.55C93.1361 80.7876 93.0969 81.9073 93.0969 85.6341C93.0969 89.5377 94.0777 90.0218 96.0608 90.0218C97.6032 90.0218 99.8066 89.5812 101.349 88.0392C102.01 87.3783 103.233 84.3123 103.894 84.5326C104.555 84.7529 103.332 89.3609 102.01 90.6827C100.688 92.0045 97.1625 92.2247 94.0777 92.445C90.9928 92.6653 89.6707 92.445 89.6707 89.1406Z"
        fill="black" />
      <path
        d="M105.47 65.8771C104.873 66.3275 105.032 65.2969 105.186 64.7252C107.629 58.3938 103.614 60.0566 100.655 60.5325C97.6961 61.0085 95.7807 66.7464 94.6636 68.3697C93.5465 69.993 94.4058 65.4419 95.1125 61.9817C95.8191 58.5215 100.742 58.3203 103.234 58.0015C105.726 57.6828 108.563 58.0795 108.476 60.2918C108.389 62.504 106.216 65.3142 105.47 65.8771Z"
        fill="black" />
      <path
        d="M65.627 59.6587C67.5835 58.3303 67.6172 60.1334 67.3895 61.2011C65.1818 74.6094 77.315 83.8775 78.6407 85.4783C79.9664 87.079 70.966 82.9484 65.6047 76.1087C60.2435 69.2689 63.1815 61.3193 65.627 59.6587Z"
        fill="black" />
      <path
        d="M66.9752 32.525C65.9176 32.525 63.8904 30.6158 63.009 29.6612C54.4156 19.9682 48.2459 20.6291 46.0424 20.8494C43.839 21.0697 43.1779 21.0697 43.839 20.4088C44.5 19.7479 49.5679 17.3247 53.7545 17.9856C57.9411 18.6465 61.2463 20.4088 63.6701 24.3741C66.0939 28.3394 66.9752 28.78 67.4159 28.3394C67.8566 27.8988 67.1956 25.2553 66.9752 22.832C66.7549 20.4088 69.1787 20.4088 69.6194 20.4088C70.0601 20.4088 73.5856 21.0697 71.8228 26.1365C70.0601 31.2032 68.2973 32.525 66.9752 32.525Z"
        fill="black" />
      <path
        d="M37.6692 25.4756C47.8932 24.2419 56.3251 28.9269 59.2631 31.4235C61.9072 33.6265 57.5003 34.5077 50.6696 31.4235C43.8389 28.3394 38.1099 30.7626 35.6861 31.8641C33.2623 32.9656 36.7878 32.525 41.6354 32.7453C46.483 32.9656 49.7882 36.7106 50.4492 38.2527C51.1103 39.7947 49.1272 38.0324 42.0761 36.7106C35.025 35.3888 30.8385 37.3715 27.974 38.6932C25.1095 40.015 30.3978 39.1338 33.9233 38.9135C37.4488 38.6932 43.1778 39.1338 29.296 43.76C15.4143 48.3862 12.1091 61.1633 10.787 64.9083C9.46495 68.6533 9.46495 65.1286 11.6684 53.6733C13.8719 42.218 24.8891 27.0176 37.6692 25.4756Z"
        fill="black" />
      <path
        d="M40.9744 45.5224C42.3846 45.5224 41.562 46.8441 40.9744 47.505C22.4655 74.3809 40.9744 103.68 41.8557 106.103C42.7371 108.527 28.4147 99.2742 24.4484 89.1406C20.4822 79.0071 23.7874 70.4156 23.7874 69.5344C23.7874 68.6533 22.0246 70.4156 20.0415 74.8215C18.0794 79.1807 18.7058 84.1869 19.1461 87.7064L19.1602 87.8189C19.6008 91.3436 18.2788 89.5812 17.6178 88.0392C16.9568 86.4971 11.2278 75.923 18.2788 60.943C25.3299 45.963 39.2117 45.5224 40.9744 45.5224Z"
        fill="black" />
      <path
        d="M44.7202 52.7921C45.7779 51.206 45.6016 53.1592 45.3813 54.3341C44.2796 61.8241 43.8389 69.975 53.0934 86.7174C62.3479 103.46 53.5341 112.272 51.1103 114.034C48.6865 115.796 45.3813 119.101 47.5847 114.034C49.7882 108.967 50.0085 101.697 40.9744 84.955C31.9402 68.2127 43.3982 54.7747 44.7202 52.7921Z"
        fill="black" />
      <path
        d="M52.4323 71.5171C51.1984 63.939 56.3251 59.9884 59.0427 58.9603C59.7037 58.9603 60.8055 56.9777 59.0427 63.5865C57.2799 70.1953 59.4834 76.1433 62.5682 80.1086C65.6531 84.0739 78.2128 92.2248 76.2297 100.816C74.2466 109.408 66.7548 113.153 63.0089 115.135C59.2631 117.118 57.0596 117.999 62.1275 113.153C67.1955 108.306 70.9414 99.0539 64.5513 90.2421C58.1613 81.4303 53.9747 80.9897 52.4323 71.5171Z"
        fill="black" />
    </g>
    <path
      d="M95.9614 78.3641C95.6088 76.2493 92.0685 73.077 91.5544 72.4162C89.5713 70.4335 92.4358 70.3895 95.9613 71.0944C98.1648 71.535 100.853 72.4162 101.69 76.6018C102.043 78.3641 101.69 82.1091 98.1648 82.5497C94.6393 82.9903 96.402 81.0076 95.9614 78.3641Z"
      fill="#EA1E62" />
    <path
      d="M108.041 47.6329C108.606 46.9579 110.317 46.8587 111.101 46.8935C112.848 47.2078 111.295 54.3765 110.068 54.6413C108.841 54.906 107.336 53.7892 107.071 52.5626C106.806 51.336 107.334 48.4767 108.041 47.6329Z"
      fill="white" />
    <path
      d="M100.94 46.8547C103.195 46.9053 104.884 47.8601 105.446 48.3312C105.994 49.2202 106.003 51.0944 105.83 52.6723C105.658 54.2501 99.4732 53.2346 96.3129 54.6079C93.1527 55.9812 90.0708 60.0038 88.8894 59.0145C87.7079 58.0253 87.885 54.7283 88.3543 52.968C88.8236 51.2077 88.659 49.3472 87.4597 49.9221L87.4197 49.9413C86.2174 50.5177 84.2983 51.4379 82.963 50.3198C81.6128 49.1892 79.0084 48.0133 79.0454 50.1976C79.0824 52.3818 75.5627 56.7557 73.1599 59.6245C70.7572 62.4934 71.5366 60.7056 73.3137 54.2983C75.0908 47.891 73.2288 42.7431 71.8703 45.0508C70.5118 47.3585 70.0836 49.5839 69.3536 48.3985C68.6237 47.213 69.8217 41.3257 71.3078 38.6942C72.7939 36.0627 70.947 36.3823 69.2729 35.1241C67.5989 33.8659 70.8413 33.4229 74.5079 32.4736C78.1744 31.5242 90.3333 32.9488 91.2183 34.1206C92.1033 35.2923 92.4368 37.2941 91.5476 37.8415C90.6584 38.3889 90.9781 40.2357 92.2048 39.9709C93.4316 39.7062 97.7458 39.0121 102.9 40.7438C108.054 42.4754 108.473 43.6883 106.261 43.4152C104.049 43.1421 96.6891 44.7307 95.5035 45.4605C94.3179 46.1904 94.0448 48.4021 95.1302 48.3061C96.2156 48.2101 98.1216 46.7915 100.94 46.8547Z"
      fill="white" />
    <path
      d="M82.0021 74.7803C82.5621 66.9806 84.0304 63.559 84.6945 62.8231C85.0311 62.3246 87.5172 61.1672 86.2285 69.5626C84.9399 77.958 87.3686 87.7434 88.0807 90.4929C88.7928 93.2425 95.2641 92.2014 98.958 91.5621C102.652 90.9229 101.138 93.2443 99.0183 95.7756C96.8983 98.3069 89.8575 101.742 88.1519 101.893C86.4462 102.044 91.0377 97.419 91.5207 95.8138C92.0037 94.2085 89.3499 96.0058 85.5242 98.688C81.6985 101.37 80.6131 101.466 82.9418 94.2288C85.2705 86.9914 81.3022 84.5299 82.0021 74.7803Z"
      fill="white" />
    <path
      d="M53.0866 40.3718C55.5797 38.0159 59.9483 37.5597 61.821 37.6261C63.0833 37.601 62.2495 42.0552 61.329 42.4972C60.4086 42.9391 58.529 41.0897 58.1074 44.0441C57.6859 46.9984 60.5018 46.0808 60.6714 46.4339C60.8411 46.7869 59.9533 50.8341 59.3741 51.6916C58.7948 52.5491 56.6772 51.9727 54.0527 50.0465C51.4282 48.1203 49.9701 43.3165 53.0866 40.3718Z"
      fill="white" />
    <path
      d="M87.4597 5.00632L73.7079 26.1501C73.0987 26.9979 72.7146 28.0792 75.304 29.1101C77.3756 29.9348 79.8695 29.6798 80.1964 29.1101C83.9418 16.884 87.3679 8.31072 88.029 5.8875C88.2655 5.02054 87.9003 4.56573 87.4597 5.00632Z"
      fill="white" />
    <path
      d="M82.923 41.65C81.4133 40.4292 77.8494 39.7087 76.2561 39.5011C77.0093 37.0469 84.8995 38.4246 86.3989 38.7221C87.8983 39.0196 87.4029 40.1605 86.7081 42.0255C86.0134 43.8904 84.8102 43.176 82.923 41.65Z"
      fill="#0D0308" />
    <path
      d="M89.6707 86.9377C89.6707 84.2942 90.7464 82.1094 91.995 80.3471C93.136 78.5847 93.0968 79.7044 93.0968 83.4312C93.0968 87.3348 94.0776 87.8189 96.0607 87.8189C97.6031 87.8189 99.8066 87.3783 101.349 85.8362C102.01 85.1753 103.233 82.1094 103.894 82.3297C104.555 82.55 103.332 87.158 102.01 88.4798C100.688 89.8015 97.1624 90.0218 94.0776 90.2421C90.9927 90.4624 89.6707 90.2421 89.6707 86.9377Z"
      fill="white" />
    <path
      d="M105.47 63.6739C104.873 64.1243 105.032 63.0936 105.186 62.522C107.629 56.1906 103.614 57.8534 100.655 58.3293C97.6962 58.8052 95.7808 64.5432 94.6637 66.1665C93.5466 67.7898 94.4059 63.2387 95.1125 59.7785C95.8192 56.3183 100.742 56.1171 103.234 55.7983C105.726 55.4796 108.563 55.8763 108.476 58.0885C108.389 60.3008 106.216 63.111 105.47 63.6739Z"
      fill="white" />
    <path
      d="M65.6271 57.4559C67.5835 56.1275 67.6173 57.9306 67.3896 58.9983C65.1818 72.4066 77.3151 81.6747 78.6408 83.2755C79.9665 84.8762 70.966 80.7456 65.6048 73.9059C60.2436 67.0661 63.1816 59.1165 65.6271 57.4559Z"
      fill="#FFC108" />
    <path
      d="M66.9753 30.3222C65.9177 30.3222 63.8905 28.413 63.0091 27.4584C54.4157 17.7654 48.2459 18.4263 46.0425 18.6466C43.839 18.8669 43.178 18.8669 43.839 18.206C44.5001 17.5451 49.568 15.1219 53.7546 15.7828C57.9412 16.4436 61.2463 18.206 63.6701 22.1713C66.0939 26.1366 66.9753 26.5772 67.416 26.1366C67.8567 25.696 67.1957 23.0525 66.9753 20.6292C66.755 18.206 69.1788 18.206 69.6195 18.206C70.0602 18.206 73.5857 18.8669 71.8229 23.9337C70.0602 29.0004 68.2974 30.3222 66.9753 30.3222Z"
      fill="#EA1E62" />
    <path
      d="M37.6692 23.2725C47.8932 22.0389 56.3251 26.7238 59.2631 29.2205C61.9072 31.4234 57.5003 32.3046 50.6696 29.2205C43.8389 26.1363 38.1099 28.5596 35.6861 29.661C33.2623 30.7625 36.7878 30.3219 41.6354 30.5422C46.483 30.7625 49.7882 34.5075 50.4492 36.0496C51.1103 37.5916 49.1272 35.8293 42.0761 34.5075C35.025 33.1858 30.8385 35.1684 27.974 36.4902C25.1095 37.8119 30.3978 36.9308 33.9233 36.7105C37.4488 36.4902 43.1778 36.9308 29.2961 41.5569C15.4143 46.1831 12.1091 58.9602 10.787 62.7052C9.46495 66.4502 9.46495 62.9255 11.6684 51.4702C13.8719 40.0149 24.8891 24.8146 37.6692 23.2725Z"
      fill="#9B28B0" />
    <path
      d="M40.9744 43.3193C42.3846 43.3193 41.5619 44.6411 40.9744 45.302C22.4654 72.1779 40.9744 101.477 41.8557 103.9C42.737 106.324 28.4146 97.0711 24.4484 86.9376C20.4822 76.8041 23.7873 68.2126 23.7873 67.3314C23.7873 66.4502 22.0246 68.2126 20.0415 72.6185C18.0793 76.9777 18.7057 81.9839 19.146 85.5033L19.1601 85.6158C19.6008 89.1405 18.2788 87.3782 17.6177 85.8361C16.9567 84.2941 11.2277 73.7199 18.2788 58.7399C25.3298 43.7599 39.2116 43.3193 40.9744 43.3193Z"
      fill="#3F51B5" />
    <path
      d="M44.7205 50.5894C45.7781 49.0032 45.6019 50.9565 45.3815 52.1314C44.2798 59.6214 43.8391 67.7723 53.0936 84.5147C62.3481 101.257 53.5343 110.069 51.1105 111.831C48.6867 113.594 45.3815 116.898 47.585 111.831C49.7884 106.764 50.0088 99.4947 40.9746 82.7523C31.9404 66.01 43.3984 52.572 44.7205 50.5894Z"
      fill="#03A9F4" />
    <path
      d="M52.4324 69.3141C51.1984 61.736 56.3251 57.7854 59.0427 56.7573C59.7037 56.7573 60.8055 54.7747 59.0427 61.3835C57.2799 67.9923 59.4835 73.9403 62.5683 77.9056C65.6531 81.8709 78.2128 90.0218 76.2297 98.6132C74.2466 107.205 66.7549 110.95 63.009 112.932C59.2631 114.915 57.0597 115.796 62.1276 110.95C67.1956 106.103 70.9414 96.8509 64.5514 88.0391C58.1614 79.2273 53.9748 78.7868 52.4324 69.3141Z"
      fill="#8BC44A" />
  </g>
  <defs>
    <linearGradient id="paint0_linear" x1="60.0451" y1="3.84923" x2="60.0451" y2="120" gradientUnits="userSpaceOnUse">
      <stop stop-color="#101216" />
      <stop offset="1" stop-color="#0E1014" />
    </linearGradient>
    <clipPath id="clip0">
      <rect width="120" height="120" fill="white" />
    </clipPath>
  </defs>
</svg>