<svg width="120" height="120" viewBox="0 0 120 120" fill="none" xmlns="http://www.w3.org/2000/svg">
  <path
    d="M51.0599 118.409L60 110.455L68.9401 118.409C69.5514 118.939 70.9573 120 71.6909 120C72.6078 120 73.5247 119.091 74.2124 117.045C74.7626 115.409 77.1925 109.242 78.3386 106.364C78.5679 105.53 79.714 104.182 82.4648 105.455C85.2156 106.727 90.1823 108.864 92.3219 109.773C93.6973 110.379 96.4022 110.818 96.2188 107.727C96.0354 104.636 95.8368 99.7727 95.7603 97.7273C95.5311 96.3636 95.7603 93.5909 98.5111 93.4091C101.262 93.2273 106.84 92.5758 109.285 92.2727C110.584 92.1212 113.09 91.2727 112.724 89.0909C112.357 86.9091 110.584 78.3333 109.744 74.3182C109.514 73.4849 109.331 71.5909 110.431 70.6818C111.532 69.7727 116.391 65.4545 118.684 63.4091C119.677 62.6515 121.068 60.6818 118.684 58.8636C116.3 57.0455 112.189 53.8636 110.431 52.5C109.362 51.7424 107.864 49.7727 110.431 47.9545C112.999 46.1364 115.016 44.6212 115.704 44.0909C116.697 43.4848 118.088 41.8182 115.704 40C113.32 38.1818 107.833 34.0909 105.388 32.2727C104.853 32.1212 103.829 31.1364 104.013 28.4091C104.196 25.6818 104.7 20.4545 104.93 18.1818C105.159 16.8182 104.746 14.1818 101.262 14.5455C97.7776 14.9091 92.3219 15.6061 90.0295 15.9091C89.3418 16.1364 87.8747 16.1818 87.508 14.5455C87.1412 12.9091 86.1326 8.86364 85.6741 7.04545C85.3685 5.98485 84.0695 4.09091 81.3187 5C78.5679 5.90909 74.8237 6.74242 73.2955 7.04545C71.9965 7.27273 69.0318 7.45455 67.5647 6.36364C65.7308 5 62.0631 0 60 0C57.9369 0 54.2692 5 52.4353 6.36364C50.9682 7.45455 48.0035 7.27273 46.7045 7.04545C45.1763 6.74242 41.4321 5.90909 38.6813 5C35.9305 4.09091 34.6315 5.98485 34.3259 7.04545C33.8674 8.86364 32.8588 12.9091 32.492 14.5455C32.1253 16.1818 30.6582 16.1364 29.9705 15.9091C27.6781 15.6061 22.2224 14.9091 18.7381 14.5455C15.2537 14.1818 14.8411 16.8182 15.0703 18.1818C15.2996 20.4545 15.8039 25.6818 15.9873 28.4091C16.1706 31.1364 15.1467 32.1212 14.6119 32.2727C12.1667 34.0909 6.6804 38.1818 4.29637 40C1.91234 41.8182 3.30303 43.4848 4.29637 44.0909C4.98407 44.6212 7.00132 46.1364 9.56873 47.9545C12.1361 49.7727 10.6385 51.7424 9.56873 52.5C7.81128 53.8636 3.70037 57.0455 1.31634 58.8636C-1.06768 60.6818 0.323 62.6515 1.31634 63.4091C3.60867 65.4545 8.46841 69.7727 9.56873 70.6818C10.6691 71.5909 10.4857 73.4849 10.2564 74.3182C9.41591 78.3333 7.64318 86.9091 7.27641 89.0909C6.90963 91.2727 9.41592 92.1212 10.7149 92.2727C13.1601 92.5758 18.7381 93.2273 21.4889 93.4091C24.2397 93.5909 24.4689 96.3636 24.2397 97.7273C24.1632 99.7727 23.9646 104.636 23.7812 107.727C23.5978 110.818 26.3028 110.379 27.6782 109.773C29.8177 108.864 34.7844 106.727 37.5352 105.455C40.286 104.182 41.4321 105.53 41.6614 106.364C42.8075 109.242 45.2374 115.409 45.7876 117.045C46.4753 119.091 47.3922 120 48.3091 120C49.0427 120 50.4486 118.939 51.0599 118.409Z"
    fill="url(#paint0_radial)" />
  <g opacity="0.35">
    <path
      d="M53.9925 58.1353C55.1168 58.894 58.3958 60.6643 59.8947 61.4546L59.8947 75.2059C59.4263 75.601 57.9273 76.7707 55.6789 78.288C52.8683 80.1847 48.0904 82.3186 45.8419 83.0299C43.5935 83.7411 44.4366 84.6895 44.9987 87.5346C45.5609 90.3797 47.2472 92.2764 48.0904 92.9877C48.9335 93.699 49.4956 93.2248 49.2146 91.8022C48.9897 90.6642 50.0578 91.3281 50.6199 91.8022L59.8947 98.915V110.77C58.8642 110.374 55.6227 108.873 50.9009 106.028C44.9987 102.471 38.2534 96.307 37.1292 95.3586C36.2298 94.5999 36.1923 95.2005 36.286 95.5957C36.4734 96.0699 36.9043 97.2553 37.1292 98.2037C37.354 99.1521 36.6607 98.915 36.286 98.6779C34.5997 97.3344 30.2152 93.1774 26.168 87.2975C21.109 79.9477 19.9847 71.6495 19.9847 70.2269C19.9847 69.0889 19.2353 69.2786 18.8605 69.5157C18.5795 69.6737 17.7925 70.1795 16.8931 70.9382C15.9937 71.6969 15.7689 71.2543 15.7689 70.9382C15.6752 69.7528 15.7127 65.2481 16.6121 56.7127C17.7363 46.0436 21.39 41.5389 22.5142 40.1164C23.6385 38.6938 22.2332 38.2196 21.39 37.7454C20.7155 37.3661 21.109 36.639 21.39 36.3229C22.7016 34.8213 26.3928 31.2492 30.6649 28.9731C34.9369 26.697 39.565 25.4958 41.345 25.1797C43.6872 24.8635 46.8537 24.6581 40.7829 26.3651C33.1944 28.4989 28.9786 33.2408 28.1354 34.1891C27.4609 34.9478 27.8543 35.6117 28.1354 35.8488C28.3228 36.0859 29.4845 37.1291 32.6323 39.4051C36.5671 42.2502 45.2798 46.0437 46.6851 46.755C47.8093 47.324 47.3409 48.0985 46.9662 48.4146C44.343 50.8645 38.5345 56.9025 36.286 61.4546C33.4755 67.1448 36.8481 74.2575 39.9397 76.6284C42.413 78.5252 45.8419 77.2607 47.2472 76.3914L53.9925 72.1237C56.6907 70.4167 55.4915 68.2512 54.5547 67.3819C53.6178 66.6706 51.2944 64.9636 49.4956 63.8255C47.6969 62.6875 47.9967 61.6127 48.3714 61.2175C49.2146 60.2692 51.0134 58.2776 51.463 57.8982C52.0252 57.4241 52.5873 57.187 53.9925 58.1353Z"
      fill="black" />
    <path
      d="M65.7969 58.1353C64.6727 58.894 61.3937 60.6643 59.8947 61.4546L59.8947 75.2059C60.3632 75.601 61.8621 76.7707 64.1106 78.288C66.9211 80.1847 71.6991 82.3186 73.9475 83.0299C76.196 83.7411 75.3528 84.6895 74.7907 87.5346C74.2286 90.3797 72.5422 92.2764 71.6991 92.9877C70.8559 93.699 70.2938 93.2248 70.5749 91.8022C70.7997 90.6642 69.7317 91.3281 69.1696 91.8022L59.8947 98.915V110.77C60.9253 110.374 64.1668 108.873 68.8885 106.028C74.7907 102.471 81.5361 96.307 82.6603 95.3586C83.5597 94.5999 83.5971 95.2005 83.5034 95.5957C83.3161 96.0699 82.8851 97.2553 82.6603 98.2037C82.4354 99.1521 83.1287 98.915 83.5034 98.6779C85.1898 97.3344 89.5743 93.1774 93.6215 87.2975C98.6805 79.9477 99.8047 71.6495 99.8047 70.2269C99.8047 69.0889 100.554 69.2786 100.929 69.5157C101.21 69.6737 101.997 70.1795 102.896 70.9382C103.796 71.6969 104.021 71.2543 104.021 70.9382C104.114 69.7528 104.077 65.2481 103.177 56.7127C102.053 46.0436 98.3994 41.5389 97.2752 40.1164C96.151 38.6938 97.5563 38.2196 98.3994 37.7454C99.074 37.3661 98.6805 36.639 98.3994 36.3229C97.0878 34.8213 93.3966 31.2492 89.1246 28.9731C84.8525 26.697 80.2245 25.4958 78.4444 25.1797C76.1023 24.8635 72.9357 24.6581 79.0065 26.3651C86.5951 28.4989 90.8109 33.2408 91.6541 34.1891C92.3286 34.9478 91.9351 35.6117 91.6541 35.8488C91.4667 36.0859 90.305 37.1291 87.1572 39.4051C83.2224 42.2502 74.5096 46.0437 73.1044 46.755C71.9801 47.324 72.4486 48.0985 72.8233 48.4146C75.4465 50.8645 81.255 56.9025 83.5034 61.4546C86.314 67.1448 82.9413 74.2575 79.8497 76.6284C77.3764 78.5252 73.9475 77.2607 72.5422 76.3914L65.7969 72.1237C63.0988 70.4167 64.2979 68.2512 65.2348 67.3819C66.1716 66.6706 68.495 64.9636 70.2938 63.8255C72.0926 62.6875 71.7928 61.6127 71.418 61.2175C70.5749 60.2692 68.7761 58.2776 68.3264 57.8982C67.7643 57.4241 67.2022 57.187 65.7969 58.1353Z"
      fill="black" />
  </g>
  <path
    d="M53.9925 52.0514C55.1168 52.81 58.3958 54.5803 59.8947 55.3706L59.8947 69.1219C59.4263 69.517 57.9273 70.6867 55.6789 72.2041C52.8683 74.1007 48.0904 76.2346 45.8419 76.9459C43.5935 77.6572 44.4366 78.6055 44.9987 81.4506C45.5609 84.2957 47.2472 86.1924 48.0904 86.9037C48.9335 87.615 49.4956 87.1408 49.2146 85.7183C48.9897 84.5802 50.0578 85.2441 50.6199 85.7183L59.8947 92.831V104.686C58.8642 104.29 55.6227 102.789 50.9009 99.9437C44.9987 96.3874 38.2534 90.223 37.1292 89.2746C36.2298 88.5159 36.1923 89.1166 36.286 89.5117C36.4734 89.9859 36.9043 91.1713 37.1292 92.1197C37.354 93.0681 36.6607 92.831 36.286 92.5939C34.5997 91.2504 30.2152 87.0934 26.168 81.2135C21.109 73.8637 19.9847 65.5655 19.9847 64.143C19.9847 63.0049 19.2353 63.1946 18.8605 63.4317C18.5795 63.5897 17.7925 64.0955 16.8931 64.8542C15.9937 65.6129 15.7689 65.1703 15.7689 64.8542C15.6752 63.6688 15.7127 59.1641 16.6121 50.6288C17.7363 39.9596 21.39 35.4549 22.5142 34.0324C23.6385 32.6098 22.2332 32.1356 21.39 31.6615C20.7155 31.2821 21.109 30.555 21.39 30.2389C22.7016 28.7373 26.3928 25.1652 30.6649 22.8891C34.9369 20.613 39.565 19.4118 41.345 19.0957C43.6872 18.7796 46.8537 18.5741 40.7829 20.2811C33.1944 22.415 28.9786 27.1568 28.1354 28.1051C27.4609 28.8638 27.8543 29.5277 28.1354 29.7648C28.3228 30.0019 29.4845 31.0451 32.6323 33.3212C36.5671 36.1662 45.2798 39.9597 46.6851 40.671C47.8093 41.24 47.3409 42.0145 46.9662 42.3306C44.343 44.7806 38.5345 50.8185 36.286 55.3706C33.4755 61.0608 36.8481 68.1735 39.9397 70.5445C42.413 72.4412 45.8419 71.1767 47.2472 70.3074L53.9925 66.0397C56.6907 64.3327 55.4915 62.1672 54.5547 61.2979C53.6178 60.5866 51.2944 58.8796 49.4956 57.7415C47.6969 56.6035 47.9967 55.5287 48.3714 55.1335C49.2146 54.1852 51.0134 52.1936 51.463 51.8143C52.0252 51.3401 52.5873 51.103 53.9925 52.0514Z"
    fill="url(#paint1_linear)" />
  <path
    d="M65.7969 52.0514C64.6727 52.81 61.3937 54.5803 59.8947 55.3706L59.8947 69.1219C60.3631 69.517 61.8621 70.6867 64.1106 72.2041C66.9211 74.1007 71.6991 76.2346 73.9475 76.9459C76.196 77.6572 75.3528 78.6055 74.7907 81.4506C74.2286 84.2957 72.5422 86.1924 71.6991 86.9037C70.8559 87.615 70.2938 87.1408 70.5749 85.7183C70.7997 84.5802 69.7317 85.2441 69.1696 85.7183L59.8947 92.831V104.686C60.9253 104.29 64.1668 102.789 68.8885 99.9437C74.7907 96.3874 81.5361 90.223 82.6603 89.2746C83.5597 88.5159 83.5971 89.1166 83.5034 89.5117C83.3161 89.9859 82.8851 91.1713 82.6603 92.1197C82.4354 93.0681 83.1287 92.831 83.5034 92.5939C85.1898 91.2504 89.5743 87.0934 93.6215 81.2135C98.6805 73.8637 99.8047 65.5655 99.8047 64.143C99.8047 63.0049 100.554 63.1946 100.929 63.4317C101.21 63.5897 101.997 64.0955 102.896 64.8542C103.796 65.6129 104.021 65.1703 104.021 64.8542C104.114 63.6688 104.077 59.1641 103.177 50.6288C102.053 39.9596 98.3994 35.4549 97.2752 34.0324C96.151 32.6098 97.5563 32.1356 98.3994 31.6615C99.074 31.2821 98.6805 30.555 98.3994 30.2389C97.0878 28.7373 93.3966 25.1652 89.1246 22.8891C84.8525 20.613 80.2244 19.4118 78.4444 19.0957C76.1023 18.7796 72.9357 18.5741 79.0065 20.2811C86.5951 22.415 90.8109 27.1568 91.6541 28.1051C92.3286 28.8638 91.9351 29.5277 91.6541 29.7648C91.4667 30.0019 90.305 31.0451 87.1572 33.3212C83.2224 36.1662 74.5096 39.9597 73.1044 40.671C71.9801 41.24 72.4486 42.0145 72.8233 42.3306C75.4465 44.7806 81.255 50.8185 83.5034 55.3706C86.314 61.0608 82.9413 68.1735 79.8497 70.5445C77.3764 72.4412 73.9475 71.1767 72.5422 70.3074L65.7969 66.0397C63.0988 64.3327 64.2979 62.1672 65.2348 61.2979C66.1716 60.5866 68.495 58.8796 70.2938 57.7415C72.0926 56.6035 71.7928 55.5287 71.418 55.1335C70.5749 54.1852 68.7761 52.1936 68.3264 51.8143C67.7643 51.3401 67.2022 51.103 65.7969 52.0514Z"
    fill="url(#paint2_linear)" />
  <path
    d="M37.436 45.6597C36.5535 46.3464 35.9652 45.755 35.7814 45.3735C34.4025 43.9427 32.1962 39.6502 31.3689 37.9332C30.5416 36.2163 31.3689 36.7886 32.7478 37.9332C34.1267 39.0779 37.9876 41.3672 39.3665 41.9395C40.4696 42.3974 40.1938 43.0842 39.918 43.3703C39.4584 43.8473 38.3185 44.9729 37.436 45.6597Z"
    fill="white" />
  <path
    d="M82.4388 45.6597C83.3213 46.3464 83.9097 45.755 84.0935 45.3735C85.4724 43.9427 87.6786 39.6502 88.506 37.9332C89.3333 36.2163 88.506 36.7886 87.1271 37.9332C85.7482 39.0779 81.8873 41.3672 80.5084 41.9395C79.4053 42.3974 79.6811 43.0842 79.9568 43.3703C80.4165 43.8473 81.5564 44.9729 82.4388 45.6597Z"
    fill="white" />
  <defs>
    <radialGradient id="paint0_radial" cx="0" cy="0" r="1" gradientUnits="userSpaceOnUse"
      gradientTransform="translate(60 22.2137) rotate(90) scale(97.7863)">
      <stop stop-color="#FFC108" />
      <stop offset="0.442623" stop-color="#EA1E62" />
      <stop offset="0.700234" stop-color="#9B28B0" />
      <stop offset="1" stop-color="#03A9F4" />
    </radialGradient>
    <linearGradient id="paint1_linear" x1="59.8947" y1="18.8813" x2="59.8947" y2="104.686"
      gradientUnits="userSpaceOnUse">
      <stop stop-color="#160309" />
      <stop offset="1" stop-color="#020307" />
    </linearGradient>
    <linearGradient id="paint2_linear" x1="59.8947" y1="18.8813" x2="59.8947" y2="104.686"
      gradientUnits="userSpaceOnUse">
      <stop stop-color="#160309" />
      <stop offset="1" stop-color="#020307" />
    </linearGradient>
  </defs>
</svg>